<?xml version="1.0" encoding="UTF-8"?>
<!DOCTYPE svg PUBLIC "-//W3C//DTD SVG 1.1//EN" "http://www.w3.org/Graphics/SVG/1.1/DTD/svg11.dtd">
<svg xmlns="http://www.w3.org/2000/svg" version="1.1" width="512px" height="494px" style="shape-rendering:geometricPrecision; text-rendering:geometricPrecision; image-rendering:optimizeQuality; fill-rule:evenodd; clip-rule:evenodd" xmlns:xlink="http://www.w3.org/1999/xlink">
<g><path style="opacity:0.731" fill="#1d48cf" d="M 255.5,-0.5 C 262.5,-0.5 269.5,-0.5 276.5,-0.5C 276.876,4.98169 275.209,6.14835 271.5,3C 269.19,2.50335 266.857,2.33669 264.5,2.5C 264.308,5.60075 263.642,8.60075 262.5,11.5C 265.086,12.48 267.753,12.8134 270.5,12.5C 270.67,13.8221 270.337,14.9887 269.5,16C 266.869,16.1067 264.369,16.2734 262,16.5C 260.819,20.3629 258.986,23.8629 256.5,27C 261.658,27.91 266.658,27.41 271.5,25.5C 272.282,27.3293 271.616,28.8293 269.5,30C 266.456,31.0724 263.29,31.5724 260,31.5C 254.842,30.6763 250.009,30.5096 245.5,31C 246.257,29.4878 247.257,28.1545 248.5,27C 250.676,26.8371 252.509,26.0037 254,24.5C 256.138,17.2831 257.638,9.94979 258.5,2.5C 253.901,2.59902 251.401,4.93235 251,9.5C 249.89,11.0368 248.39,11.7035 246.5,11.5C 246.509,5.16856 249.509,1.16856 255.5,-0.5 Z"/></g>
<g><path style="opacity:0.792" fill="#1d48cf" d="M 262.5,34.5 C 263.458,34.9528 264.292,35.6195 265,36.5C 266.549,44.0325 268.716,51.3659 271.5,58.5C 317.359,62.3182 357.025,79.6515 390.5,110.5C 393.173,109.499 395.507,107.999 397.5,106C 398.784,105.316 399.951,105.483 401,106.5C 400.613,109.941 399.113,112.941 396.5,115.5C 427.438,149.397 444.771,189.397 448.5,235.5C 455.541,237.511 462.541,239.677 469.5,242C 470.973,242.71 471.64,243.876 471.5,245.5C 463.681,247.371 456.014,249.704 448.5,252.5C 444.444,298.25 427.111,337.917 396.5,371.5C 398.941,374.506 400.275,377.673 400.5,381C 396.833,380 393.167,379 389.5,378C 356.462,408.032 317.462,424.698 272.5,428C 270.615,430.939 269.115,434.105 268,437.5C 267.254,441.896 266.254,446.23 265,450.5C 264.29,451.973 263.124,452.64 261.5,452.5C 259.718,443.99 257.052,435.823 253.5,428C 208.522,424.694 169.522,408.027 136.5,378C 132.643,379.286 128.643,380.453 124.5,381.5C 125.388,378.757 126.555,376.09 128,373.5C 128.667,372.167 128.667,370.833 128,369.5C 97.8023,336.524 80.969,297.524 77.5,252.5C 70.0202,249.711 62.3536,247.378 54.5,245.5C 54.33,244.178 54.6634,243.011 55.5,242C 61.7254,239.925 68.0587,238.258 74.5,237C 75.5786,236.044 76.7453,235.211 78,234.5C 81.3078,189.514 97.9744,150.514 128,117.5C 127.71,113.251 126.544,109.251 124.5,105.5C 128.301,106.45 131.801,108.117 135,110.5C 168.573,79.6152 208.406,62.4485 254.5,59C 257.27,50.8583 259.936,42.6916 262.5,34.5 Z M 252.5,62.5 C 253.496,62.4142 254.329,62.7476 255,63.5C 255.912,66.2385 257.412,68.5719 259.5,70.5C 258.939,73.5351 258.273,76.5351 257.5,79.5C 218.193,82.2541 183.693,96.2541 154,121.5C 149.084,117.957 143.917,114.79 138.5,112C 170.581,82.132 208.581,65.632 252.5,62.5 Z M 271.5,62.5 C 316.358,65.1109 355.025,81.6109 387.5,112C 382.099,114.784 376.933,117.95 372,121.5C 342.35,96.1029 307.85,82.2695 268.5,80C 267.698,76.9015 267.031,73.7349 266.5,70.5C 268.977,68.3529 270.644,65.6863 271.5,62.5 Z M 260.5,79.5 C 261.499,121.997 261.832,164.663 261.5,207.5C 258.475,207.877 255.475,208.044 252.5,208C 253.833,207 253.833,206 252.5,205C 247.4,202.387 242.733,199.22 238.5,195.5C 242.974,196.634 247.474,198.634 252,201.5C 253.826,200.99 253.993,200.156 252.5,199C 247.282,196.728 243.115,193.562 240,189.5C 244.704,191.435 249.204,193.769 253.5,196.5C 253.833,196.167 254.167,195.833 254.5,195.5C 249.693,192.255 245.026,188.755 240.5,185C 245.142,185.567 249.309,187.401 253,190.5C 253.5,190.167 254,189.833 254.5,189.5C 250.205,186.345 245.871,183.179 241.5,180C 242.833,179.333 244.167,179.333 245.5,180C 248.5,181.833 251.5,183.667 254.5,185.5C 254.833,185 255.167,184.5 255.5,184C 251.874,180.848 247.874,178.181 243.5,176C 242.289,175.107 242.289,174.274 243.5,173.5C 247.745,175.967 252.078,177.801 256.5,179C 251.801,175.98 247.467,172.48 243.5,168.5C 246.896,169.014 250.229,170.514 253.5,173C 254.5,173.667 255.5,173.667 256.5,173C 252.279,170.063 248.279,166.896 244.5,163.5C 244.833,163.167 245.167,162.833 245.5,162.5C 248.329,163.747 250.995,165.247 253.5,167C 254.5,167.667 255.5,167.667 256.5,167C 252.795,164.155 249.128,161.322 245.5,158.5C 246,158.167 246.5,157.833 247,157.5C 249.984,159.16 252.984,160.826 256,162.5C 256.167,162.167 256.333,161.833 256.5,161.5C 253.393,158.44 250.059,155.606 246.5,153C 247,152.5 247.5,152 248,151.5C 250.389,153.95 253.222,155.117 256.5,155C 253.734,152.643 251.067,150.309 248.5,148C 248.667,147.5 248.833,147 249,146.5C 250.833,147.667 252.667,148.833 254.5,150C 255.635,150.749 256.635,150.583 257.5,149.5C 255.445,147.445 253.112,145.779 250.5,144.5C 249.167,143.5 249.167,142.5 250.5,141.5C 252.75,143.798 255.416,144.631 258.5,144C 255.419,141.563 252.419,139.23 249.5,137C 249.833,136.5 250.167,136 250.5,135.5C 252.957,137.757 255.624,138.757 258.5,138.5C 255.983,136.15 253.316,133.983 250.5,132C 250.833,131.5 251.167,131 251.5,130.5C 253.5,131.5 255.5,132.5 257.5,133.5C 257.833,133.167 258.167,132.833 258.5,132.5C 256.31,130.476 253.977,128.643 251.5,127C 252.025,126.308 252.692,125.808 253.5,125.5C 254.968,127.333 256.635,127.666 258.5,126.5C 251.477,121.083 251.81,119.249 259.5,121C 257.154,119.987 255.487,118.321 254.5,116C 254.667,115.5 254.833,115 255,114.5C 260.399,117.037 260.733,116.37 256,112.5C 255.833,111 255.667,109.5 255.5,108C 257.619,98.5735 259.285,89.0735 260.5,79.5 Z M 240.5,84.5 C 242.5,84.5 244.5,84.5 246.5,84.5C 246.704,87.5176 247.037,90.5176 247.5,93.5C 238.105,94.849 228.772,96.5157 219.5,98.5C 218.539,95.5739 217.873,92.5739 217.5,89.5C 225.223,87.548 232.89,85.8813 240.5,84.5 Z M 278.5,84.5 C 288.67,85.2382 298.67,86.9048 308.5,89.5C 308.067,92.1656 307.567,94.8323 307,97.5C 306.107,98.0814 305.107,98.4148 304,98.5C 295.628,96.1147 287.128,94.448 278.5,93.5C 278.5,90.5 278.5,87.5 278.5,84.5 Z M 247.5,96.5 C 249.833,96.5 252.167,96.5 254.5,96.5C 249.529,122.857 244.362,149.19 239,175.5C 231.295,178.601 224.128,182.601 217.5,187.5C 211.21,184.24 204.876,180.906 198.5,177.5C 197.914,177.709 197.414,178.043 197,178.5C 197.032,180.598 197.699,182.598 199,184.5C 201.835,189.019 204.669,193.519 207.5,198C 202.326,204.515 198.326,211.681 195.5,219.5C 168.98,224.904 142.48,230.237 116,235.5C 115.427,229.461 115.761,223.461 117,217.5C 133.772,148.225 177.272,107.892 247.5,96.5 Z M 284.5,176.5 C 284.237,171.491 284.237,166.158 284.5,160.5C 283.5,160.5 282.5,160.5 281.5,160.5C 284.258,158.245 283.924,156.412 280.5,155C 282.983,153.145 282.983,151.311 280.5,149.5C 281.76,147.153 281.094,145.32 278.5,144C 278.868,139.585 278.868,135.252 278.5,131C 278.192,129.541 277.525,128.374 276.5,127.5C 277.632,125.533 277.299,123.7 275.5,122C 276.584,119.81 275.917,118.144 273.5,117C 274.081,116.107 274.415,115.107 274.5,114C 273.551,108.474 272.551,102.974 271.5,97.5C 306.277,98.5541 336.61,110.721 362.5,134C 391.822,161.48 407.489,195.313 409.5,235.5C 383.224,229.911 356.891,224.578 330.5,219.5C 327.297,212.027 323.63,204.86 319.5,198C 323.236,191.361 326.569,184.528 329.5,177.5C 322.006,180.169 314.839,183.502 308,187.5C 300.994,182.08 293.16,178.414 284.5,176.5 Z M 185.5,102.5 C 187.601,105.179 189.601,108.012 191.5,111C 183.1,115.285 175.267,120.452 168,126.5C 165.065,124.273 163.065,121.606 162,118.5C 169.466,112.525 177.299,107.192 185.5,102.5 Z M 338.5,103.5 C 340.655,103.372 342.655,103.872 344.5,105C 351.146,109.637 357.812,114.304 364.5,119C 362.38,121.409 360.38,123.909 358.5,126.5C 351.136,121.304 343.636,116.304 336,111.5C 336.107,108.676 336.94,106.009 338.5,103.5 Z M 137.5,116.5 C 137.56,115.957 137.893,115.624 138.5,115.5C 142.5,117.833 146.5,120.167 150.5,122.5C 151.761,124.562 151.261,126.228 149,127.5C 145.298,123.63 141.464,119.963 137.5,116.5 Z M 386.5,115.5 C 387.239,115.369 387.906,115.536 388.5,116C 384.667,119.833 380.833,123.667 377,127.5C 375.833,126.333 374.667,125.167 373.5,124C 378.24,121.64 382.574,118.807 386.5,115.5 Z M 130.5,119.5 C 133.297,123.735 136.131,128.068 139,132.5C 139.667,133.833 139.667,135.167 139,136.5C 114.314,165.489 100.981,199.155 99,237.5C 95.741,238.649 92.4077,239.649 89,240.5C 87.2806,238.284 85.114,236.617 82.5,235.5C 84.2106,190.767 100.211,152.1 130.5,119.5 Z M 394.5,119.5 C 424.968,151.327 441.635,189.493 444.5,234C 441.72,235.812 439.22,237.979 437,240.5C 433.598,239.274 430.098,238.607 426.5,238.5C 425.525,211.079 418.358,185.412 405,161.5C 398.951,152.562 392.784,143.729 386.5,135C 388.789,129.587 391.456,124.42 394.5,119.5 Z M 137.5,142.5 C 140.455,144.122 143.122,146.122 145.5,148.5C 139.959,156.294 134.459,163.96 129,171.5C 126.586,170.043 124.086,168.709 121.5,167.5C 126.066,158.616 131.4,150.282 137.5,142.5 Z M 387.5,142.5 C 389.982,145.429 392.482,148.429 395,151.5C 398.135,156.646 401.302,161.813 404.5,167C 401.582,168.709 398.748,170.542 396,172.5C 391.581,163.99 386.414,155.99 380.5,148.5C 382.878,146.448 385.211,144.448 387.5,142.5 Z M 237.5,179.5 C 238.097,179.735 238.43,180.235 238.5,181C 237.546,186.517 236.546,192.017 235.5,197.5C 230.595,195.048 225.595,192.548 220.5,190C 226.198,186.488 231.865,182.988 237.5,179.5 Z M 285.5,199.5 C 286.406,198.035 287.739,197.035 289.5,196.5C 290.429,195.311 290.762,193.978 290.5,192.5C 289.5,192.5 288.5,192.5 287.5,192.5C 288.942,191.18 289.608,189.514 289.5,187.5C 288.167,187.5 286.833,187.5 285.5,187.5C 286.929,186.766 287.929,185.599 288.5,184C 288.252,182.251 287.252,181.418 285.5,181.5C 286.172,180.733 287.005,180.066 288,179.5C 294.116,182.634 299.949,186.134 305.5,190C 299.362,194.312 292.695,197.478 285.5,199.5 Z M 314.5,188.5 C 306.481,198.026 297.814,207.193 288.5,216C 287.833,216.667 287.167,216.667 286.5,216C 283.64,213.64 280.64,211.473 277.5,209.5C 289.608,202.049 301.941,195.049 314.5,188.5 Z M 206.5,189.5 C 216.388,199.44 226.388,209.274 236.5,219C 233.129,222.236 230.629,226.069 229,230.5C 221.243,216.926 213.743,203.259 206.5,189.5 Z M 108.5,197.5 C 111.884,198.343 114.884,199.843 117.5,202C 115.75,210.496 114.084,218.996 112.5,227.5C 109.681,227.742 106.681,227.742 103.5,227.5C 103.891,217.273 105.558,207.273 108.5,197.5 Z M 415.5,197.5 C 416.931,197.881 417.764,198.881 418,200.5C 419.837,209.18 421.67,217.846 423.5,226.5C 420.296,227.204 417.129,227.87 414,228.5C 412.799,219.341 410.632,210.341 407.5,201.5C 410.148,199.962 412.815,198.628 415.5,197.5 Z M 208.5,201.5 C 210.08,204.263 211.913,206.93 214,209.5C 215.301,211.402 215.968,213.402 216,215.5C 210.278,217.391 204.444,218.557 198.5,219C 201.466,212.895 204.799,207.062 208.5,201.5 Z M 316.5,201.5 C 321.067,206.279 324.4,211.946 326.5,218.5C 320.437,218.455 314.437,217.288 308.5,215C 311.808,210.885 314.475,206.385 316.5,201.5 Z M 255.5,210.5 C 274.587,208.285 287.754,215.952 295,233.5C 299.173,253.992 291.673,268.159 272.5,276C 259.305,278.934 247.805,275.768 238,266.5C 225.288,248.118 227.122,231.285 243.5,216C 247.71,214.391 251.71,212.558 255.5,210.5 Z M 145.5,238.5 C 145.528,236.418 144.861,234.584 143.5,233C 144,232.833 144.5,232.667 145,232.5C 147.683,234.85 150.016,237.517 152,240.5C 151.524,237.84 150.69,235.174 149.5,232.5C 149.833,232.167 150.167,231.833 150.5,231.5C 152.455,233.958 154.622,236.291 157,238.5C 157.17,236.017 156.336,233.851 154.5,232C 155,231.5 155.5,231 156,230.5C 157.961,233.463 160.294,236.129 163,238.5C 163.082,235.916 162.249,233.583 160.5,231.5C 160.808,230.692 161.308,230.025 162,229.5C 163.689,232.891 165.856,235.891 168.5,238.5C 168.555,235.503 167.555,232.503 165.5,229.5C 165.833,229.167 166.167,228.833 166.5,228.5C 169.185,231.19 171.518,234.19 173.5,237.5C 173.833,237 174.167,236.5 174.5,236C 173.385,233.384 172.051,230.884 170.5,228.5C 171,228.167 171.5,227.833 172,227.5C 174.667,230.673 177.167,234.006 179.5,237.5C 180.583,236.635 180.749,235.635 180,234.5C 178.374,232.083 176.874,229.583 175.5,227C 176,226.833 176.5,226.667 177,226.5C 179.949,229.965 182.782,233.631 185.5,237.5C 185.833,237.167 186.167,236.833 186.5,236.5C 184.893,232.788 182.893,229.288 180.5,226C 181,225.833 181.5,225.667 182,225.5C 185.152,229.108 188.319,232.775 191.5,236.5C 191.833,236.333 192.167,236.167 192.5,236C 190.64,232.451 188.64,228.951 186.5,225.5C 186.833,225.167 187.167,224.833 187.5,224.5C 190.418,228.597 193.585,232.597 197,236.5C 196.442,231.873 194.608,227.706 191.5,224C 192,223.833 192.5,223.667 193,223.5C 196.328,228.093 199.662,232.76 203,237.5C 202.609,232.366 200.775,227.7 197.5,223.5C 197.833,223.167 198.167,222.833 198.5,222.5C 201.882,225.642 204.548,229.308 206.5,233.5C 207.365,234.583 208.365,234.749 209.5,234C 206.399,229.98 204.399,225.813 203.5,221.5C 207.232,225.949 210.732,230.616 214,235.5C 214.667,234.167 214.667,232.833 214,231.5C 211.898,228.295 210.065,224.962 208.5,221.5C 208.833,221.167 209.167,220.833 209.5,220.5C 212.846,225.204 216.179,229.871 219.5,234.5C 219.833,234 220.167,233.5 220.5,233C 218.15,228.657 215.817,224.323 213.5,220C 213.833,219.833 214.167,219.667 214.5,219.5C 218.48,224.113 221.98,229.113 225,234.5C 225.333,234.167 225.667,233.833 226,233.5C 226.498,236.482 226.665,239.482 226.5,242.5C 183.499,242.667 140.499,242.5 97.5,242C 108.376,239.825 119.209,237.658 130,235.5C 131.667,237.5 133.333,239.5 135,241.5C 132.179,232.927 133.679,232.261 139.5,239.5C 139.351,237.61 139.351,235.61 139.5,233.5C 141.563,235.242 143.563,236.909 145.5,238.5 Z M 317.5,234.5 C 321.154,230.999 324.32,226.999 327,222.5C 327.5,222.667 328,222.833 328.5,223C 326.664,226.518 324.83,230.018 323,233.5C 322.251,234.635 322.417,235.635 323.5,236.5C 326.266,231.955 329.266,227.622 332.5,223.5C 331.948,227.822 330.281,231.989 327.5,236C 328,236.167 328.5,236.333 329,236.5C 331.615,232.217 334.615,228.217 338,224.5C 338.5,224.667 339,224.833 339.5,225C 336.993,228.694 335.66,232.528 335.5,236.5C 337.414,233.006 339.581,229.672 342,226.5C 342.893,225.289 343.726,225.289 344.5,226.5C 342.381,230.05 340.881,233.717 340,237.5C 342.819,233.882 345.652,230.215 348.5,226.5C 348.794,229.977 347.794,233.311 345.5,236.5C 345.833,236.833 346.167,237.167 346.5,237.5C 348.676,233.837 351.343,230.504 354.5,227.5C 354.833,227.667 355.167,227.833 355.5,228C 353.855,231.098 352.688,234.265 352,237.5C 354.304,234.36 356.804,231.36 359.5,228.5C 359.833,229 360.167,229.5 360.5,230C 359.047,232.405 357.713,234.905 356.5,237.5C 357.002,238.521 357.668,238.688 358.5,238C 359.931,234.573 362.098,231.74 365,229.5C 364.993,232.863 363.827,235.863 361.5,238.5C 361.833,238.833 362.167,239.167 362.5,239.5C 364.88,236.076 367.713,233.076 371,230.5C 370.582,233.521 369.415,236.355 367.5,239C 367.833,239.167 368.167,239.333 368.5,239.5C 370.782,236.582 373.282,233.915 376,231.5C 376.5,231.667 377,231.833 377.5,232C 376.292,234.25 374.959,236.417 373.5,238.5C 373.833,238.833 374.167,239.167 374.5,239.5C 376.413,236.894 378.579,234.56 381,232.5C 381.5,232.833 382,233.167 382.5,233.5C 381.041,235.583 379.708,237.75 378.5,240C 379,240.167 379.5,240.333 380,240.5C 382.176,238.197 384.176,235.864 386,233.5C 386.5,233.833 387,234.167 387.5,234.5C 386.627,236.413 385.627,238.247 384.5,240C 384.833,240.167 385.167,240.333 385.5,240.5C 387.345,238.769 389.178,237.102 391,235.5C 392.479,236.873 392.312,238.373 390.5,240C 390.833,240.167 391.167,240.333 391.5,240.5C 393.459,239.252 394.959,237.585 396,235.5C 406.791,237.658 417.624,239.825 428.5,242C 385.833,242.667 343.167,242.667 300.5,242C 299.005,238.775 298.672,235.608 299.5,232.5C 299.639,234.337 300.306,234.67 301.5,233.5C 314.208,214.52 315.208,215.02 304.5,235C 305.167,235.667 305.833,235.667 306.5,235C 309.723,230.042 313.056,225.209 316.5,220.5C 316.833,220.833 317.167,221.167 317.5,221.5C 314.976,225.743 312.643,230.076 310.5,234.5C 311.325,235.386 312.325,235.719 313.5,235.5C 315.551,230.405 318.384,225.738 322,221.5C 322.5,221.667 323,221.833 323.5,222C 320.638,225.752 318.638,229.918 317.5,234.5 Z M 87.5,247.5 C 91.448,247.686 95.2813,248.352 99,249.5C 100.81,287.966 114.143,321.632 139,350.5C 139.667,351.833 139.667,353.167 139,354.5C 136.07,358.699 133.403,363.032 131,367.5C 109.646,345.477 94.9789,319.477 87,289.5C 83.9143,277.325 82.2476,264.992 82,252.5C 84.6115,251.623 86.4449,249.957 87.5,247.5 Z M 433.5,247.5 C 438.268,247.762 441.935,249.928 444.5,254C 441.172,298.02 424.672,336.187 395,368.5C 391.459,363.204 388.292,357.704 385.5,352C 410.873,322.72 424.873,288.554 427.5,249.5C 429.657,248.95 431.657,248.283 433.5,247.5 Z M 173.5,261.5 C 174.932,263.647 176.765,263.98 179,262.5C 180.459,264.81 182.292,265.143 184.5,263.5C 184.787,265.121 185.787,266.121 187.5,266.5C 189.929,266.579 192.429,266.245 195,265.5C 197.208,274.418 201.375,282.251 207.5,289C 203.6,295.392 199.934,301.892 196.5,308.5C 197.242,309.287 198.075,309.953 199,310.5C 204.886,306.469 211.053,302.802 217.5,299.5C 220.64,301.473 223.64,303.64 226.5,306C 230.741,307.704 234.907,309.538 239,311.5C 244.656,338.109 249.656,364.775 254,391.5C 196.209,385.671 154.209,357.004 128,305.5C 120.638,288.582 116.471,270.915 115.5,252.5C 121.463,253.662 127.463,254.662 133.5,255.5C 134.442,255.392 135.275,255.059 136,254.5C 137.396,256.527 139.062,256.86 141,255.5C 144.353,258.09 148.019,258.757 152,257.5C 153.312,259.658 154.978,259.991 157,258.5C 159.458,260.287 162.291,261.287 165.5,261.5C 166.442,261.392 167.275,261.059 168,260.5C 169.459,262.81 171.292,263.143 173.5,261.5 Z M 278.5,343.5 C 280.847,342.393 281.18,340.726 279.5,338.5C 283.211,336.775 283.211,334.775 279.5,332.5C 283.652,332.369 284.318,330.869 281.5,328C 282.448,327.517 283.448,327.351 284.5,327.5C 284.608,325.486 283.942,323.82 282.5,322.5C 284.419,320.579 285.419,318.079 285.5,315C 285.415,313.893 285.081,312.893 284.5,312C 292.226,309.638 299.226,305.971 305.5,301C 307.5,300.333 309.5,300.333 311.5,301C 316.914,305.208 322.914,308.042 329.5,309.5C 326.585,302.503 323.252,295.67 319.5,289C 323.354,282.799 326.854,276.299 330,269.5C 330.494,267.866 330.66,266.199 330.5,264.5C 332.682,267.015 334.682,267.015 336.5,264.5C 339.89,264.272 343.224,264.272 346.5,264.5C 346.5,263.5 346.5,262.5 346.5,261.5C 348.682,264.015 350.682,264.015 352.5,261.5C 355.29,261.921 357.957,261.921 360.5,261.5C 361.647,261.182 362.481,260.516 363,259.5C 367.024,260.762 370.69,260.095 374,257.5C 376.022,258.991 377.688,258.658 379,256.5C 381.235,257.98 383.068,257.647 384.5,255.5C 386.611,256.968 388.444,256.635 390,254.5C 390.725,255.059 391.558,255.392 392.5,255.5C 398.509,254.498 404.509,253.498 410.5,252.5C 404.352,314.47 372.685,357.636 315.5,382C 301.615,387.245 287.282,390.411 272.5,391.5C 272.167,391 271.833,390.5 271.5,390C 273.22,383.656 273.887,377.322 273.5,371C 275.14,368.396 276.473,365.563 277.5,362.5C 277.023,361.522 276.357,360.689 275.5,360C 277.18,359.653 278.18,358.653 278.5,357C 277.933,352.249 277.933,347.749 278.5,343.5 Z M 206.5,297.5 C 213.723,284.059 221.223,270.726 229,257.5C 231.088,261.677 233.088,265.677 235,269.5C 225.632,279.036 216.132,288.369 206.5,297.5 Z M 105.5,259.5 C 107.833,259.5 110.167,259.5 112.5,259.5C 114.167,268.834 115.834,278.168 117.5,287.5C 114.5,288.167 111.5,288.833 108.5,289.5C 106.067,281 104.4,272.333 103.5,263.5C 103.803,261.886 104.47,260.552 105.5,259.5 Z M 412.5,259.5 C 416.22,259.564 419.886,260.064 423.5,261C 421.546,269.77 419.712,278.603 418,287.5C 417.481,288.516 416.647,289.182 415.5,289.5C 412.68,288.618 410.014,287.452 407.5,286C 411.154,277.565 412.82,268.731 412.5,259.5 Z M 201.5,264.5 C 200.854,269.006 202.521,269.673 206.5,266.5C 206.5,267.5 206.5,268.5 206.5,269.5C 208.514,269.608 210.18,268.942 211.5,267.5C 211.5,268.5 211.5,269.5 211.5,270.5C 214.358,270.972 216.358,269.972 217.5,267.5C 216.025,274.117 213.192,280.117 209,285.5C 205.086,281.43 202.086,276.763 200,271.5C 199.333,269.5 199.333,267.5 200,265.5C 200.383,264.944 200.883,264.611 201.5,264.5 Z M 319.5,266.5 C 320.594,267.582 321.927,268.248 323.5,268.5C 324.713,268.253 325.38,267.586 325.5,266.5C 326.559,268.726 326.392,271.059 325,273.5C 322.333,277.5 319.667,281.5 317,285.5C 313.015,280.366 310.182,274.699 308.5,268.5C 309.815,269.476 311.148,270.476 312.5,271.5C 313.919,270.995 314.585,269.995 314.5,268.5C 316.042,269.301 317.708,269.634 319.5,269.5C 319.5,268.5 319.5,267.5 319.5,266.5 Z M 314.5,298.5 C 301.728,291.946 289.061,285.113 276.5,278C 279.833,276 283.167,274 286.5,272C 287.5,271.333 288.5,271.333 289.5,272C 297.667,280.167 305.833,288.333 314,296.5C 314.464,297.094 314.631,297.761 314.5,298.5 Z M 253.5,304.5 C 249.835,305.748 246.335,307.415 243,309.5C 242.5,309 242,308.5 241.5,308C 245.03,305.404 248.697,303.071 252.5,301C 253.252,300.329 253.586,299.496 253.5,298.5C 249.267,300.521 244.934,302.021 240.5,303C 244.492,299.669 248.825,296.836 253.5,294.5C 254.833,293.5 254.833,292.5 253.5,291.5C 249.111,294.532 244.444,296.698 239.5,298C 243.311,294.26 247.644,291.26 252.5,289C 253.772,287.754 254.105,286.587 253.5,285.5C 248.858,288.443 244.024,291.109 239,293.5C 238.833,293.167 238.667,292.833 238.5,292.5C 243.322,288.589 248.322,284.922 253.5,281.5C 253.043,280.702 252.376,280.369 251.5,280.5C 251.811,279.522 252.478,278.855 253.5,278.5C 256.096,279.482 258.762,280.149 261.5,280.5C 261.667,322.835 261.5,365.168 261,407.5C 259.102,398.177 257.269,388.844 255.5,379.5C 255.833,378.167 256.167,376.833 256.5,375.5C 258.002,374.917 259.335,374.084 260.5,373C 258.653,371.297 256.819,371.464 255,373.5C 254.833,373 254.667,372.5 254.5,372C 255.902,370.12 257.569,368.453 259.5,367C 259.167,366.5 258.833,366 258.5,365.5C 257.086,366.624 255.586,367.624 254,368.5C 253.833,368 253.667,367.5 253.5,367C 255.239,364.622 257.239,362.455 259.5,360.5C 257.201,360.383 255.035,361.383 253,363.5C 252.308,362.975 251.808,362.308 251.5,361.5C 253.997,359.174 256.664,357.007 259.5,355C 256.82,354.665 254.487,355.499 252.5,357.5C 251.5,357.167 250.833,356.5 250.5,355.5C 253.473,353.853 256.14,351.853 258.5,349.5C 258.167,349.167 257.833,348.833 257.5,348.5C 255.201,349.635 253.034,350.968 251,352.5C 250.308,351.975 249.808,351.308 249.5,350.5C 251.797,349.102 253.963,347.436 256,345.5C 256.688,344.668 256.521,344.002 255.5,343.5C 253.578,344.711 251.745,346.044 250,347.5C 249.333,346.167 249.333,344.833 250,343.5C 252.881,342.788 255.048,341.122 256.5,338.5C 256.167,338.167 255.833,337.833 255.5,337.5C 253.5,338.833 251.5,340.167 249.5,341.5C 249.167,341 248.833,340.5 248.5,340C 251.152,337.586 253.819,335.086 256.5,332.5C 253.527,332.725 250.693,334.058 248,336.5C 247.833,336 247.667,335.5 247.5,335C 250.244,332.115 253.244,329.448 256.5,327C 256.333,326.5 256.167,326 256,325.5C 252.831,328.06 249.331,329.56 245.5,330C 249.08,326.735 252.747,323.735 256.5,321C 256.333,320.5 256.167,320 256,319.5C 252.629,321.7 249.129,323.7 245.5,325.5C 245.167,325.167 244.833,324.833 244.5,324.5C 247.983,321.261 251.65,318.261 255.5,315.5C 253.39,315.294 251.39,316.127 249.5,318C 247.553,318.991 245.553,319.325 243.5,319C 246.755,315.914 250.422,313.414 254.5,311.5C 255.833,310.5 255.833,309.5 254.5,308.5C 251.366,311.132 247.866,313.132 244,314.5C 243.833,314.167 243.667,313.833 243.5,313.5C 246.079,310.755 249.079,308.589 252.5,307C 253.252,306.329 253.586,305.496 253.5,304.5 Z M 233.5,289.5 C 235.045,290.23 235.878,291.563 236,293.5C 236.78,297.682 237.614,301.849 238.5,306C 238.167,306.5 237.833,307 237.5,307.5C 233.802,305.651 230.136,303.818 226.5,302C 224.415,300.959 222.748,299.459 221.5,297.5C 225.813,295.166 229.813,292.5 233.5,289.5 Z M 285.5,306.5 C 288.389,306.001 289.056,304.501 287.5,302C 290.223,299.341 289.89,297.175 286.5,295.5C 290.74,295.107 291.407,293.441 288.5,290.5C 290.45,289.502 292.45,289.668 294.5,291C 297.663,293.416 300.996,295.582 304.5,297.5C 303.687,298.814 302.687,299.981 301.5,301C 297.52,302.966 293.52,304.966 289.5,307C 287.934,307.765 286.601,307.598 285.5,306.5 Z M 128.5,315.5 C 130.074,315.937 131.241,316.937 132,318.5C 135.757,325.685 140.257,332.352 145.5,338.5C 143.766,341.2 141.432,343.2 138.5,344.5C 132.089,337.079 126.422,329.079 121.5,320.5C 124.077,319.057 126.41,317.39 128.5,315.5 Z M 395.5,315.5 C 398.447,316.973 401.447,318.473 404.5,320C 399.775,328.879 394.109,337.046 387.5,344.5C 384.804,343.149 382.47,341.316 380.5,339C 386.145,331.534 391.145,323.7 395.5,315.5 Z M 135.5,367.5 C 137.72,362.728 140.22,358.062 143,353.5C 145.207,354.997 145.874,356.997 145,359.5C 141.618,362.061 138.451,364.727 135.5,367.5 Z M 390.5,368.5 C 386.702,365.204 383.036,361.704 379.5,358C 380.667,356.833 381.833,355.667 383,354.5C 386.288,358.744 388.788,363.41 390.5,368.5 Z M 167.5,360.5 C 174.795,366.951 182.795,372.451 191.5,377C 189.789,379.589 187.955,382.089 186,384.5C 177.263,379.879 169.096,374.379 161.5,368C 164.063,365.938 166.063,363.438 167.5,360.5 Z M 357.5,360.5 C 359.701,363.021 362.034,365.521 364.5,368C 359.167,372 353.833,376 348.5,380C 345.486,382.401 342.152,383.735 338.5,384C 337.183,381.562 336.349,379.062 336,376.5C 341.919,372.791 347.752,368.958 353.5,365C 355.041,363.629 356.375,362.129 357.5,360.5 Z M 152.5,366.5 C 153.552,366.351 154.552,366.517 155.5,367C 184.475,391.887 218.142,405.22 256.5,407C 258.68,410.551 259.513,414.385 259,418.5C 256.453,419.473 254.953,421.307 254.5,424C 210.034,422.34 171.534,406.507 139,376.5C 138.312,375.668 138.479,375.002 139.5,374.5C 144.361,372.562 148.695,369.896 152.5,366.5 Z M 370.5,366.5 C 374.578,368.057 378.578,369.89 382.5,372C 384.349,373.093 386.016,374.426 387.5,376C 355.795,405.09 318.295,421.257 275,424.5C 271.829,423.349 269.162,421.349 267,418.5C 266.793,414.779 267.293,411.112 268.5,407.5C 299.003,406.373 327.003,397.54 352.5,381C 359.119,376.867 365.119,372.034 370.5,366.5 Z M 219.5,388.5 C 228.664,391.125 237.998,392.791 247.5,393.5C 247.167,396.833 246.833,400.167 246.5,403.5C 237.065,402.205 227.732,400.372 218.5,398C 217.978,397.439 217.645,396.772 217.5,396C 218.479,393.567 219.145,391.067 219.5,388.5 Z M 303.5,388.5 C 304.675,388.281 305.675,388.614 306.5,389.5C 310.578,396.422 308.578,399.922 300.5,400C 293.95,400.91 287.45,402.077 281,403.5C 280.228,403.355 279.561,403.022 279,402.5C 278.502,399.518 278.335,396.518 278.5,393.5C 287.223,393.222 295.557,391.555 303.5,388.5 Z"/></g>
<g><path style="opacity:0.957" fill="#1d48cf" d="M 256.5,220.5 C 280.171,220.195 289.338,231.529 284,254.5C 276.39,266.36 265.89,269.86 252.5,265C 237.706,254.417 235.706,241.75 246.5,227C 249.728,224.56 253.061,222.394 256.5,220.5 Z"/></g>
<g><path style="opacity:0.006" fill="#1d48cf" d="M -0.5,227.5 C 0.833333,228.167 0.833333,228.833 -0.5,229.5C -0.5,228.833 -0.5,228.167 -0.5,227.5 Z"/></g>
<g><path style="opacity:0.751" fill="#1d48cf" d="M -0.5,260.5 C -0.5,259.833 -0.5,259.167 -0.5,258.5C 0.482236,257.859 1.48224,257.193 2.5,256.5C 6.04015,260.446 9.54015,260.446 13,256.5C 14.836,249.156 16.6693,241.823 18.5,234.5C 13.5743,233.9 10.741,236.233 10,241.5C 8.40056,243.036 6.56723,243.536 4.5,243C 6.84563,233.495 12.8456,229.495 22.5,231C 26.1914,238.215 30.0247,245.381 34,252.5C 35.4725,248.277 36.4725,243.943 37,239.5C 39.4214,232.542 44.2547,229.542 51.5,230.5C 51.633,234.218 50.133,235.218 47,233.5C 45.1878,233.493 43.6878,234.16 42.5,235.5C 40.0937,243.697 38.2603,252.031 37,260.5C 36.4115,262.863 34.9115,263.863 32.5,263.5C 31.9078,260.309 30.7411,257.309 29,254.5C 26.5841,249.999 23.9175,245.666 21,241.5C 20.2938,246.917 18.7938,252.084 16.5,257C 17.9385,259.366 17.4385,259.866 15,258.5C 10.2743,262.866 5.1076,263.533 -0.5,260.5 Z"/></g>
<g><path style="opacity:0.73" fill="#1d48cf" d="M 487.5,230.5 C 491.394,230.186 494.727,231.353 497.5,234C 496.374,240.534 494.707,240.867 492.5,235C 489.833,234.333 487.167,234.333 484.5,235C 483.409,237.064 483.242,239.231 484,241.5C 486.703,244.538 489.703,247.205 493,249.5C 495.516,255.65 493.682,260.15 487.5,263C 483.167,263.667 478.833,263.667 474.5,263C 472.1,261.156 472.433,259.656 475.5,258.5C 478.013,259.755 480.68,260.422 483.5,260.5C 489.377,260.349 490.877,257.682 488,252.5C 485.008,249.878 482.008,247.211 479,244.5C 478.21,241.366 478.543,238.366 480,235.5C 482.426,233.548 484.926,231.881 487.5,230.5 Z"/></g>
<g><path style="opacity:0.009" fill="#1d48cf" d="M 33.5,236.5 C 33.3398,234.801 33.5065,233.134 34,231.5C 34.7796,233.387 34.6129,235.054 33.5,236.5 Z"/></g>
<g><path style="opacity:0.004" fill="#1d48cf" d="M 33.5,236.5 C 32.8333,237.167 32.8333,237.167 33.5,236.5 Z"/></g>
<g><path style="opacity:0.727" fill="#1d48cf" d="M 270.5,493.5 C 269.5,493.5 268.5,493.5 267.5,493.5C 267.431,488.146 267.098,482.813 266.5,477.5C 264.856,477.286 263.356,477.62 262,478.5C 259.552,482.667 257.385,487 255.5,491.5C 258.306,492.168 260.972,492.834 263.5,493.5C 259.5,493.5 255.5,493.5 251.5,493.5C 251.914,484.418 251.414,475.418 250,466.5C 246.407,459.275 241.74,458.609 236,464.5C 236.568,460.248 239.068,457.414 243.5,456C 249.222,456.03 253.055,458.863 255,464.5C 256.43,469.745 257.43,475.078 258,480.5C 260.41,474.682 263.077,469.015 266,463.5C 267.049,462.483 268.216,462.316 269.5,463C 270.399,469.47 271.399,475.97 272.5,482.5C 275.75,476.748 278.416,470.748 280.5,464.5C 279.5,464.5 278.5,464.5 277.5,464.5C 277.5,463.5 277.5,462.5 277.5,461.5C 280.833,461.5 284.167,461.5 287.5,461.5C 281.365,471.763 275.698,482.43 270.5,493.5 Z M 264.5,471.5 C 265.234,472.878 265.901,474.378 266.5,476C 265.365,476.749 264.365,476.583 263.5,475.5C 264.246,474.264 264.579,472.93 264.5,471.5 Z"/></g>
</svg>
