<?xml version="1.0" encoding="UTF-8"?>
<!DOCTYPE svg PUBLIC "-//W3C//DTD SVG 1.1//EN" "http://www.w3.org/Graphics/SVG/1.1/DTD/svg11.dtd">
<svg xmlns="http://www.w3.org/2000/svg" version="1.1" width="2100px" height="1500px" style="shape-rendering:geometricPrecision; text-rendering:geometricPrecision; image-rendering:optimizeQuality; fill-rule:evenodd; clip-rule:evenodd" xmlns:xlink="http://www.w3.org/1999/xlink">
<g><path style="opacity:0.971" fill="#1d48cf" d="M 586.5,155.5 C 587.552,155.351 588.552,155.517 589.5,156C 595.111,163.056 599.278,170.889 602,179.5C 622.826,251.602 609.826,316.602 563,374.5C 518.749,417.083 474.749,460.083 431,503.5C 421.667,514.167 412.333,524.833 403,535.5C 389.114,552.405 378.114,571.071 370,591.5C 364.778,606.95 364.111,622.617 368,638.5C 372.747,656.742 379.081,674.409 387,691.5C 407.906,733.006 432.073,772.34 459.5,809.5C 459.167,809.833 458.833,810.167 458.5,810.5C 422.663,774.837 388.829,737.503 357,698.5C 338.238,675.377 322.238,650.377 309,623.5C 298.693,600.216 299.36,577.216 311,554.5C 326.988,526.158 347.155,500.991 371.5,479C 416.994,438.164 463.661,398.83 511.5,361C 573.413,306.103 598.413,237.603 586.5,155.5 Z"/></g>
<g><path style="opacity:0.975" fill="#1d48cf" d="M 724.5,398.5 C 725.5,398.5 726.5,398.5 727.5,398.5C 727.439,400.592 726.439,402.092 724.5,403C 680.289,429.218 638.289,458.551 598.5,491C 578.806,507.686 561.64,526.519 547,547.5C 529.039,574.788 529.039,602.122 547,629.5C 562.191,651.71 576.191,674.71 589,698.5C 593.336,708.507 596.669,718.84 599,729.5C 601.817,747.417 598.483,764.084 589,779.5C 582.818,790.018 575.485,799.685 567,808.5C 549.063,826.374 529.23,841.707 507.5,854.5C 506.417,853.635 506.251,852.635 507,851.5C 520.226,835.053 530.893,817.053 539,797.5C 543.319,780.073 540.652,763.74 531,748.5C 516.827,726.819 502.161,705.486 487,684.5C 453.253,626.964 457.586,572.63 500,521.5C 527.876,492.279 559.709,468.445 595.5,450C 637.032,428.891 680.032,411.725 724.5,398.5 Z"/></g>
<g><path style="opacity:0.974" fill="#1d48cf" d="M 1097.5,603.5 C 1118.84,603.333 1140.17,603.5 1161.5,604C 1162,604.5 1162.5,605 1163,605.5C 1163.67,734.167 1163.67,862.833 1163,991.5C 1160.59,1030.92 1146.76,1065.58 1121.5,1095.5C 1105.2,1112.82 1085.54,1124.82 1062.5,1131.5C 1060.27,1130.78 1058.44,1129.45 1057,1127.5C 1048.36,1116.69 1039.52,1106.02 1030.5,1095.5C 1058.14,1083.36 1076.97,1063.02 1087,1034.5C 1090.12,1025.02 1092.45,1015.36 1094,1005.5C 1095.32,872.856 1095.99,740.189 1096,607.5C 1096.41,606.099 1096.91,604.766 1097.5,603.5 Z"/></g>
<g><path style="opacity:0.977" fill="#1d48cf" d="M 1331.5,706.5 C 1359.03,704.31 1385.03,709.477 1409.5,722C 1433.78,737.362 1447.28,759.529 1450,788.5C 1450.83,865.737 1450.66,942.903 1449.5,1020C 1433.83,1020.67 1418.17,1020.67 1402.5,1020C 1401,1018.51 1400.16,1016.68 1400,1014.5C 1398.8,1006.81 1397.46,999.145 1396,991.5C 1395.59,991.043 1395.09,990.709 1394.5,990.5C 1372.09,1010.2 1346.09,1022.7 1316.5,1028C 1232.32,1031.12 1197.82,991.284 1213,908.5C 1221.47,887.362 1235.64,871.196 1255.5,860C 1275.07,848.858 1296.07,842.191 1318.5,840C 1341.36,837.812 1364.2,835.978 1387,834.5C 1388.79,816.812 1387.13,799.478 1382,782.5C 1377.17,771 1369,762.833 1357.5,758C 1339.72,753.398 1321.72,752.398 1303.5,755C 1280.54,757.931 1258.21,763.431 1236.5,771.5C 1234.57,771.41 1233.41,770.41 1233,768.5C 1229.96,757.72 1227.13,746.887 1224.5,736C 1224.44,734.289 1225.11,732.956 1226.5,732C 1260.2,717.658 1295.2,709.158 1331.5,706.5 Z M 1366.5,876.5 C 1373.42,876.188 1380.26,876.521 1387,877.5C 1387.67,901.167 1387.67,924.833 1387,948.5C 1371.97,962.602 1354.47,972.436 1334.5,978C 1312.43,983.753 1294.26,977.92 1280,960.5C 1269.52,940.125 1270.19,920.125 1282,900.5C 1290.03,891.73 1299.86,885.897 1311.5,883C 1318.4,881.128 1325.4,879.795 1332.5,879C 1344,878.295 1355.33,877.462 1366.5,876.5 Z"/></g>
<g><path style="opacity:0.978" fill="#1d48cf" d="M 1906.5,706.5 C 1935.9,704.077 1963.23,710.243 1988.5,725C 2008.66,740.127 2020.49,760.294 2024,785.5C 2024.83,863.737 2024.66,941.903 2023.5,1020C 2007.83,1020.67 1992.17,1020.67 1976.5,1020C 1976,1019.5 1975.5,1019 1975,1018.5C 1973.23,1009.52 1971.56,1000.52 1970,991.5C 1969.59,991.043 1969.09,990.709 1968.5,990.5C 1938.34,1018.39 1902.67,1030.89 1861.5,1028C 1845.18,1026.01 1829.85,1021.01 1815.5,1013C 1800.35,1002.24 1790.52,987.737 1786,969.5C 1773.58,913.847 1793.41,874.68 1845.5,852C 1860.55,845.653 1876.22,841.653 1892.5,840C 1915.11,837.591 1937.78,835.925 1960.5,835C 1962.01,820.819 1961.51,806.652 1959,792.5C 1956.59,780.505 1950.76,770.671 1941.5,763C 1927.73,755.87 1913.06,752.703 1897.5,753.5C 1880.96,754.109 1864.63,756.276 1848.5,760C 1834.84,763.944 1821.17,767.778 1807.5,771.5C 1804.98,760.766 1802.15,750.099 1799,739.5C 1798.24,737.231 1798.41,735.064 1799.5,733C 1833.62,717.481 1869.28,708.648 1906.5,706.5 Z M 1940.5,876.5 C 1947.42,876.188 1954.26,876.521 1961,877.5C 1961.98,901.588 1961.65,925.588 1960,949.5C 1945.16,963.008 1927.99,972.508 1908.5,978C 1886.39,983.738 1868.22,977.905 1854,960.5C 1843.62,940.143 1844.28,920.143 1856,900.5C 1864.03,891.73 1873.86,885.897 1885.5,883C 1892.74,881.152 1900.07,879.818 1907.5,879C 1918.67,878.319 1929.67,877.486 1940.5,876.5 Z"/></g>
<g><path style="opacity:0.723" fill="#1d48cf" d="M 2033.5,712.5 C 2039.23,712.212 2044.9,712.546 2050.5,713.5C 2051.83,714.833 2051.83,716.167 2050.5,717.5C 2048.76,718.057 2047.1,718.39 2045.5,718.5C 2044.67,724.472 2044.17,730.472 2044,736.5C 2042.08,739.033 2040.08,739.033 2038,736.5C 2037.5,730.509 2037.33,724.509 2037.5,718.5C 2034.96,718.896 2032.79,718.229 2031,716.5C 2030.33,715.833 2030.33,715.167 2031,714.5C 2031.99,713.934 2032.83,713.267 2033.5,712.5 Z"/></g>
<g><path style="opacity:0.817" fill="#1d48cf" d="M 2057.5,712.5 C 2059.58,712.472 2061.42,713.139 2063,714.5C 2064.74,718.984 2066.74,723.317 2069,727.5C 2071.26,723.317 2073.26,718.984 2075,714.5C 2077.37,712.15 2079.87,711.983 2082.5,714C 2083.65,721.754 2083.81,729.587 2083,737.5C 2081.33,738.833 2079.67,738.833 2078,737.5C 2077.67,733.5 2077.33,729.5 2077,725.5C 2071.63,742.753 2066.63,742.753 2062,725.5C 2060.9,729.416 2060.23,733.416 2060,737.5C 2058.61,738.554 2057.11,738.72 2055.5,738C 2054.35,730.246 2054.19,722.413 2055,714.5C 2055.99,713.934 2056.83,713.267 2057.5,712.5 Z"/></g>
<g><path style="opacity:0.978" fill="#1d48cf" d="M 1488.5,713.5 C 1510.5,713.333 1532.5,713.5 1554.5,714C 1555.33,714.833 1556.17,715.667 1557,716.5C 1583.18,795.228 1607.18,874.561 1629,954.5C 1649.45,896.159 1666.45,836.825 1680,776.5C 1684.12,756.331 1687.12,735.998 1689,715.5C 1689.5,715 1690,714.5 1690.5,714C 1712.51,713.167 1734.51,713.334 1756.5,714.5C 1739.49,802.555 1715.32,888.555 1684,972.5C 1677.72,987.335 1671.05,1002 1664,1016.5C 1662.83,1017.67 1661.67,1018.83 1660.5,1020C 1647.42,1021.15 1634.26,1021.65 1621,1021.5C 1608.5,1021.33 1596,1021.17 1583.5,1021C 1551.29,920.371 1519.46,819.538 1488,718.5C 1487.36,716.735 1487.53,715.068 1488.5,713.5 Z"/></g>
<g><path style="opacity:0.958" fill="#1d48cf" d="M 795.5,803.5 C 838.721,800.048 872.888,815.714 898,850.5C 911.176,875.164 911.843,900.498 900,926.5C 886.774,949.732 869.274,969.232 847.5,985C 808.981,1011.24 766.981,1030.08 721.5,1041.5C 720.289,1040.73 720.289,1039.89 721.5,1039C 763.964,1015.88 801.131,986.047 833,949.5C 843.226,936.589 850.893,922.255 856,906.5C 861.448,885.193 858.448,865.193 847,846.5C 834.6,831.879 818.766,823.379 799.5,821C 783.238,818.722 767.071,819.222 751,822.5C 750.5,822.167 750,821.833 749.5,821.5C 754.868,816.146 761.201,812.313 768.5,810C 777.445,807.013 786.445,804.846 795.5,803.5 Z"/></g>
<g><path style="opacity:0.954" fill="#1d48cf" d="M 299.5,815.5 C 304.167,815.5 308.833,815.5 313.5,815.5C 313.5,816.5 313.5,817.5 313.5,818.5C 280.135,825.34 248.135,836.174 217.5,851C 194.458,865.674 196.458,875.674 223.5,881C 261.507,886.702 299.673,889.869 338,890.5C 464.49,890.751 590.324,880.418 715.5,859.5C 715.439,861.592 714.439,863.092 712.5,864C 697.167,873.333 681.833,882.667 666.5,892C 569.202,907.813 471.369,917.646 373,921.5C 320.46,920.822 267.627,917.989 214.5,913C 184.881,910.912 155.881,905.579 127.5,897C 119.88,895.048 114.547,890.548 111.5,883.5C 115.999,874.168 122.999,867.335 132.5,863C 163.516,847.772 195.849,836.105 229.5,828C 252.761,822.625 276.094,818.458 299.5,815.5 Z"/></g>
<g><path style="opacity:0.97" fill="#1d48cf" d="M 267.5,955.5 C 268.675,955.281 269.675,955.614 270.5,956.5C 262.325,962.519 258.159,970.519 258,980.5C 261.29,987.121 266.457,991.621 273.5,994C 293.668,1000.27 314.335,1003.61 335.5,1004C 430.256,1006.91 524.09,1000.41 617,984.5C 620.129,984.329 622.963,985.162 625.5,987C 638.244,998.887 652.911,1007.72 669.5,1013.5C 597.507,1038.64 523.34,1050.97 447,1050.5C 394.94,1050.94 343.107,1047.77 291.5,1041C 272.799,1038.19 254.466,1033.86 236.5,1028C 203.635,1015.54 199.969,997.206 225.5,973C 238.331,964.119 252.331,958.285 267.5,955.5 Z"/></g>
<g><path style="opacity:0.973" fill="#1d48cf" d="M 295.5,1086.5 C 296.097,1086.74 296.43,1087.24 296.5,1088C 293.825,1092.18 291.825,1096.68 290.5,1101.5C 291.762,1107.93 295.429,1112.43 301.5,1115C 314.649,1120.23 328.149,1122.73 342,1122.5C 404.614,1126.84 469.114,1125.34 535.5,1118C 551.31,1115.87 566.977,1113.04 582.5,1109.5C 584.167,1109.67 585.833,1109.83 587.5,1110C 607.802,1122.99 629.135,1134.15 651.5,1143.5C 585.209,1168.76 516.542,1182.09 445.5,1183.5C 399.306,1183.44 353.639,1178.6 308.5,1169C 291.592,1164.88 275.592,1158.54 260.5,1150C 251.25,1144.32 245.917,1136.15 244.5,1125.5C 244.652,1119.88 246.485,1114.88 250,1110.5C 262.876,1098.15 278.043,1090.15 295.5,1086.5 Z"/></g>
<g><path style="opacity:0.96" fill="#1d48cf" d="M 175.5,1175.5 C 183.507,1175.33 191.507,1175.5 199.5,1176C 201.577,1176.19 203.577,1176.69 205.5,1177.5C 184.043,1181.36 162.709,1185.86 141.5,1191C 129.435,1194.69 117.768,1199.35 106.5,1205C 100.25,1208.25 95.7505,1213.08 93,1219.5C 91.8426,1225.35 94.0093,1229.52 99.5,1232C 106.388,1236.11 113.722,1239.11 121.5,1241C 165.962,1251.18 210.962,1257.85 256.5,1261C 282.513,1263.07 308.513,1264.91 334.5,1266.5C 422.036,1266.58 510.702,1263.75 600.5,1258C 656.265,1254.84 711.599,1248.17 766.5,1238C 789.114,1234.24 810.448,1226.91 830.5,1216C 838.174,1211.67 841.341,1205.17 840,1196.5C 838.422,1192.75 837.089,1189.09 836,1185.5C 857.87,1197.65 859.037,1211.49 839.5,1227C 810.603,1245.77 779.269,1259.11 745.5,1267C 688.32,1281.06 630.32,1289.73 571.5,1293C 437.106,1302.29 302.773,1301.62 168.5,1291C 125.608,1288.06 83.6084,1280.4 42.5,1268C 9.88428,1255.73 6.88428,1238.4 33.5,1216C 50.2296,1205.31 68.2296,1197.31 87.5,1192C 116.468,1183.79 145.802,1178.29 175.5,1175.5 Z"/></g>
<g><path style="opacity:0.936" fill="#1d48cf" d="M 906.5,1246.5 C 907.376,1246.37 908.043,1246.7 908.5,1247.5C 907.154,1252.04 905.321,1256.37 903,1260.5C 891.937,1275.9 878.104,1288.07 861.5,1297C 823.943,1317.63 783.943,1331.3 741.5,1338C 601.56,1362.84 460.893,1368.17 319.5,1354C 274.671,1348.97 230.671,1339.97 187.5,1327C 185.998,1326.42 184.665,1325.58 183.5,1324.5C 184.167,1324.17 184.833,1323.83 185.5,1323.5C 313.268,1337.48 441.434,1341.81 570,1336.5C 631.019,1333.05 691.519,1325.22 751.5,1313C 792.349,1304.5 831.349,1290.83 868.5,1272C 882.094,1264.72 894.761,1256.22 906.5,1246.5 Z"/></g>
</svg>
