<?xml version="1.0" encoding="UTF-8"?>
<!DOCTYPE svg PUBLIC "-//W3C//DTD SVG 1.1//EN" "http://www.w3.org/Graphics/SVG/1.1/DTD/svg11.dtd">
<svg xmlns="http://www.w3.org/2000/svg" version="1.1" width="670px" height="373px" style="shape-rendering:geometricPrecision; text-rendering:geometricPrecision; image-rendering:optimizeQuality; fill-rule:evenodd; clip-rule:evenodd" xmlns:xlink="http://www.w3.org/1999/xlink">
<g><path style="opacity:0.991" fill="#000000" d="M 212.5,5.5 C 293.834,5.33334 375.167,5.5 456.5,6C 486.82,11.3216 505.987,28.8216 514,58.5C 514.907,63.6621 515.74,68.8287 516.5,74C 515.79,152.015 515.29,230.182 515,308.5C 508.627,341.208 489.127,360.375 456.5,366C 375.167,366.667 293.833,366.667 212.5,366C 186.689,362.327 168.355,348.327 157.5,324C 157.833,323.667 158.167,323.333 158.5,323C 155.3,315.508 153.3,307.674 152.5,299.5C 152.611,226.669 152.611,153.836 152.5,81C 152.12,47.0402 167.12,23.0402 197.5,9C 202.545,7.42533 207.545,6.25867 212.5,5.5 Z M 235.5,65.5 C 250.04,65.0859 260.206,72.4192 266,87.5C 267.792,104.382 260.625,115.548 244.5,121C 230.45,123.793 219.116,119.626 210.5,108.5C 202.815,91.3853 206.815,77.8853 222.5,68C 226.725,67.4129 231.059,66.5795 235.5,65.5 Z M 459.5,301.5 C 459.5,304.833 459.5,308.167 459.5,311.5C 440.833,311.5 422.167,311.5 403.5,311.5C 403.947,275.139 403.447,238.805 402,202.5C 397.565,186.33 387.065,180.164 370.5,184C 360.773,187.392 353.94,193.892 350,203.5C 348.539,239.465 348.039,275.465 348.5,311.5C 329.833,311.5 311.167,311.5 292.5,311.5C 293.117,255.921 293.117,200.421 292.5,145C 311.164,144.5 329.83,144.333 348.5,144.5C 348.334,152.174 348.5,159.841 349,167.5C 368.235,142.098 393.068,134.931 423.5,146C 437.024,152.508 446.857,162.674 453,176.5C 455.644,184.664 457.644,192.998 459,201.5C 459.5,234.832 459.667,268.165 459.5,301.5 Z M 209.5,144.5 C 227.833,144.5 246.167,144.5 264.5,144.5C 265.173,200.164 265.506,255.831 265.5,311.5C 246.833,311.5 228.167,311.5 209.5,311.5C 209.5,255.833 209.5,200.167 209.5,144.5 Z"/></g>
<g><path style="opacity:0.083" fill="#160212" d="M 459.5,301.5 C 460.482,304.962 460.815,308.629 460.5,312.5C 441.326,312.83 422.326,312.497 403.5,311.5C 422.167,311.5 440.833,311.5 459.5,311.5C 459.5,308.167 459.5,304.833 459.5,301.5 Z"/></g>
</svg>
