<?xml version="1.0" encoding="UTF-8"?>
<!DOCTYPE svg PUBLIC "-//W3C//DTD SVG 1.1//EN" "http://www.w3.org/Graphics/SVG/1.1/DTD/svg11.dtd">
<svg xmlns="http://www.w3.org/2000/svg" version="1.1" width="2100px" height="1500px" style="shape-rendering:geometricPrecision; text-rendering:geometricPrecision; image-rendering:optimizeQuality; fill-rule:evenodd; clip-rule:evenodd" xmlns:xlink="http://www.w3.org/1999/xlink">
<g><path style="opacity:0.98" fill="#0d4439" d="M 295.5,595.5 C 295.611,596.117 295.944,596.617 296.5,597C 303.272,597.37 309.939,598.37 316.5,600C 317.571,600.852 318.571,601.685 319.5,602.5C 297.108,597.75 274.441,596.25 251.5,598C 245.642,599.686 239.809,601.186 234,602.5C 230.938,602.259 228.105,601.592 225.5,600.5C 229.514,600.666 233.514,600.499 237.5,600C 238.416,599.722 239.082,599.222 239.5,598.5C 240.091,597.849 240.757,597.182 241.5,596.5C 259.488,595.5 277.488,595.167 295.5,595.5 Z"/></g>
<g><path style="opacity:0.099" fill="#126076" d="M 295.5,595.5 C 299.846,595.334 304.179,595.501 308.5,596C 309.167,596.667 309.833,597.333 310.5,598C 315.069,598.266 319.403,599.266 323.5,601C 325.758,601.876 327.758,603.043 329.5,604.5C 326.237,603.518 322.903,602.851 319.5,602.5C 318.571,601.685 317.571,600.852 316.5,600C 309.939,598.37 303.272,597.37 296.5,597C 295.944,596.617 295.611,596.117 295.5,595.5 Z"/></g>
<g><path style="opacity:1" fill="#080c08" d="M 319.5,602.5 C 333.605,607.892 346.605,615.392 358.5,625C 367.22,633.447 371.554,643.78 371.5,656C 370.99,664.894 369.99,673.727 368.5,682.5C 364.74,696.02 360.406,709.354 355.5,722.5C 354.633,726.329 352.967,729.663 350.5,732.5C 346.405,739.266 342.738,746.266 339.5,753.5C 337.674,755.147 336.34,757.147 335.5,759.5C 331.925,762.65 329.925,766.65 329.5,771.5C 340.133,770.151 350.8,769.651 361.5,770C 364.06,770.384 366.394,771.217 368.5,772.5C 369.5,774.167 370.833,775.5 372.5,776.5C 372.67,778.848 373.003,781.182 373.5,783.5C 372.637,786.233 371.471,788.899 370,791.5C 365.888,795.784 361.388,799.451 356.5,802.5C 353.975,803.957 351.308,805.291 348.5,806.5C 333.305,811.623 317.639,814.123 301.5,814C 299.854,829.528 297.52,845.028 294.5,860.5C 292.122,864.624 290.122,868.958 288.5,873.5C 283.787,880.546 277.787,886.213 270.5,890.5C 263.638,893.464 256.638,895.797 249.5,897.5C 234.376,901.173 220.042,899.339 206.5,892C 203.601,889.271 200.934,886.438 198.5,883.5C 189.556,864.564 185.723,844.564 187,823.5C 183.562,822.017 180.395,822.351 177.5,824.5C 162.083,826.773 147.083,825.273 132.5,820C 130.651,818.907 128.984,817.574 127.5,816C 125.613,815.22 123.946,815.387 122.5,816.5C 119.455,817.279 116.789,818.613 114.5,820.5C 102.556,822.844 91.5556,820.677 81.5,814C 77.9643,810.296 74.2976,806.796 70.5,803.5C 67.4673,799.144 64.4673,794.81 61.5,790.5C 52.9716,773.227 45.6383,755.56 39.5,737.5C 36.5426,725.639 33.2093,713.973 29.5,702.5C 29.473,696.722 28.6397,691.056 27,685.5C 23.6731,661.124 29.5065,639.457 44.5,620.5C 50.7136,614.965 57.7136,610.631 65.5,607.5C 74.1563,604.998 82.823,602.831 91.5,601C 115.087,600.52 138.421,603.02 161.5,608.5C 182.034,601.056 203.367,598.39 225.5,600.5C 228.105,601.592 230.938,602.259 234,602.5C 239.809,601.186 245.642,599.686 251.5,598C 274.441,596.25 297.108,597.75 319.5,602.5 Z"/></g>
<g><path style="opacity:0.255" fill="#136177" d="M 83.5,600.5 C 74.3885,603.041 65.3885,606.208 56.5,610C 51.6687,612.672 47.6687,616.172 44.5,620.5C 43.391,620.557 42.391,620.89 41.5,621.5C 52.5655,608.801 66.5655,601.801 83.5,600.5 Z"/></g>
<g><path style="opacity:0.263" fill="#136175" d="M 153.5,604.5 C 130.35,599.798 107.016,598.464 83.5,600.5C 83.9175,599.778 84.5842,599.278 85.5,599C 108.114,597.351 130.448,598.684 152.5,603C 153.056,603.383 153.389,603.883 153.5,604.5 Z"/></g>
<g><path style="opacity:0.267" fill="#126075" d="M 239.5,598.5 C 239.082,599.222 238.416,599.722 237.5,600C 233.514,600.499 229.514,600.666 225.5,600.5C 203.627,596.689 182.46,599.022 162,607.5C 159.082,606.363 156.248,605.363 153.5,604.5C 156.807,604.063 159.807,604.73 162.5,606.5C 166.199,603.957 170.199,602.123 174.5,601C 184.939,599.227 195.439,597.394 206,595.5C 217.043,597.846 228.21,598.846 239.5,598.5 Z"/></g>
<g><path style="opacity:0.992" fill="#0b4436" d="M 225.5,600.5 C 203.367,598.39 182.034,601.056 161.5,608.5C 138.421,603.02 115.087,600.52 91.5,601C 82.823,602.831 74.1563,604.998 65.5,607.5C 57.7136,610.631 50.7136,614.965 44.5,620.5C 47.6687,616.172 51.6687,612.672 56.5,610C 65.3885,606.208 74.3885,603.041 83.5,600.5C 107.016,598.464 130.35,599.798 153.5,604.5C 156.248,605.363 159.082,606.363 162,607.5C 182.46,599.022 203.627,596.689 225.5,600.5 Z"/></g>
<g><path style="opacity:1" fill="#757a79" d="M 319.5,610.5 C 293.134,603.693 266.467,602.693 239.5,607.5C 243.551,605.832 247.885,604.666 252.5,604C 271.26,602.85 289.927,603.517 308.5,606C 312.468,607.038 316.135,608.538 319.5,610.5 Z"/></g>
<g><path style="opacity:1" fill="#ecf0f5" d="M 319.5,610.5 C 323.974,610.827 327.64,612.66 330.5,616C 340.935,620.719 350.102,627.552 358,636.5C 359.413,638.652 360.246,640.986 360.5,643.5C 361.538,651.806 361.705,660.139 361,668.5C 358.406,677.08 356.572,685.747 355.5,694.5C 352.611,699.991 350.611,705.991 349.5,712.5C 348.792,715.549 347.459,718.215 345.5,720.5C 341.132,727.909 337.132,735.575 333.5,743.5C 333.002,746.326 331.669,748.66 329.5,750.5C 324.251,758.264 318.751,765.931 313,773.5C 312.289,775.367 312.789,776.867 314.5,778C 318.216,779.093 322.05,779.593 326,779.5C 337.199,778.62 348.365,777.62 359.5,776.5C 361.027,776.427 362.027,777.094 362.5,778.5C 362.789,781.649 362.289,784.649 361,787.5C 358.004,789.733 355.171,792.066 352.5,794.5C 350.833,795.833 349.167,797.167 347.5,798.5C 343.584,798.025 340.251,799.025 337.5,801.5C 324.411,804.887 311.078,806.221 297.5,805.5C 296.833,805.5 296.167,805.5 295.5,805.5C 294.069,805.881 293.236,806.881 293,808.5C 292.627,814.189 292.127,819.855 291.5,825.5C 290.85,827.435 290.517,829.435 290.5,831.5C 289.778,831.918 289.278,832.584 289,833.5C 288.501,837.486 288.334,841.486 288.5,845.5C 288.324,848.727 287.657,851.727 286.5,854.5C 285.075,857.903 284.242,861.57 284,865.5C 280.969,869.266 278.302,873.266 276,877.5C 271.16,881.493 265.994,884.826 260.5,887.5C 259.167,887.833 257.833,888.167 256.5,888.5C 251.702,889.351 247.036,890.518 242.5,892C 235.805,892.665 229.138,892.498 222.5,891.5C 220.083,889.063 217.083,887.73 213.5,887.5C 207.08,883.744 202.413,878.411 199.5,871.5C 197.923,866.785 196.59,862.118 195.5,857.5C 194.834,849.517 194.501,841.517 194.5,833.5C 194.5,825.167 194.5,816.833 194.5,808.5C 193.127,808.343 191.793,808.51 190.5,809C 188.569,809.902 186.903,811.069 185.5,812.5C 172.845,816.491 159.845,817.491 146.5,815.5C 141.963,814.279 137.63,812.613 133.5,810.5C 132.5,810.167 131.833,809.5 131.5,808.5C 131.192,806.076 131.526,803.743 132.5,801.5C 134.521,800.145 136.188,798.479 137.5,796.5C 138.5,796.5 139.5,796.5 140.5,796.5C 147.4,794.941 154.4,793.774 161.5,793C 163.706,790.963 165.706,788.797 167.5,786.5C 167.833,785.833 168.167,785.167 168.5,784.5C 169.5,784.5 170.5,784.5 171.5,784.5C 171.67,783.178 171.337,782.011 170.5,781C 164.734,780.691 159.067,779.858 153.5,778.5C 152.399,777.402 151.066,777.235 149.5,778C 142.915,784.416 136.582,790.916 130.5,797.5C 126.095,800.396 122.095,803.896 118.5,808C 115.552,809.237 112.885,810.737 110.5,812.5C 102.649,813.426 95.3152,812.093 88.5,808.5C 87.8333,808.167 87.1667,807.833 86.5,807.5C 83.8333,804.167 80.8333,801.167 77.5,798.5C 71.3428,788.19 65.1761,777.856 59,767.5C 54.4675,752.691 49.6341,738.024 44.5,723.5C 44.0881,715.29 42.0881,707.623 38.5,700.5C 38.7678,698.901 38.4345,697.568 37.5,696.5C 37.7204,691.9 37.0538,687.567 35.5,683.5C 35.41,673.482 35.7433,663.482 36.5,653.5C 38.7009,649.886 40.0342,645.886 40.5,641.5C 40.7936,638.246 42.127,635.579 44.5,633.5C 50.7482,627.041 57.4148,621.041 64.5,615.5C 64.8333,615.5 65.1667,615.5 65.5,615.5C 79.7199,610.197 94.5533,607.864 110,608.5C 126.052,608.913 141.886,610.913 157.5,614.5C 157.833,614.5 158.167,614.5 158.5,614.5C 159.492,616.026 160.992,616.693 163,616.5C 165.829,616.132 168.329,615.132 170.5,613.5C 172.282,611.643 174.615,610.643 177.5,610.5C 191.002,607.814 204.669,606.814 218.5,607.5C 225.401,608.81 232.401,608.81 239.5,607.5C 266.467,602.693 293.134,603.693 319.5,610.5 Z"/></g>
<g><path style="opacity:1" fill="#5f6664" d="M 218.5,607.5 C 204.669,606.814 191.002,607.814 177.5,610.5C 182.141,608.224 187.141,606.724 192.5,606C 200.5,605.333 208.5,605.333 216.5,606C 217.416,606.278 218.082,606.778 218.5,607.5 Z"/></g>
<g><path style="opacity:1" fill="#797d7d" d="M 157.5,614.5 C 141.886,610.913 126.052,608.913 110,608.5C 94.5533,607.864 79.7199,610.197 65.5,615.5C 66.3479,613.907 67.6813,612.74 69.5,612C 74.3325,611.251 78.9991,609.917 83.5,608C 106.711,606.359 129.711,607.692 152.5,612C 154.315,612.757 155.981,613.59 157.5,614.5 Z"/></g>
<g><path style="opacity:1" fill="#1e49cf" d="M 247.5,618.5 C 253.061,620.868 258.728,623.368 264.5,626C 268.814,629.824 273.481,633.157 278.5,636C 284.261,643.765 290.761,650.931 298,657.5C 298.791,658.745 299.291,660.078 299.5,661.5C 299.41,664.152 300.076,666.485 301.5,668.5C 304.086,671.006 304.086,673.506 301.5,676C 290.63,676.602 280.297,679.269 270.5,684C 268.876,689.754 266.543,695.254 263.5,700.5C 262.883,700.611 262.383,700.944 262,701.5C 261.712,707.992 262.712,714.326 265,720.5C 266.363,722.684 267.863,724.684 269.5,726.5C 271.916,731.667 274.582,736.667 277.5,741.5C 281.23,750.403 286.73,758.069 294,764.5C 294.333,766.5 294.667,768.5 295,770.5C 298.239,772.31 299.072,774.81 297.5,778C 294.638,778.93 292.305,780.597 290.5,783C 289.552,783.483 288.552,783.649 287.5,783.5C 285.871,792.031 285.037,800.698 285,809.5C 284.529,811.246 283.862,812.913 283,814.5C 282.876,824.171 282.876,833.838 283,843.5C 280.179,851.118 277.513,858.784 275,866.5C 264.493,877.921 251.493,884.587 236,886.5C 230.345,885.709 224.845,884.542 219.5,883C 216.369,878.867 212.869,875.034 209,871.5C 206.739,867.05 205.072,862.383 204,857.5C 200.734,832.636 199.067,807.636 199,782.5C 198.692,781.692 198.192,781.025 197.5,780.5C 193.744,778.596 189.744,777.429 185.5,777C 180.857,774.928 179.357,771.428 181,766.5C 187.802,756.564 193.302,745.897 197.5,734.5C 199.046,729.767 199.713,724.767 199.5,719.5C 199.333,715.833 199.167,712.167 199,708.5C 198.61,705.896 197.776,703.562 196.5,701.5C 195.769,695.808 193.936,690.475 191,685.5C 188.522,683.18 185.689,681.514 182.5,680.5C 174.01,679.343 165.343,679.176 156.5,680C 155.584,680.278 154.918,680.778 154.5,681.5C 148.794,684.217 142.794,685.051 136.5,684C 134.848,682.53 133.848,680.697 133.5,678.5C 138.748,662.333 145.915,647 155,632.5C 174.243,614.435 197.076,607.269 223.5,611C 231.809,612.604 239.809,615.104 247.5,618.5 Z"/></g>
<g><path style="opacity:1" fill="#204acf" d="M 304.5,756.5 C 307.588,753.737 309.922,750.403 311.5,746.5C 309.251,730.2 308.917,713.867 310.5,697.5C 311.656,689.677 311.823,681.677 311,673.5C 310.768,672.263 310.268,671.263 309.5,670.5C 305.866,662.568 301.7,654.901 297,647.5C 283.112,635.773 268.279,625.44 252.5,616.5C 251.571,615.311 251.238,613.978 251.5,612.5C 251.611,611.883 251.944,611.383 252.5,611C 266.833,610.333 281.167,610.333 295.5,611C 312.28,615.558 327.947,622.558 342.5,632C 354.308,642.777 357.308,655.777 351.5,671C 354.746,679.301 353.912,687.134 349,694.5C 348,695.167 347,695.833 346,696.5C 343.931,701.869 341.931,707.202 340,712.5C 335.332,717.162 332.999,722.828 333,729.5C 326.869,736.398 322.202,744.398 319,753.5C 316.497,756.502 314.497,759.835 313,763.5C 310.692,764.641 308.859,766.308 307.5,768.5C 306.311,769.429 304.978,769.762 303.5,769.5C 303.372,765.119 303.705,760.785 304.5,756.5 Z"/></g>
<g><path style="opacity:1" fill="#1e49ce" d="M 128.5,680.5 C 127.732,681.263 127.232,682.263 127,683.5C 126.5,689 126,694.5 125.5,700C 126.086,716.995 126.753,733.828 127.5,750.5C 130.11,757.683 134.277,764.016 140,769.5C 140.667,771.167 140.667,772.833 140,774.5C 135.333,780.5 130,785.833 124,790.5C 123.166,795.668 120.666,799.835 116.5,803C 111.902,804.483 107.236,805.649 102.5,806.5C 99.5666,806.534 96.9,805.701 94.5,804C 88.1866,796.6 82.0199,789.1 76,781.5C 75.2057,778.529 74.539,775.529 74,772.5C 70.1843,764.846 66.6843,757.18 63.5,749.5C 61.8063,741.085 59.1396,733.085 55.5,725.5C 51.6016,716.908 49.1016,707.908 48,698.5C 46.4804,695.618 45.1471,692.618 44,689.5C 42.5933,674.207 43.9266,659.207 48,644.5C 56.9529,628.204 70.4529,618.037 88.5,614C 107.619,612.937 126.619,613.937 145.5,617C 148.943,618.618 151.943,620.785 154.5,623.5C 153.333,628.512 150.333,631.845 145.5,633.5C 143.056,638.046 139.889,642.046 136,645.5C 135.066,653.962 132.733,661.962 129,669.5C 128.501,673.152 128.335,676.818 128.5,680.5 Z"/></g>
<g><path style="opacity:1" fill="#7e8281" d="M 170.5,613.5 C 168.329,615.132 165.829,616.132 163,616.5C 160.992,616.693 159.492,616.026 158.5,614.5C 159.967,614.894 161.467,615.227 163,615.5C 165.27,614.14 167.77,613.473 170.5,613.5 Z"/></g>
<g><path style="opacity:0.89" fill="#104e4b" d="M 319.5,602.5 C 322.903,602.851 326.237,603.518 329.5,604.5C 344.372,609.628 357.038,618.295 367.5,630.5C 368.95,631.85 369.617,633.516 369.5,635.5C 372.964,648.979 373.464,662.646 371,676.5C 370.963,678.974 370.13,680.974 368.5,682.5C 369.99,673.727 370.99,664.894 371.5,656C 371.554,643.78 367.22,633.447 358.5,625C 346.605,615.392 333.605,607.892 319.5,602.5 Z"/></g>
<g><path style="opacity:1" fill="#777a79" d="M 64.5,615.5 C 57.4148,621.041 50.7482,627.041 44.5,633.5C 46.5912,630.229 48.9245,627.063 51.5,624C 55.5486,620.648 59.8819,617.815 64.5,615.5 Z"/></g>
<g><path style="opacity:0.443" fill="#146277" d="M 41.5,621.5 C 32.4876,632.843 26.8209,645.51 24.5,659.5C 25.0348,647.397 28.8681,636.397 36,626.5C 37.3996,624.263 39.233,622.596 41.5,621.5 Z"/></g>
<g><path style="opacity:1" fill="#e4e9f7" d="M 251.5,612.5 C 251.238,613.978 251.571,615.311 252.5,616.5C 268.279,625.44 283.112,635.773 297,647.5C 301.7,654.901 305.866,662.568 309.5,670.5C 310.383,679.467 310.716,688.467 310.5,697.5C 308.917,713.867 309.251,730.2 311.5,746.5C 309.922,750.403 307.588,753.737 304.5,756.5C 304.631,755.761 304.464,755.094 304,754.5C 303.292,755.381 302.458,756.047 301.5,756.5C 303.185,753.61 304.185,750.444 304.5,747C 303.904,731.642 302.904,716.309 301.5,701C 301.667,699.5 301.833,698 302,696.5C 303.515,694.323 305.015,692.156 306.5,690C 304.456,687.943 303.29,685.443 303,682.5C 295.066,679.713 287.233,679.879 279.5,683C 270.672,687.824 267.005,695.324 268.5,705.5C 267.835,703.302 267.168,700.969 266.5,698.5C 265.482,699.193 264.482,699.859 263.5,700.5C 266.543,695.254 268.876,689.754 270.5,684C 280.297,679.269 290.63,676.602 301.5,676C 304.086,673.506 304.086,671.006 301.5,668.5C 301.59,665.848 300.924,663.515 299.5,661.5C 299.291,660.078 298.791,658.745 298,657.5C 290.761,650.931 284.261,643.765 278.5,636C 273.481,633.157 268.814,629.824 264.5,626C 258.728,623.368 253.061,620.868 247.5,618.5C 249.144,618.286 250.644,618.62 252,619.5C 251.745,618.085 251.245,616.585 250.5,615C 250.528,613.93 250.861,613.097 251.5,612.5 Z"/></g>
<g><path style="opacity:0.988" fill="#0b4133" d="M 44.5,620.5 C 29.5065,639.457 23.6731,661.124 27,685.5C 28.6397,691.056 29.473,696.722 29.5,702.5C 27.2069,695.627 25.5402,688.627 24.5,681.5C 24.5,674.167 24.5,666.833 24.5,659.5C 26.8209,645.51 32.4876,632.843 41.5,621.5C 42.391,620.89 43.391,620.557 44.5,620.5 Z"/></g>
<g><path style="opacity:0.833" fill="#1d48cf" d="M 1534.5,651.5 C 1558.37,649.639 1581.7,652.139 1604.5,659C 1631.44,667.766 1644.44,686.266 1643.5,714.5C 1634.49,714.666 1625.49,714.5 1616.5,714C 1615.6,694.541 1605.93,681.541 1587.5,675C 1562.87,669.039 1538.2,669.039 1513.5,675C 1497.28,681.256 1490.12,693.089 1492,710.5C 1493.35,716.272 1496.19,721.106 1500.5,725C 1503.85,727.032 1507.19,729.032 1510.5,731C 1543.44,738.321 1576.44,744.988 1609.5,751C 1645,760.802 1657.5,783.635 1647,819.5C 1639.47,834.031 1627.97,843.865 1612.5,849C 1594.9,854.865 1576.74,857.032 1558,855.5C 1536.77,856.383 1516.27,853.549 1496.5,847C 1469.13,835.487 1456.47,814.987 1458.5,785.5C 1467.5,785.5 1476.5,785.5 1485.5,785.5C 1486.28,812.455 1499.95,828.622 1526.5,834C 1548.17,837.333 1569.83,837.333 1591.5,834C 1598.1,832.092 1604.43,829.426 1610.5,826C 1620.65,814.96 1623.82,802.126 1620,787.5C 1617.25,781.744 1613.08,777.244 1607.5,774C 1600.82,771.967 1594.15,769.967 1587.5,768C 1556.49,763.499 1525.82,757.499 1495.5,750C 1469.87,739.895 1459.7,721.062 1465,693.5C 1469.07,678.428 1478.23,667.595 1492.5,661C 1506.25,656.214 1520.25,653.048 1534.5,651.5 Z"/></g>
<g><path style="opacity:0.836" fill="#1d48cf" d="M 1759.5,651.5 C 1791.37,648.786 1821.37,654.62 1849.5,669C 1885.96,693.448 1901.13,727.615 1895,771.5C 1891.45,795.598 1879.95,814.932 1860.5,829.5C 1870.93,837.461 1881.76,844.794 1893,851.5C 1893.78,852.944 1893.61,854.277 1892.5,855.5C 1887.68,859.481 1883.02,863.648 1878.5,868C 1876.36,868.635 1874.36,868.301 1872.5,867C 1862.17,858.931 1851.34,851.764 1840,845.5C 1833.03,848.497 1825.86,850.997 1818.5,853C 1786.06,858.529 1754.06,857.196 1722.5,849C 1665.46,824.412 1643.96,781.912 1658,721.5C 1671.71,686.138 1697.21,664.304 1734.5,656C 1742.95,654.41 1751.28,652.91 1759.5,651.5 Z M 1763.5,670.5 C 1781.56,669.748 1799.23,671.914 1816.5,677C 1860.13,697.435 1876.63,731.268 1866,778.5C 1856.69,808.81 1836.52,827.31 1805.5,834C 1782.99,837.879 1760.65,837.212 1738.5,832C 1701.55,818.965 1682.55,792.799 1681.5,753.5C 1682.35,713.325 1702.02,687.158 1740.5,675C 1748.27,673.368 1755.94,671.868 1763.5,670.5 Z"/></g>
<g><path style="opacity:1" fill="#878b8b" d="M 40.5,641.5 C 40.0342,645.886 38.7009,649.886 36.5,653.5C 36.6785,650.784 37.1785,648.117 38,645.5C 38.2004,643.68 39.0337,642.347 40.5,641.5 Z"/></g>
<g><path style="opacity:1" fill="#8a8e8d" d="M 360.5,643.5 C 361.117,643.611 361.617,643.944 362,644.5C 362.667,653.5 362.667,662.5 362,671.5C 359.803,679.275 357.636,686.942 355.5,694.5C 356.572,685.747 358.406,677.08 361,668.5C 361.705,660.139 361.538,651.806 360.5,643.5 Z"/></g>
<g><path style="opacity:0.82" fill="#146171" d="M 369.5,635.5 C 371.105,637.48 372.272,639.813 373,642.5C 375.714,665.232 372.547,686.898 363.5,707.5C 365.553,699.234 367.22,690.901 368.5,682.5C 370.13,680.974 370.963,678.974 371,676.5C 373.464,662.646 372.964,648.979 369.5,635.5 Z"/></g>
<g><path style="opacity:0.839" fill="#1d49ce" d="M 450.5,851.5 C 450.672,850.508 450.338,849.842 449.5,849.5C 449.737,848.209 449.404,847.209 448.5,846.5C 448.107,844.716 447.441,843.05 446.5,841.5C 445.892,838.673 444.892,836.007 443.5,833.5C 442.795,830.646 441.795,827.979 440.5,825.5C 440.5,769.5 440.5,713.5 440.5,657.5C 482.471,656.35 524.471,656.183 566.5,657C 604.007,662.17 621.507,683.67 619,721.5C 616.011,740.658 605.844,754.492 588.5,763C 577.299,767.42 565.632,769.753 553.5,770C 524.502,770.5 495.502,770.667 466.5,770.5C 466.5,797.5 466.5,824.5 466.5,851.5C 461.167,851.5 455.833,851.5 450.5,851.5 Z M 466.5,675.5 C 499.521,675.092 532.521,675.592 565.5,677C 583.758,682.497 592.758,694.831 592.5,714C 591.107,739.055 577.773,751.389 552.5,751C 523.835,751.5 495.169,751.667 466.5,751.5C 466.5,726.167 466.5,700.833 466.5,675.5 Z"/></g>
<g><path style="opacity:0.832" fill="#1d49ce" d="M 2062.5,831.5 C 2062.5,832.167 2062.5,832.833 2062.5,833.5C 2062.5,833.833 2062.5,834.167 2062.5,834.5C 2060.93,836.102 2060.26,838.102 2060.5,840.5C 2059.57,841.568 2059.23,842.901 2059.5,844.5C 2058.66,844.842 2058.33,845.508 2058.5,846.5C 2057.46,847.93 2056.8,849.597 2056.5,851.5C 2006.83,851.5 1957.17,851.5 1907.5,851.5C 1907.5,786.5 1907.5,721.5 1907.5,656.5C 1916.5,656.5 1925.5,656.5 1934.5,656.5C 1934.5,714.833 1934.5,773.167 1934.5,831.5C 1977.17,831.5 2019.83,831.5 2062.5,831.5 Z"/></g>
<g><path style="opacity:1" fill="#889ce5" d="M 299.5,661.5 C 300.924,663.515 301.59,665.848 301.5,668.5C 300.076,666.485 299.41,664.152 299.5,661.5 Z"/></g>
<g><path style="opacity:1" fill="#888b8b" d="M 36.5,653.5 C 35.7433,663.482 35.41,673.482 35.5,683.5C 34.3431,675.01 34.1764,666.343 35,657.5C 35.21,655.942 35.71,654.609 36.5,653.5 Z"/></g>
<g><path style="opacity:1" fill="#a9bbeb" d="M 182.5,680.5 C 173.134,680.279 163.801,680.613 154.5,681.5C 154.918,680.778 155.584,680.278 156.5,680C 165.343,679.176 174.01,679.343 182.5,680.5 Z"/></g>
<g><path style="opacity:0.788" fill="#1d48cf" d="M 955.5,680.5 C 963.087,680.186 970.587,680.519 978,681.5C 978.5,694.829 978.667,708.163 978.5,721.5C 989.172,721.333 999.839,721.5 1010.5,722C 1011.19,727.468 1011.86,732.968 1012.5,738.5C 1001.2,738.867 989.867,738.867 978.5,738.5C 978.333,768.835 978.5,799.168 979,829.5C 981.37,832.876 984.537,835.043 988.5,836C 996.318,836.974 1003.99,836.474 1011.5,834.5C 1011.5,840.167 1011.5,845.833 1011.5,851.5C 996.914,854.757 982.581,853.924 968.5,849C 960.106,844.399 955.606,837.232 955,827.5C 954.5,797.835 954.333,768.169 954.5,738.5C 946.167,738.5 937.833,738.5 929.5,738.5C 929.193,732.907 929.527,727.407 930.5,722C 938.493,721.5 946.493,721.334 954.5,721.5C 954.185,707.754 954.519,694.088 955.5,680.5 Z"/></g>
<g><path style="opacity:1" fill="#204bce" d="M 301.5,756.5 C 301.134,757.695 300.301,758.361 299,758.5C 297.518,756.888 295.685,755.888 293.5,755.5C 284.676,739.185 276.343,722.519 268.5,705.5C 267.005,695.324 270.672,687.824 279.5,683C 287.233,679.879 295.066,679.713 303,682.5C 303.29,685.443 304.456,687.943 306.5,690C 305.015,692.156 303.515,694.323 302,696.5C 301.833,698 301.667,699.5 301.5,701C 302.904,716.309 303.904,731.642 304.5,747C 304.185,750.444 303.185,753.61 301.5,756.5 Z"/></g>
<g><path style="opacity:1" fill="#a2b5e8" d="M 309.5,670.5 C 310.268,671.263 310.768,672.263 311,673.5C 311.823,681.677 311.656,689.677 310.5,697.5C 310.716,688.467 310.383,679.467 309.5,670.5 Z"/></g>
<g><path style="opacity:1" fill="#1f4acf" d="M 135.5,706.5 C 136.009,701.445 137.009,696.445 138.5,691.5C 141.993,689.523 145.659,687.69 149.5,686C 158.423,684.126 167.423,683.46 176.5,684C 180.333,686.5 183.5,689.667 186,693.5C 188.763,700.884 190.763,708.55 192,716.5C 192.667,719.833 192.667,723.167 192,726.5C 187.617,743.343 181.117,759.176 172.5,774C 169.5,774.667 166.5,774.667 163.5,774C 158.206,772.208 152.872,770.541 147.5,769C 140.581,763.323 136.081,756.157 134,747.5C 133.677,733.801 134.177,720.134 135.5,706.5 Z"/></g>
<g><path style="opacity:1" fill="#dde4f2" d="M 283.5,686.5 C 294.605,685.654 295.938,688.487 287.5,695C 285.167,695.667 282.833,695.667 280.5,695C 278.702,691.142 279.702,688.309 283.5,686.5 Z"/></g>
<g><path style="opacity:1" fill="#696d6c" d="M 35.5,683.5 C 37.0538,687.567 37.7204,691.9 37.5,696.5C 35.9462,692.433 35.2796,688.1 35.5,683.5 Z"/></g>
<g><path style="opacity:1" fill="#9bb4df" d="M 164.5,691.5 C 169.316,690.35 174.316,690.184 179.5,691C 180.576,692.726 180.743,694.559 180,696.5C 179.329,697.252 178.496,697.586 177.5,697.5C 178.341,695.621 178.675,693.621 178.5,691.5C 173.833,691.5 169.167,691.5 164.5,691.5 Z"/></g>
<g><path style="opacity:1" fill="#f3f7f9" d="M 164.5,691.5 C 169.167,691.5 173.833,691.5 178.5,691.5C 178.675,693.621 178.341,695.621 177.5,697.5C 173.869,698.412 170.203,698.579 166.5,698C 164.984,696.103 164.317,693.936 164.5,691.5 Z"/></g>
<g><path style="opacity:0.467" fill="#136175" d="M 24.5,681.5 C 25.5402,688.627 27.2069,695.627 29.5,702.5C 29.5,705.167 29.5,707.833 29.5,710.5C 25.7681,701.301 24.1015,691.634 24.5,681.5 Z"/></g>
<g><path style="opacity:1" fill="#6ca0ca" d="M 138.5,691.5 C 137.009,696.445 136.009,701.445 135.5,706.5C 135.334,702.154 135.501,697.821 136,693.5C 136.708,692.619 137.542,691.953 138.5,691.5 Z"/></g>
<g><path style="opacity:1" fill="#727676" d="M 355.5,694.5 C 354.593,700.954 352.593,706.954 349.5,712.5C 350.611,705.991 352.611,699.991 355.5,694.5 Z"/></g>
<g><path style="opacity:1" fill="#979a9b" d="M 38.5,700.5 C 42.0881,707.623 44.0881,715.29 44.5,723.5C 41.7614,716.116 39.7614,708.449 38.5,700.5 Z"/></g>
<g><path style="opacity:0.239" fill="#0f4a45" d="M 368.5,682.5 C 367.22,690.901 365.553,699.234 363.5,707.5C 363.386,709.718 362.72,711.718 361.5,713.5C 359.24,716.362 357.24,719.362 355.5,722.5C 360.406,709.354 364.74,696.02 368.5,682.5 Z"/></g>
<g><path style="opacity:1" fill="#639dbf" d="M 128.5,680.5 C 127.541,703.807 127.207,727.141 127.5,750.5C 126.753,733.828 126.086,716.995 125.5,700C 126,694.5 126.5,689 127,683.5C 127.232,682.263 127.732,681.263 128.5,680.5 Z"/></g>
<g><path style="opacity:0.969" fill="#0b4133" d="M 29.5,702.5 C 33.2093,713.973 36.5426,725.639 39.5,737.5C 36.4155,732.751 34.5821,727.418 34,721.5C 32.9431,717.551 31.4431,713.884 29.5,710.5C 29.5,707.833 29.5,705.167 29.5,702.5 Z"/></g>
<g><path style="opacity:0.811" fill="#1d48cf" d="M 685.5,717.5 C 706.505,716.583 726.172,720.75 744.5,730C 764.873,743.242 774.873,762.075 774.5,786.5C 775.19,816.282 761.857,837.116 734.5,849C 708.482,856.869 682.149,857.535 655.5,851C 619.596,836.084 605.096,809.251 612,770.5C 617.407,750.22 629.574,735.387 648.5,726C 654.892,724.124 661.225,722.124 667.5,720C 673.734,719.822 679.734,718.988 685.5,717.5 Z M 690.5,735.5 C 733.772,734.273 753.605,755.273 750,798.5C 745.142,821.692 730.975,834.859 707.5,838C 690.377,840.277 674.043,838.277 658.5,832C 645.545,823.905 637.712,812.405 635,797.5C 632.033,757.311 650.533,736.644 690.5,735.5 Z"/></g>
<g><path style="opacity:0.795" fill="#1d48cf" d="M 843.5,718.5 C 864.526,716.845 884.526,720.012 903.5,728C 916.655,736.347 922.655,748.18 921.5,763.5C 913.833,763.5 906.167,763.5 898.5,763.5C 898.541,751.731 893.207,743.565 882.5,739C 862.142,733.055 841.808,733.055 821.5,739C 810.357,743.772 806.523,751.939 810,763.5C 813.844,767.44 818.344,770.273 823.5,772C 847.494,775.333 871.494,778.666 895.5,782C 909.498,784.737 919.998,792.237 927,804.5C 930.861,825.623 923.028,840.457 903.5,849C 881.032,855.236 858.032,857.236 834.5,855C 824.855,854.16 815.521,852.16 806.5,849C 789.473,840.914 780.807,827.581 780.5,809C 788.493,808.5 796.493,808.334 804.5,808.5C 805.862,826.363 815.529,836.197 833.5,838C 848.904,839.404 864.238,839.404 879.5,838C 886.268,836.39 892.602,833.723 898.5,830C 905.097,820.501 904.431,811.501 896.5,803C 894.5,802 892.5,801 890.5,800C 868.879,796.641 847.213,793.641 825.5,791C 814.693,789.77 804.693,786.437 795.5,781C 785.754,771.598 782.588,760.098 786,746.5C 791.763,732.727 801.929,724.56 816.5,722C 825.535,720.231 834.535,719.065 843.5,718.5 Z"/></g>
<g><path style="opacity:0.811" fill="#1d48cf" d="M 1090.5,718.5 C 1109.25,716.958 1126.91,720.125 1143.5,728C 1148.63,732.133 1153.47,736.633 1158,741.5C 1158.5,735.175 1158.67,728.842 1158.5,722.5C 1166.17,722.5 1173.83,722.5 1181.5,722.5C 1181.67,766.835 1181.5,811.168 1181,855.5C 1178.1,874.163 1168.27,887.663 1151.5,896C 1144.63,897.893 1137.97,900.227 1131.5,903C 1111.17,903.667 1090.83,903.667 1070.5,903C 1062.41,900.374 1054.41,897.374 1046.5,894C 1034.23,885.611 1027.9,874.111 1027.5,859.5C 1035.17,859.5 1042.83,859.5 1050.5,859.5C 1053.74,876.565 1064.07,885.731 1081.5,887C 1095.17,887.667 1108.83,887.667 1122.5,887C 1142.94,883.89 1154.78,872.057 1158,851.5C 1158.67,843.833 1158.67,836.167 1158,828.5C 1145.51,840.328 1130.67,847.162 1113.5,849C 1096.53,850.619 1079.86,849.285 1063.5,845C 1034.43,834.946 1019.76,814.612 1019.5,784C 1020.45,752.087 1036.11,731.42 1066.5,722C 1074.54,720.315 1082.54,719.148 1090.5,718.5 Z M 1084.5,736.5 C 1096.17,736.333 1107.84,736.5 1119.5,737C 1144.89,742.528 1157.89,758.028 1158.5,783.5C 1157.39,811.441 1143.06,827.608 1115.5,832C 1102.69,833.057 1090.03,832.391 1077.5,830C 1055.15,823.162 1044.15,807.996 1044.5,784.5C 1043.79,764.418 1052.46,749.918 1070.5,741C 1075.28,739.603 1079.95,738.103 1084.5,736.5 Z"/></g>
<g><path style="opacity:0.811" fill="#1d48cf" d="M 1263.5,718.5 C 1271.17,718.5 1278.83,718.5 1286.5,718.5C 1286.5,725.167 1286.5,731.833 1286.5,738.5C 1275.49,738.333 1264.49,738.5 1253.5,739C 1239.89,742.606 1230.72,751.106 1226,764.5C 1224.21,770.361 1223.21,776.361 1223,782.5C 1222.5,805.498 1222.33,828.498 1222.5,851.5C 1214.91,851.814 1207.41,851.481 1200,850.5C 1199.5,807.835 1199.33,765.168 1199.5,722.5C 1207.17,722.5 1214.83,722.5 1222.5,722.5C 1222.17,727.875 1222.51,733.208 1223.5,738.5C 1229.95,728.536 1238.95,722.37 1250.5,720C 1255.02,719.825 1259.35,719.325 1263.5,718.5 Z"/></g>
<g><path style="opacity:0.798" fill="#1d48cf" d="M 1353.5,718.5 C 1371.87,717.418 1389.54,719.918 1406.5,726C 1432.45,740.119 1445.12,761.952 1444.5,791.5C 1397.83,791.167 1351.16,791.5 1304.5,792.5C 1305.68,803.849 1309.85,813.849 1317,822.5C 1325.68,830.718 1335.85,835.885 1347.5,838C 1361.32,839.168 1374.98,838.502 1388.5,836C 1402.5,831.333 1411.83,822 1416.5,808C 1424.55,807.803 1432.55,807.303 1440.5,806.5C 1441.04,810.952 1440.21,815.285 1438,819.5C 1428.97,835.202 1415.8,845.702 1398.5,851C 1371.21,858.11 1344.54,856.777 1318.5,847C 1290.37,831.92 1278.21,808.42 1282,776.5C 1283.98,757.73 1292.81,742.897 1308.5,732C 1322.36,723.628 1337.36,719.128 1353.5,718.5 Z M 1350.5,734.5 C 1367.22,732.587 1382.89,735.42 1397.5,743C 1405.78,748.608 1412.28,755.775 1417,764.5C 1418.74,768.311 1419.57,772.311 1419.5,776.5C 1381.59,776.17 1343.76,776.504 1306,777.5C 1307.73,765.66 1312.9,755.493 1321.5,747C 1330.3,740.674 1339.96,736.507 1350.5,734.5 Z"/></g>
<g><path style="opacity:1" fill="#64b1b3" d="M 196.5,701.5 C 197.776,703.562 198.61,705.896 199,708.5C 199.167,712.167 199.333,715.833 199.5,719.5C 199.713,724.767 199.046,729.767 197.5,734.5C 199.023,723.437 198.689,712.437 196.5,701.5 Z"/></g>
<g><path style="opacity:1" fill="#969a9a" d="M 345.5,720.5 C 342.62,728.853 338.62,736.52 333.5,743.5C 337.132,735.575 341.132,727.909 345.5,720.5 Z"/></g>
<g><path style="opacity:1" fill="#6dc8b2" d="M 269.5,726.5 C 273.426,730.678 276.093,735.678 277.5,741.5C 274.582,736.667 271.916,731.667 269.5,726.5 Z"/></g>
<g><path style="opacity:1" fill="#97c8c8" d="M 55.5,725.5 C 59.1396,733.085 61.8063,741.085 63.5,749.5C 62.3361,745.883 60.5028,742.55 58,739.5C 56.8416,734.882 56.0083,730.216 55.5,725.5 Z"/></g>
<g><path style="opacity:0.302" fill="#146276" d="M 361.5,713.5 C 356.745,727.01 350.411,739.677 342.5,751.5C 344.253,746.213 346.753,741.213 350,736.5C 350.49,735.207 350.657,733.873 350.5,732.5C 352.967,729.663 354.633,726.329 355.5,722.5C 357.24,719.362 359.24,716.362 361.5,713.5 Z"/></g>
<g><path style="opacity:0.984" fill="#0a4233" d="M 350.5,732.5 C 350.657,733.873 350.49,735.207 350,736.5C 346.753,741.213 344.253,746.213 342.5,751.5C 341.5,752.167 340.5,752.833 339.5,753.5C 342.738,746.266 346.405,739.266 350.5,732.5 Z"/></g>
<g><path style="opacity:1" fill="#7f8383" d="M 329.5,750.5 C 325.706,758.74 320.872,766.407 315,773.5C 314.316,774.784 314.483,775.951 315.5,777C 327.89,777.803 340.223,777.303 352.5,775.5C 355.025,775.503 357.359,775.837 359.5,776.5C 348.365,777.62 337.199,778.62 326,779.5C 322.05,779.593 318.216,779.093 314.5,778C 312.789,776.867 312.289,775.367 313,773.5C 318.751,765.931 324.251,758.264 329.5,750.5 Z"/></g>
<g><path style="opacity:0.308" fill="#135e6e" d="M 342.5,751.5 C 340.087,757.482 336.753,762.982 332.5,768C 339.219,767.097 346.052,766.597 353,766.5C 364.076,764.855 371.742,769.188 376,779.5C 376.514,787.69 373.347,794.19 366.5,799C 347.526,812.607 326.193,818.441 302.5,816.5C 317.259,815.206 331.926,812.706 346.5,809C 347.381,808.292 348.047,807.458 348.5,806.5C 351.308,805.291 353.975,803.957 356.5,802.5C 366.163,799.338 372.163,792.838 374.5,783C 374.664,780.456 373.997,778.29 372.5,776.5C 370.833,775.5 369.5,774.167 368.5,772.5C 367.884,770.583 366.55,769.416 364.5,769C 353.493,768.548 342.493,768.715 331.5,769.5C 332.425,765.941 333.758,762.607 335.5,759.5C 336.34,757.147 337.674,755.147 339.5,753.5C 340.5,752.833 341.5,752.167 342.5,751.5 Z"/></g>
<g><path style="opacity:0.965" fill="#0a3b2d" d="M 335.5,759.5 C 333.758,762.607 332.425,765.941 331.5,769.5C 342.493,768.715 353.493,768.548 364.5,769C 366.55,769.416 367.884,770.583 368.5,772.5C 366.394,771.217 364.06,770.384 361.5,770C 350.8,769.651 340.133,770.151 329.5,771.5C 329.925,766.65 331.925,762.65 335.5,759.5 Z"/></g>
<g><path style="opacity:0.871" fill="#0b4437" d="M 39.5,737.5 C 45.6383,755.56 52.9716,773.227 61.5,790.5C 60.6236,790.631 59.9569,790.298 59.5,789.5C 50.6206,773.065 43.954,755.732 39.5,737.5 Z"/></g>
<g><path style="opacity:1" fill="#959999" d="M 153.5,778.5 C 159.067,779.858 164.734,780.691 170.5,781C 171.337,782.011 171.67,783.178 171.5,784.5C 170.5,784.5 169.5,784.5 168.5,784.5C 164.268,782.426 159.601,780.926 154.5,780C 153.944,779.617 153.611,779.117 153.5,778.5 Z"/></g>
<g><path style="opacity:1" fill="#234dce" d="M 181.5,782.5 C 188.882,782.731 193.882,786.231 196.5,793C 196.192,795.975 194.525,797.641 191.5,798C 189.5,802 186.5,805 182.5,807C 170.938,809.314 159.272,809.981 147.5,809C 145.275,808.124 143.275,806.957 141.5,805.5C 148.393,803.036 155.393,800.869 162.5,799C 164.792,797.71 166.792,796.043 168.5,794C 171.965,792.677 175.299,791.177 178.5,789.5C 178.688,786.794 179.688,784.461 181.5,782.5 Z"/></g>
<g><path style="opacity:1" fill="#284ecf" d="M 300.5,782.5 C 312.109,783.772 323.776,784.772 335.5,785.5C 340.141,784.769 344.807,784.436 349.5,784.5C 349.649,785.552 349.483,786.552 349,787.5C 346.433,790.731 343.266,793.231 339.5,795C 330.82,796.25 322.32,798.083 314,800.5C 308.105,799.117 302.105,798.117 296,797.5C 295.385,795.884 294.385,794.551 293,793.5C 292.333,791.833 292.333,790.167 293,788.5C 295.405,786.248 297.905,784.248 300.5,782.5 Z"/></g>
<g><path style="opacity:0.502" fill="#145f70" d="M 29.5,710.5 C 31.4431,713.884 32.9431,717.551 34,721.5C 34.5821,727.418 36.4155,732.751 39.5,737.5C 43.954,755.732 50.6206,773.065 59.5,789.5C 59.9569,790.298 60.6236,790.631 61.5,790.5C 64.4673,794.81 67.4673,799.144 70.5,803.5C 81.1432,819.855 95.8098,825.521 114.5,820.5C 116.789,818.613 119.455,817.279 122.5,816.5C 125.967,816.446 128.634,817.946 130.5,821C 133.599,821.387 136.266,822.554 138.5,824.5C 133.127,823.766 128.293,821.766 124,818.5C 111.411,825.881 98.5778,826.381 85.5,820C 76,813.833 68.1667,806 62,796.5C 46.6968,769.636 35.8635,740.969 29.5,710.5 Z"/></g>
<g><path style="opacity:1" fill="#828585" d="M 362.5,778.5 C 363.947,779.134 364.613,780.301 364.5,782C 363.043,788.623 359.043,792.79 352.5,794.5C 355.171,792.066 358.004,789.733 361,787.5C 362.289,784.649 362.789,781.649 362.5,778.5 Z"/></g>
<g><path style="opacity:1" fill="#8a8e8e" d="M 167.5,786.5 C 165.706,788.797 163.706,790.963 161.5,793C 154.4,793.774 147.4,794.941 140.5,796.5C 141.347,795.034 142.68,794.2 144.5,794C 152.925,793.484 160.592,790.984 167.5,786.5 Z"/></g>
<g><path style="opacity:1" fill="#575b5a" d="M 153.5,778.5 C 152.448,778.351 151.448,778.517 150.5,779C 144.264,785.74 137.597,791.907 130.5,797.5C 136.582,790.916 142.915,784.416 149.5,778C 151.066,777.235 152.399,777.402 153.5,778.5 Z"/></g>
<g><path style="opacity:0.949" fill="#094232" d="M 372.5,776.5 C 373.997,778.29 374.664,780.456 374.5,783C 372.163,792.838 366.163,799.338 356.5,802.5C 361.388,799.451 365.888,795.784 370,791.5C 371.471,788.899 372.637,786.233 373.5,783.5C 373.003,781.182 372.67,778.848 372.5,776.5 Z"/></g>
<g><path style="opacity:1" fill="#505554" d="M 77.5,798.5 C 80.8333,801.167 83.8333,804.167 86.5,807.5C 82.5,805.5 79.5,802.5 77.5,798.5 Z"/></g>
<g><path style="opacity:1" fill="#848888" d="M 137.5,796.5 C 136.188,798.479 134.521,800.145 132.5,801.5C 131.526,803.743 131.192,806.076 131.5,808.5C 130.883,808.389 130.383,808.056 130,807.5C 129.333,805.5 129.333,803.5 130,801.5C 132.4,799.585 134.9,797.919 137.5,796.5 Z"/></g>
<g><path style="opacity:1" fill="#666a6a" d="M 347.5,798.5 C 344.749,800.975 341.416,801.975 337.5,801.5C 340.251,799.025 343.584,798.025 347.5,798.5 Z"/></g>
<g><path style="opacity:1" fill="#353a39" d="M 337.5,801.5 C 335.168,803.096 332.501,804.262 329.5,805C 319.951,807.189 310.285,807.856 300.5,807C 299.263,806.768 298.263,806.268 297.5,805.5C 311.078,806.221 324.411,804.887 337.5,801.5 Z"/></g>
<g><path style="opacity:1" fill="#797d7d" d="M 130.5,797.5 C 127.037,801.464 123.37,805.298 119.5,809C 116.811,810.924 113.811,812.091 110.5,812.5C 112.885,810.737 115.552,809.237 118.5,808C 122.095,803.896 126.095,800.396 130.5,797.5 Z"/></g>
<g><path style="opacity:1" fill="#7d8281" d="M 88.5,808.5 C 95.3152,812.093 102.649,813.426 110.5,812.5C 103.715,815.436 97.0487,814.936 90.5,811C 89.6195,810.292 88.9528,809.458 88.5,808.5 Z"/></g>
<g><path style="opacity:1" fill="#7f8282" d="M 133.5,810.5 C 137.63,812.613 141.963,814.279 146.5,815.5C 159.845,817.491 172.845,816.491 185.5,812.5C 183.243,814.56 180.576,816.06 177.5,817C 166.503,818.963 155.503,818.963 144.5,817C 140.145,815.813 136.479,813.647 133.5,810.5 Z"/></g>
<g><path style="opacity:1" fill="#7e8384" d="M 194.5,833.5 C 193.833,825.657 193.167,817.657 192.5,809.5C 190.423,811.082 188.09,812.082 185.5,812.5C 186.903,811.069 188.569,809.902 190.5,809C 191.793,808.51 193.127,808.343 194.5,808.5C 194.5,816.833 194.5,825.167 194.5,833.5 Z"/></g>
<g><path style="opacity:0.98" fill="#093d2d" d="M 70.5,803.5 C 74.2976,806.796 77.9643,810.296 81.5,814C 91.5556,820.677 102.556,822.844 114.5,820.5C 95.8098,825.521 81.1432,819.855 70.5,803.5 Z"/></g>
<g><path style="opacity:0.937" fill="#0c4a3f" d="M 348.5,806.5 C 348.047,807.458 347.381,808.292 346.5,809C 331.926,812.706 317.259,815.206 302.5,816.5C 301.672,822.987 301.172,829.654 301,836.5C 299.999,844.871 297.832,852.871 294.5,860.5C 297.52,845.028 299.854,829.528 301.5,814C 317.639,814.123 333.305,811.623 348.5,806.5 Z"/></g>
<g><path style="opacity:1" fill="#444947" d="M 295.5,805.5 C 294.159,811.74 293.326,818.074 293,824.5C 292.617,825.056 292.117,825.389 291.5,825.5C 292.127,819.855 292.627,814.189 293,808.5C 293.236,806.881 294.069,805.881 295.5,805.5 Z"/></g>
<g><path style="opacity:0.996" fill="#073927" d="M 122.5,816.5 C 123.946,815.387 125.613,815.22 127.5,816C 128.984,817.574 130.651,818.907 132.5,820C 147.083,825.273 162.083,826.773 177.5,824.5C 164.642,826.923 151.642,826.923 138.5,824.5C 136.266,822.554 133.599,821.387 130.5,821C 128.634,817.946 125.967,816.446 122.5,816.5 Z"/></g>
<g><path style="opacity:0.536" fill="#13a28f" d="M 2062.5,831.5 C 2066.97,830.911 2070.97,831.577 2074.5,833.5C 2070.5,833.5 2066.5,833.5 2062.5,833.5C 2062.5,832.833 2062.5,832.167 2062.5,831.5 Z"/></g>
<g><path style="opacity:0.863" fill="#0d483e" d="M 198.5,883.5 C 197.222,883.218 196.222,882.551 195.5,881.5C 187.596,863.122 184.263,843.789 185.5,823.5C 182.833,823.833 180.167,824.167 177.5,824.5C 180.395,822.351 183.562,822.017 187,823.5C 185.723,844.564 189.556,864.564 198.5,883.5 Z"/></g>
<g><path style="opacity:1" fill="#0be65f" d="M 2062.5,834.5 C 2066.17,834.5 2069.83,834.5 2073.5,834.5C 2073.5,839.167 2073.5,843.833 2073.5,848.5C 2068.83,848.5 2064.17,848.5 2059.5,848.5C 2059.5,847.167 2059.5,845.833 2059.5,844.5C 2059.23,842.901 2059.57,841.568 2060.5,840.5C 2062.07,838.898 2062.74,836.898 2062.5,834.5 Z"/></g>
<g><path style="opacity:0.953" fill="#1dbe7c" d="M 443.5,833.5 C 444.892,836.007 445.892,838.673 446.5,841.5C 445.034,840.653 444.2,839.32 444,837.5C 443.501,841.152 443.335,844.818 443.5,848.5C 445.781,848.923 447.448,848.256 448.5,846.5C 449.404,847.209 449.737,848.209 449.5,849.5C 447.167,849.5 444.833,849.5 442.5,849.5C 442.179,843.974 442.512,838.64 443.5,833.5 Z"/></g>
<g><path style="opacity:1" fill="#0de262" d="M 446.5,841.5 C 447.441,843.05 448.107,844.716 448.5,846.5C 447.448,848.256 445.781,848.923 443.5,848.5C 443.335,844.818 443.501,841.152 444,837.5C 444.2,839.32 445.034,840.653 446.5,841.5 Z"/></g>
<g><path style="opacity:1" fill="#21ae87" d="M 2062.5,834.5 C 2062.74,836.898 2062.07,838.898 2060.5,840.5C 2060.26,838.102 2060.93,836.102 2062.5,834.5 Z"/></g>
<g><path style="opacity:1" fill="#747777" d="M 290.5,831.5 C 290.638,836.414 289.972,841.081 288.5,845.5C 288.334,841.486 288.501,837.486 289,833.5C 289.278,832.584 289.778,831.918 290.5,831.5 Z"/></g>
<g><path style="opacity:0.95" fill="#0fc973" d="M 2062.5,834.5 C 2062.5,834.167 2062.5,833.833 2062.5,833.5C 2066.5,833.5 2070.5,833.5 2074.5,833.5C 2074.5,838.833 2074.5,844.167 2074.5,849.5C 2069.17,849.5 2063.83,849.5 2058.5,849.5C 2058.5,848.5 2058.5,847.5 2058.5,846.5C 2058.33,845.508 2058.66,844.842 2059.5,844.5C 2059.5,845.833 2059.5,847.167 2059.5,848.5C 2064.17,848.5 2068.83,848.5 2073.5,848.5C 2073.5,843.833 2073.5,839.167 2073.5,834.5C 2069.83,834.5 2066.17,834.5 2062.5,834.5 Z"/></g>
<g><path style="opacity:0.119" fill="#159e92" d="M 440.5,825.5 C 441.795,827.979 442.795,830.646 443.5,833.5C 442.512,838.64 442.179,843.974 442.5,849.5C 444.833,849.5 447.167,849.5 449.5,849.5C 450.338,849.842 450.672,850.508 450.5,851.5C 447.167,851.5 443.833,851.5 440.5,851.5C 440.5,842.833 440.5,834.167 440.5,825.5 Z"/></g>
<g><path style="opacity:0.127" fill="#169e92" d="M 2058.5,846.5 C 2058.5,847.5 2058.5,848.5 2058.5,849.5C 2063.83,849.5 2069.17,849.5 2074.5,849.5C 2068.93,851.453 2062.93,852.12 2056.5,851.5C 2056.8,849.597 2057.46,847.93 2058.5,846.5 Z"/></g>
<g><path style="opacity:0.056" fill="#145d6e" d="M 302.5,816.5 C 303.326,835.585 300.159,853.918 293,871.5C 281.796,889.677 265.63,899.511 244.5,901C 243.328,901.419 242.328,902.085 241.5,903C 235.833,903.667 230.167,903.667 224.5,903C 221.861,901.054 218.861,900.054 215.5,900C 213.404,899.263 211.737,898.097 210.5,896.5C 223.506,901.327 236.506,901.661 249.5,897.5C 256.638,895.797 263.638,893.464 270.5,890.5C 279.068,887.6 285.068,881.934 288.5,873.5C 290.122,868.958 292.122,864.624 294.5,860.5C 297.832,852.871 299.999,844.871 301,836.5C 301.172,829.654 301.672,822.987 302.5,816.5 Z"/></g>
<g><path style="opacity:1" fill="#5c5f5e" d="M 195.5,857.5 C 196.59,862.118 197.923,866.785 199.5,871.5C 196.387,867.478 195.053,862.811 195.5,857.5 Z"/></g>
<g><path style="opacity:0.063" fill="#136176" d="M 195.5,881.5 C 191.674,875.83 188.841,869.496 187,862.5C 185.016,849.92 184.016,837.253 184,824.5C 181.034,826.034 177.867,827.2 174.5,828C 162.709,829.062 151.042,828.395 139.5,826C 138.944,825.617 138.611,825.117 138.5,824.5C 151.642,826.923 164.642,826.923 177.5,824.5C 180.167,824.167 182.833,823.833 185.5,823.5C 184.263,843.789 187.596,863.122 195.5,881.5 Z"/></g>
<g><path style="opacity:0.875" fill="#0c483b" d="M 288.5,873.5 C 285.068,881.934 279.068,887.6 270.5,890.5C 277.787,886.213 283.787,880.546 288.5,873.5 Z"/></g>
<g><path style="opacity:1" fill="#696d6d" d="M 286.5,854.5 C 286.328,858.534 285.828,862.534 285,866.5C 280.995,874.977 274.828,881.477 266.5,886C 264.655,887.128 262.655,887.628 260.5,887.5C 265.994,884.826 271.16,881.493 276,877.5C 278.302,873.266 280.969,869.266 284,865.5C 284.242,861.57 285.075,857.903 286.5,854.5 Z"/></g>
<g><path style="opacity:0.502" fill="#14637a" d="M 195.5,881.5 C 196.222,882.551 197.222,883.218 198.5,883.5C 201.119,889.119 205.119,893.452 210.5,896.5C 203.167,893.833 198.167,888.833 195.5,881.5 Z"/></g>
<g><path style="opacity:1" fill="#808383" d="M 213.5,887.5 C 217.083,887.73 220.083,889.063 222.5,891.5C 218.835,891.498 215.835,890.165 213.5,887.5 Z"/></g>
<g><path style="opacity:1" fill="#585c5c" d="M 256.5,888.5 C 246.443,893.192 235.776,894.692 224.5,893C 223.584,892.722 222.918,892.222 222.5,891.5C 229.138,892.498 235.805,892.665 242.5,892C 247.036,890.518 251.702,889.351 256.5,888.5 Z"/></g>
<g><path style="opacity:0.988" fill="#09402f" d="M 198.5,883.5 C 200.934,886.438 203.601,889.271 206.5,892C 220.042,899.339 234.376,901.173 249.5,897.5C 236.506,901.661 223.506,901.327 210.5,896.5C 205.119,893.452 201.119,889.119 198.5,883.5 Z"/></g>
</svg>
