<?xml version="1.0" encoding="UTF-8"?>
<!DOCTYPE svg PUBLIC "-//W3C//DTD SVG 1.1//EN" "http://www.w3.org/Graphics/SVG/1.1/DTD/svg11.dtd">
<svg xmlns="http://www.w3.org/2000/svg" version="1.1" width="2100px" height="1500px" style="shape-rendering:geometricPrecision; text-rendering:geometricPrecision; image-rendering:optimizeQuality; fill-rule:evenodd; clip-rule:evenodd" xmlns:xlink="http://www.w3.org/1999/xlink">
<g><path style="opacity:0.776" fill="#000000" d="M 310.5,513.5 C 399.373,504.764 473.539,533.097 533,598.5C 587.937,667.824 603.27,745.491 579,831.5C 553.053,901.109 506.22,950.942 438.5,981C 430.038,983.735 421.705,986.735 413.5,990C 317.675,1012.57 235.508,989.066 167,919.5C 109.138,852.796 90.805,776.129 112,689.5C 137.551,611.097 188.384,556.597 264.5,526C 278.148,521.666 292.148,518.333 306.5,516C 308.066,515.392 309.4,514.558 310.5,513.5 Z M 317.5,537.5 C 375.961,531.772 428.961,545.272 476.5,578C 549.594,636.415 577.76,711.915 561,804.5C 538.03,890.137 483.863,944.97 398.5,969C 317.475,985.419 247.641,965.253 189,908.5C 136.787,850.911 118.12,783.578 133,706.5C 153.386,628.435 201.553,575.268 277.5,547C 290.815,543.504 304.148,540.337 317.5,537.5 Z M 346.5,626.5 C 347.5,626.5 348.5,626.5 349.5,626.5C 349.34,628.199 349.506,629.866 350,631.5C 384.32,699.186 418.653,767.186 453,835.5C 453.667,836.5 453.667,837.5 453,838.5C 450.621,836.487 448.121,834.654 445.5,833C 412.856,815.326 380.023,797.826 347,780.5C 319.702,795.485 292.202,809.985 264.5,824C 256.652,828.856 248.819,833.689 241,838.5C 240.333,837.5 240.333,836.5 241,835.5C 258.003,802.74 275.003,770.073 292,737.5C 309.718,700.338 327.885,663.338 346.5,626.5 Z"/></g>
<g><path style="opacity:0.871" fill="#000000" d="M 642.5,529.5 C 731.855,530.475 821.188,530.809 910.5,530.5C 910.824,546.078 910.491,561.578 909.5,577C 874.502,577.5 839.502,577.667 804.5,577.5C 805.489,640.471 805.822,703.471 805.5,766.5C 785.257,766.827 765.091,766.493 745,765.5C 744.341,703.088 744.341,640.755 745,578.5C 710.238,577.67 675.405,577.17 640.5,577C 639.509,561.578 639.176,546.078 639.5,530.5C 640.791,530.737 641.791,530.404 642.5,529.5 Z"/></g>
<g><path style="opacity:0.873" fill="#000000" d="M 969.5,529.5 C 1048.21,530.493 1126.88,530.827 1205.5,530.5C 1206.82,545.397 1206.82,560.23 1205.5,575C 1145.5,575.5 1085.5,575.667 1025.5,575.5C 1026.83,590.5 1026.83,605.5 1025.5,620.5C 1060.5,620.333 1095.5,620.5 1130.5,621C 1131.49,636.089 1131.82,651.255 1131.5,666.5C 1096.17,666.5 1060.83,666.5 1025.5,666.5C 1026.83,683.5 1026.83,700.5 1025.5,717.5C 1086.5,717.333 1147.5,717.5 1208.5,718C 1209.49,734.089 1209.82,750.256 1209.5,766.5C 1128.5,766.667 1047.5,766.5 966.5,766C 965.173,687.542 965.173,609.042 966.5,530.5C 967.791,530.737 968.791,530.404 969.5,529.5 Z"/></g>
<g><path style="opacity:0.894" fill="#000000" d="M 1642.5,529.5 C 1661.35,530.439 1680.35,530.772 1699.5,530.5C 1700.4,560.376 1700.73,590.21 1700.5,620C 1754.11,619.175 1807.78,619.341 1861.5,620.5C 1861.33,590.831 1861.5,561.165 1862,531.5C 1864.25,530.02 1866.75,529.353 1869.5,529.5C 1886.88,530.426 1904.21,530.76 1921.5,530.5C 1921.5,609.167 1921.5,687.833 1921.5,766.5C 1901.5,766.5 1881.5,766.5 1861.5,766.5C 1861.5,733.167 1861.5,699.833 1861.5,666.5C 1807.4,666.531 1753.4,666.531 1699.5,666.5C 1700.47,700.146 1700.8,733.813 1700.5,767.5C 1680.87,766.536 1661.2,766.203 1641.5,766.5C 1641.17,687.429 1641.5,608.429 1642.5,529.5 Z"/></g>
<g><path style="opacity:0.881" fill="#000000" d="M 1347.5,530.5 C 1414.5,530.333 1481.5,530.5 1548.5,531C 1549.13,531.75 1549.63,532.584 1550,533.5C 1550.82,548.075 1550.66,562.575 1549.5,577C 1483.83,577.5 1418.17,577.667 1352.5,577.5C 1353.83,624.167 1353.83,670.833 1352.5,717.5C 1417.83,717.333 1483.17,717.5 1548.5,718C 1549,718.5 1549.5,719 1550,719.5C 1550.82,735.074 1550.66,750.574 1549.5,766C 1477.5,766.667 1405.5,766.667 1333.5,766C 1311.13,763.292 1298.29,750.792 1295,728.5C 1294.33,674.833 1294.33,621.167 1295,567.5C 1297.52,552.329 1305.68,541.495 1319.5,535C 1323.13,534.844 1326.47,533.844 1329.5,532C 1335.68,531.828 1341.68,531.328 1347.5,530.5 Z"/></g>
<g><path style="opacity:0.954" fill="#000000" d="M 335.5,545.5 C 404.884,544.376 462.217,569.709 507.5,621.5C 544.345,666.206 560.512,717.873 556,776.5C 544.77,852.188 505.603,908.022 438.5,944C 360.285,978.378 286.952,970.711 218.5,921C 206.64,909.806 195.14,898.306 184,886.5C 148.888,842.105 133.555,791.438 138,734.5C 148.634,660.747 186.467,605.58 251.5,569C 266.195,562.546 281.195,556.879 296.5,552C 309.585,549.683 322.585,547.516 335.5,545.5 Z M 346.5,626.5 C 327.885,663.338 309.718,700.338 292,737.5C 275.003,770.073 258.003,802.74 241,835.5C 240.333,836.5 240.333,837.5 241,838.5C 248.819,833.689 256.652,828.856 264.5,824C 292.202,809.985 319.702,795.485 347,780.5C 380.023,797.826 412.856,815.326 445.5,833C 448.121,834.654 450.621,836.487 453,838.5C 453.667,837.5 453.667,836.5 453,835.5C 418.653,767.186 384.32,699.186 350,631.5C 349.506,629.866 349.34,628.199 349.5,626.5C 348.5,626.5 347.5,626.5 346.5,626.5 Z"/></g>
<g><path style="opacity:0.005" fill="#000000" d="M 344.5,636.5 C 347.214,639.029 347.047,641.363 344,643.5C 343.444,641.115 343.61,638.782 344.5,636.5 Z"/></g>
<g><path style="opacity:0.859" fill="#000000" d="M 344.5,652.5 C 347.652,651.959 350.152,652.959 352,655.5C 374.916,704 398.916,752 424,799.5C 424.826,802.793 425.326,806.126 425.5,809.5C 420.515,808.509 415.849,806.676 411.5,804C 394.801,794.662 378.134,785.329 361.5,776C 356.606,773.537 351.606,771.371 346.5,769.5C 343.619,770.858 340.619,772.025 337.5,773C 315.168,786.597 292.168,798.764 268.5,809.5C 268.336,806.813 268.503,804.146 269,801.5C 295.042,752.048 320.209,702.381 344.5,652.5 Z"/></g>
<g><path style="opacity:0.771" fill="#000000" d="M 690.5,875.5 C 727.833,875.5 765.167,875.5 802.5,875.5C 802.5,883.5 802.5,891.5 802.5,899.5C 775.259,899.828 748.093,899.495 721,898.5C 719.542,904.988 719.042,911.655 719.5,918.5C 735.864,918.076 752.198,918.076 768.5,918.5C 768.814,926.087 768.481,933.587 767.5,941C 751.503,941.5 735.503,941.667 719.5,941.5C 719.5,948.167 719.5,954.833 719.5,961.5C 747.508,961.167 775.508,961.5 803.5,962.5C 804.821,970.697 804.821,978.863 803.5,987C 765.501,987.5 727.501,987.667 689.5,987.5C 689.179,950.124 689.513,912.79 690.5,875.5 Z"/></g>
<g><path style="opacity:0.759" fill="#000000" d="M 851.5,875.5 C 861.5,875.5 871.5,875.5 881.5,875.5C 881.5,904.167 881.5,932.833 881.5,961.5C 907.741,961.172 933.908,961.505 960,962.5C 960.815,970.746 960.648,978.912 959.5,987C 923.5,987.667 887.5,987.667 851.5,987C 850.175,949.863 850.175,912.696 851.5,875.5 Z"/></g>
<g><path style="opacity:0.761" fill="#000000" d="M 998.5,875.5 C 1036.17,875.5 1073.83,875.5 1111.5,875.5C 1111.5,883.5 1111.5,891.5 1111.5,899.5C 1083.83,899.5 1056.17,899.5 1028.5,899.5C 1028.5,905.833 1028.5,912.167 1028.5,918.5C 1044.8,918.129 1061.14,918.129 1077.5,918.5C 1077.81,926.087 1077.48,933.587 1076.5,941C 1060.5,941.5 1044.5,941.667 1028.5,941.5C 1028.5,948.167 1028.5,954.833 1028.5,961.5C 1056.17,961.333 1083.84,961.5 1111.5,962C 1112.48,970.415 1112.82,978.915 1112.5,987.5C 1074.5,987.667 1036.5,987.5 998.5,987C 997.17,949.833 997.17,912.667 998.5,875.5 Z"/></g>
<g><path style="opacity:0.775" fill="#000000" d="M 1143.5,875.5 C 1154.55,875.189 1165.55,875.522 1176.5,876.5C 1190.48,900.616 1203.98,924.949 1217,949.5C 1229.85,924.615 1243.02,900.115 1256.5,876C 1265.83,875.5 1275.16,875.334 1284.5,875.5C 1284.66,878.066 1284.32,880.566 1283.5,883C 1264.63,916.559 1246.13,950.392 1228,984.5C 1227.17,985.333 1226.33,986.167 1225.5,987C 1218.83,987.667 1212.17,987.667 1205.5,987C 1186.07,952.641 1166.23,918.475 1146,884.5C 1144.25,881.748 1143.42,878.748 1143.5,875.5 Z"/></g>
<g><path style="opacity:0.778" fill="#000000" d="M 1346.5,875.5 C 1352.84,875.334 1359.18,875.5 1365.5,876C 1366.31,877.314 1367.31,878.481 1368.5,879.5C 1387.42,913.154 1406.75,946.654 1426.5,980C 1427.38,982.922 1428.38,985.755 1429.5,988.5C 1418.2,987.732 1406.87,987.232 1395.5,987C 1381.94,962.711 1368.28,938.544 1354.5,914.5C 1341.77,938.296 1329.27,962.296 1317,986.5C 1306.92,987.486 1296.75,987.819 1286.5,987.5C 1286.54,982.684 1288.38,978.684 1292,975.5C 1309.41,941.672 1327.58,908.339 1346.5,875.5 Z"/></g>
<g><path style="opacity:0.748" fill="#000000" d="M 1440.5,875.5 C 1482.5,875.333 1524.5,875.5 1566.5,876C 1567.83,884.333 1567.83,892.667 1566.5,901C 1550.5,901.5 1534.5,901.667 1518.5,901.5C 1518.5,930.167 1518.5,958.833 1518.5,987.5C 1508.25,987.819 1498.08,987.486 1488,986.5C 1487.19,958.137 1487.36,929.803 1488.5,901.5C 1472.5,901.667 1456.5,901.5 1440.5,901C 1440.35,892.612 1440.35,884.112 1440.5,875.5 Z"/></g>
<g><path style="opacity:0.777" fill="#000000" d="M 1616.5,875.5 C 1648.17,875.333 1679.84,875.5 1711.5,876C 1722.98,877.154 1729.48,883.321 1731,894.5C 1731.67,919.5 1731.67,944.5 1731,969.5C 1730.46,973.46 1729.12,977.126 1727,980.5C 1723.54,983.324 1719.71,985.49 1715.5,987C 1681.17,987.667 1646.83,987.667 1612.5,987C 1608.99,985.459 1605.66,983.626 1602.5,981.5C 1599.04,976.835 1596.88,971.501 1596,965.5C 1595.33,943.5 1595.33,921.5 1596,899.5C 1596.3,890.898 1599.8,884.065 1606.5,879C 1610.11,878.299 1613.44,877.132 1616.5,875.5 Z M 1626.5,901.5 C 1651.5,901.5 1676.5,901.5 1701.5,901.5C 1701.5,921.5 1701.5,941.5 1701.5,961.5C 1676.5,961.5 1651.5,961.5 1626.5,961.5C 1627.82,941.488 1627.82,921.488 1626.5,901.5 Z"/></g>
<g><path style="opacity:0.784" fill="#000000" d="M 1785.5,875.5 C 1818.17,875.333 1850.84,875.5 1883.5,876C 1894.36,877.196 1901.19,883.03 1904,893.5C 1904.67,905.5 1904.67,917.5 1904,929.5C 1903.23,935.933 1900.06,940.767 1894.5,944C 1889.29,946.939 1883.62,948.272 1877.5,948C 1884.96,957.744 1892.29,967.577 1899.5,977.5C 1900.32,978.386 1901.32,978.719 1902.5,978.5C 1903.24,980.594 1903.91,982.761 1904.5,985C 1904.17,986.167 1903.83,987.333 1903.5,988.5C 1893.21,987.69 1882.88,987.19 1872.5,987C 1863.65,974.151 1854.65,961.317 1845.5,948.5C 1835.19,947.501 1824.85,947.168 1814.5,947.5C 1814.5,960.833 1814.5,974.167 1814.5,987.5C 1804.58,987.819 1794.75,987.486 1785,986.5C 1784.18,949.458 1784.35,912.458 1785.5,875.5 Z M 1814.5,899.5 C 1833.17,899.333 1851.84,899.5 1870.5,900C 1874.94,902.019 1876.6,905.519 1875.5,910.5C 1875.66,914.2 1874.99,917.7 1873.5,921C 1853.84,921.5 1834.17,921.667 1814.5,921.5C 1814.5,914.167 1814.5,906.833 1814.5,899.5 Z"/></g>
<g><path style="opacity:0.004" fill="#000000" d="M 1895.5,877.5 C 1896.39,876.224 1897.39,876.224 1898.5,877.5C 1897.77,878.087 1896.77,878.087 1895.5,877.5 Z"/></g>
<g><path style="opacity:0.004" fill="#000000" d="M 1183.5,879.5 C 1184.69,879.97 1185.36,880.97 1185.5,882.5C 1185.17,883.5 1184.83,884.5 1184.5,885.5C 1183.53,883.604 1183.2,881.604 1183.5,879.5 Z"/></g>
<g><path style="opacity:0.004" fill="#000000" d="M 1247.5,879.5 C 1248.57,880.251 1248.74,881.251 1248,882.5C 1247.52,881.552 1247.35,880.552 1247.5,879.5 Z"/></g>
<g><path style="opacity:0.004" fill="#000000" d="M 1372.5,879.5 C 1374.46,879.948 1374.8,880.948 1373.5,882.5C 1372.61,881.675 1372.28,880.675 1372.5,879.5 Z"/></g>
<g><path style="opacity:0.004" fill="#000000" d="M 1899.5,880.5 C 1899.56,879.957 1899.89,879.624 1900.5,879.5C 1901.58,880.365 1901.75,881.365 1901,882.5C 1900.72,881.584 1900.22,880.918 1899.5,880.5 Z"/></g>
<g><path style="opacity:0.004" fill="#000000" d="M 1205.5,919.5 C 1206.59,919.62 1207.25,920.287 1207.5,921.5C 1207.17,922.167 1206.83,922.833 1206.5,923.5C 1205.57,922.311 1205.24,920.978 1205.5,919.5 Z"/></g>
<g><path style="opacity:0.004" fill="#000000" d="M 1350.5,928.5 C 1351.57,929.251 1351.74,930.251 1351,931.5C 1350.52,930.552 1350.35,929.552 1350.5,928.5 Z"/></g>
<g><path style="opacity:0.004" fill="#000000" d="M 1341.5,945.5 C 1342.57,946.251 1342.74,947.251 1342,948.5C 1341.52,947.552 1341.35,946.552 1341.5,945.5 Z"/></g>
<g><path style="opacity:0.005" fill="#000000" d="M 1882.5,950.5 C 1884.86,950.337 1887.19,950.503 1889.5,951C 1887.98,952.218 1886.81,953.718 1886,955.5C 1885.52,954.552 1885.35,953.552 1885.5,952.5C 1883.82,952.715 1882.82,952.048 1882.5,950.5 Z"/></g>
<g><path style="opacity:0.004" fill="#000000" d="M 1246.5,954.5 C 1248.46,954.948 1248.8,955.948 1247.5,957.5C 1246.61,956.675 1246.28,955.675 1246.5,954.5 Z"/></g>
<g><path style="opacity:0.004" fill="#000000" d="M 1854.5,968.5 C 1856.46,968.948 1856.8,969.948 1855.5,971.5C 1854.61,970.675 1854.28,969.675 1854.5,968.5 Z"/></g>
<g><path style="opacity:0.004" fill="#000000" d="M 1617.5,991.5 C 1618.25,990.427 1619.25,990.26 1620.5,991C 1619.55,991.483 1618.55,991.649 1617.5,991.5 Z"/></g>
</svg>
