<?xml version="1.0" encoding="UTF-8"?>
<!DOCTYPE svg PUBLIC "-//W3C//DTD SVG 1.1//EN" "http://www.w3.org/Graphics/SVG/1.1/DTD/svg11.dtd">
<svg xmlns="http://www.w3.org/2000/svg" version="1.1" width="2100px" height="1500px" style="shape-rendering:geometricPrecision; text-rendering:geometricPrecision; image-rendering:optimizeQuality; fill-rule:evenodd; clip-rule:evenodd" xmlns:xlink="http://www.w3.org/1999/xlink">
<g><path style="opacity:0.903" fill="#000000" d="M 1951.5,553.5 C 1954.85,553.335 1958.18,553.502 1961.5,554C 1962.52,554.519 1963.18,555.353 1963.5,556.5C 1961.85,563.116 1960.51,569.783 1959.5,576.5C 1958.02,576.762 1956.69,576.429 1955.5,575.5C 1952,568.055 1946.67,565.888 1939.5,569C 1936.26,577.274 1933.93,586.441 1932.5,596.5C 1938.04,596.712 1943.54,596.378 1949,595.5C 1950.66,595.388 1951.83,596.054 1952.5,597.5C 1951.73,600.431 1950.73,603.264 1949.5,606C 1942.83,606.333 1936.17,606.667 1929.5,607C 1925,632.842 1918.5,658.342 1910,683.5C 1904.54,695.579 1896.38,705.412 1885.5,713C 1880.53,716.362 1875.2,717.195 1869.5,715.5C 1870.67,709.176 1872.34,702.843 1874.5,696.5C 1875.87,696.343 1877.21,696.51 1878.5,697C 1880.53,702.068 1884.2,703.735 1889.5,702C 1892.44,697.151 1894.11,692.151 1894.5,687C 1897.05,677.379 1899.38,667.712 1901.5,658C 1903.81,640.974 1906.81,624.141 1910.5,607.5C 1905.5,606.833 1900.5,606.167 1895.5,605.5C 1895.9,603.566 1896.9,602.066 1898.5,601C 1904.22,599.971 1909.22,597.638 1913.5,594C 1913.17,593.667 1912.83,593.333 1912.5,593C 1916.2,581.977 1922.87,572.977 1932.5,566C 1938.59,561.3 1944.92,557.134 1951.5,553.5 Z"/></g>
<g><path style="opacity:0.918" fill="#000000" d="M 1396.5,564.5 C 1407.87,564.647 1418.87,566.647 1429.5,570.5C 1429.83,571.5 1430.17,572.5 1430.5,573.5C 1429.47,580.135 1428.8,586.801 1428.5,593.5C 1426.14,593.663 1423.81,593.497 1421.5,593C 1423.84,583.054 1419.84,577.054 1409.5,575C 1402.48,573.806 1395.81,574.806 1389.5,578C 1384.31,583.69 1383.14,590.19 1386,597.5C 1386.83,598.333 1387.67,599.167 1388.5,600C 1398.91,603.603 1409.58,606.269 1420.5,608C 1428.38,611.207 1433.38,616.874 1435.5,625C 1436.94,646.304 1426.94,659.637 1405.5,665C 1397.83,665.667 1390.17,665.667 1382.5,665C 1376.7,663.455 1371.03,661.622 1365.5,659.5C 1366.07,651.177 1366.57,642.844 1367,634.5C 1369.04,633.577 1371.21,633.244 1373.5,633.5C 1373.17,638.599 1373.67,643.599 1375,648.5C 1386.34,658.834 1398.5,660.001 1411.5,652C 1417.78,644.174 1417.78,636.507 1411.5,629C 1409.5,628 1407.5,627 1405.5,626C 1395.28,624.091 1385.28,621.424 1375.5,618C 1366.58,610.517 1363.41,601.017 1366,589.5C 1368.18,579.291 1374.01,572.124 1383.5,568C 1387.92,566.648 1392.25,565.481 1396.5,564.5 Z"/></g>
<g><path style="opacity:0.917" fill="#000000" d="M 1669.5,564.5 C 1674.4,566.562 1678.23,569.896 1681,574.5C 1688.17,586.178 1694.84,598.178 1701,610.5C 1709.63,596.082 1718.13,581.582 1726.5,567C 1730.49,566.501 1734.49,566.334 1738.5,566.5C 1738.66,567.873 1738.49,569.207 1738,570.5C 1726.48,585.693 1716.15,601.693 1707,618.5C 1705.16,630.148 1705.16,641.815 1707,653.5C 1710.47,655.46 1714.31,656.46 1718.5,656.5C 1718.5,658.833 1718.5,661.167 1718.5,663.5C 1703.5,663.5 1688.5,663.5 1673.5,663.5C 1673.19,661.076 1673.53,658.743 1674.5,656.5C 1678.03,655.869 1681.53,655.202 1685,654.5C 1686.38,644.532 1686.71,634.532 1686,624.5C 1678.2,607.053 1668.04,591.22 1655.5,577C 1652.88,576.178 1650.22,575.678 1647.5,575.5C 1647.2,573.396 1647.53,571.396 1648.5,569.5C 1655.7,568.197 1662.7,566.53 1669.5,564.5 Z"/></g>
<g><path style="opacity:0.908" fill="#000000" d="M 1079.5,565.5 C 1090.17,566.773 1100.84,566.773 1111.5,565.5C 1111.58,568.206 1111.91,570.873 1112.5,573.5C 1108.71,572.814 1105.55,573.814 1103,576.5C 1090.25,605.15 1078.59,633.816 1068,662.5C 1064.26,663.626 1060.42,663.793 1056.5,663C 1044.44,633.75 1032.28,604.916 1020,576.5C 1017.11,573.729 1013.61,572.396 1009.5,572.5C 1009.5,570.5 1009.5,568.5 1009.5,566.5C 1024.83,566.5 1040.17,566.5 1055.5,566.5C 1055.5,568.833 1055.5,571.167 1055.5,573.5C 1051.13,572.923 1047.13,573.757 1043.5,576C 1050.98,596.786 1059.14,617.286 1068,637.5C 1075.59,618.465 1083.09,598.965 1090.5,579C 1090.51,577.417 1090.17,575.751 1089.5,574C 1086.44,573.744 1083.44,573.244 1080.5,572.5C 1079.53,570.257 1079.19,567.924 1079.5,565.5 Z"/></g>
<g><path style="opacity:0.907" fill="#000000" d="M 1192.5,565.5 C 1198.56,566.856 1204.72,567.856 1211,568.5C 1210.38,575.415 1209.88,582.415 1209.5,589.5C 1207.21,589.756 1205.04,589.423 1203,588.5C 1202.67,585.5 1202.33,582.5 1202,579.5C 1201.25,578.874 1200.42,578.374 1199.5,578C 1190.53,576.668 1181.53,576.335 1172.5,577C 1171.77,578.399 1171.27,579.899 1171,581.5C 1170.18,591.078 1170.35,600.578 1171.5,610C 1179.2,610.57 1186.86,610.236 1194.5,609C 1194.91,606.047 1195.74,602.88 1197,599.5C 1198.67,598.167 1200.33,598.167 1202,599.5C 1202.5,609.494 1202.67,619.494 1202.5,629.5C 1200.5,629.5 1198.5,629.5 1196.5,629.5C 1195.98,625.65 1195.31,622.15 1194.5,619C 1186.21,617.762 1177.88,617.262 1169.5,617.5C 1169.33,629.171 1169.5,640.838 1170,652.5C 1170.5,653 1171,653.5 1171.5,654C 1181.87,654.726 1192.2,654.392 1202.5,653C 1204.36,648.709 1205.53,644.209 1206,639.5C 1208.47,638.223 1210.97,638.223 1213.5,639.5C 1211.84,647.396 1211.17,655.396 1211.5,663.5C 1188.17,663.5 1164.83,663.5 1141.5,663.5C 1141.1,659.175 1143.1,656.675 1147.5,656C 1148.17,655 1148.83,654 1149.5,653C 1149.46,627.636 1149.46,602.303 1149.5,577C 1148.83,576 1148.17,575 1147.5,574C 1144.5,573.667 1141.5,573.333 1138.5,573C 1137.58,570.959 1137.24,568.792 1137.5,566.5C 1156.01,566.83 1174.34,566.497 1192.5,565.5 Z"/></g>
<g><path style="opacity:0.919" fill="#000000" d="M 1284.5,565.5 C 1291.83,566.549 1299.16,567.715 1306.5,569C 1319.75,574.74 1323.92,584.573 1319,598.5C 1314.56,606.108 1308.39,611.775 1300.5,615.5C 1309.44,628.95 1318.61,642.283 1328,655.5C 1330.23,657.113 1332.73,657.78 1335.5,657.5C 1335.5,659.833 1335.5,662.167 1335.5,664.5C 1326.5,664.5 1317.5,664.5 1308.5,664.5C 1308.51,662.692 1308.01,661.025 1307,659.5C 1297.16,643.872 1287.66,628.205 1278.5,612.5C 1285.39,613.326 1291.22,611.326 1296,606.5C 1301.32,598.301 1301.65,589.968 1297,581.5C 1295.44,579.641 1293.61,578.141 1291.5,577C 1285.91,575.711 1280.24,575.211 1274.5,575.5C 1273.6,602.065 1273.93,628.731 1275.5,655.5C 1279.14,656.114 1282.8,656.448 1286.5,656.5C 1286.5,658.833 1286.5,661.167 1286.5,663.5C 1271.83,663.5 1257.17,663.5 1242.5,663.5C 1242.19,661.076 1242.53,658.743 1243.5,656.5C 1246.44,655.756 1249.44,655.256 1252.5,655C 1254.2,652.731 1254.53,650.398 1253.5,648C 1256.12,624.279 1256.12,600.613 1253.5,577C 1253.96,576.586 1254.29,576.086 1254.5,575.5C 1251.44,573.859 1248.11,573.026 1244.5,573C 1243.58,570.959 1243.24,568.792 1243.5,566.5C 1257.34,566.829 1271.01,566.496 1284.5,565.5 Z"/></g>
<g><path style="opacity:0.91" fill="#000000" d="M 1538.5,565.5 C 1566.85,566.817 1595.18,566.817 1623.5,565.5C 1624.88,566 1625.55,567 1625.5,568.5C 1624.57,575.462 1624.24,582.462 1624.5,589.5C 1622.17,589.5 1619.83,589.5 1617.5,589.5C 1617.53,585.131 1617.2,580.798 1616.5,576.5C 1608.15,575.609 1599.82,575.609 1591.5,576.5C 1592.83,600.363 1592.83,624.196 1591.5,648C 1592.01,650.57 1593.01,652.903 1594.5,655C 1597.79,655.826 1601.13,656.326 1604.5,656.5C 1604.5,658.833 1604.5,661.167 1604.5,663.5C 1589.17,662.167 1573.83,662.167 1558.5,663.5C 1558.19,661.076 1558.53,658.743 1559.5,656.5C 1562.44,655.756 1565.44,655.256 1568.5,655C 1569,654.5 1569.5,654 1570,653.5C 1571.54,627.855 1571.88,602.188 1571,576.5C 1562.9,575.609 1554.74,575.609 1546.5,576.5C 1546.66,579.545 1545.99,582.379 1544.5,585C 1545.41,586.699 1545.74,588.533 1545.5,590.5C 1543.17,590.5 1540.83,590.5 1538.5,590.5C 1537.45,582.103 1537.45,573.77 1538.5,565.5 Z"/></g>
<g><path style="opacity:0.98" fill="#000000" d="M 14.5,566.5 C 52.8858,567.728 91.2191,567.728 129.5,566.5C 129.5,587.5 129.5,608.5 129.5,629.5C 122.167,629.5 114.833,629.5 107.5,629.5C 107.333,687.834 107.5,746.168 108,804.5C 108.447,818.964 111.78,832.964 118,846.5C 127.663,859.495 140.663,865.495 157,864.5C 184.82,864.501 199.987,850.834 202.5,823.5C 203.872,821.309 204.206,819.142 203.5,817C 205.057,809.596 205.891,802.096 206,794.5C 206.5,739.501 206.667,684.501 206.5,629.5C 199.167,629.5 191.833,629.5 184.5,629.5C 184.5,608.5 184.5,587.5 184.5,566.5C 222.833,566.5 261.167,566.5 299.5,566.5C 299.5,587.167 299.5,607.833 299.5,628.5C 291.833,628.5 284.167,628.5 276.5,628.5C 276.925,694.512 276.425,760.512 275,826.5C 270.699,900.802 231.366,938.135 157,938.5C 127.427,938.973 100.594,930.806 76.5,914C 49.4792,890.475 36.3125,860.975 37,825.5C 36.5,759.834 36.3333,694.168 36.5,628.5C 29.1667,628.5 21.8333,628.5 14.5,628.5C 14.5,607.833 14.5,587.167 14.5,566.5 Z"/></g>
<g><path style="opacity:0.983" fill="#000000" d="M 306.5,566.5 C 389.167,566.5 471.833,566.5 554.5,566.5C 554.5,598.5 554.5,630.5 554.5,662.5C 533.5,662.5 512.5,662.5 491.5,662.5C 491.5,651.167 491.5,639.833 491.5,628.5C 460.833,628.5 430.167,628.5 399.5,628.5C 399.5,657.5 399.5,686.5 399.5,715.5C 427.833,715.5 456.167,715.5 484.5,715.5C 484.5,736.5 484.5,757.5 484.5,778.5C 456.167,778.5 427.833,778.5 399.5,778.5C 399.5,809.167 399.5,839.833 399.5,870.5C 406.833,870.5 414.167,870.5 421.5,870.5C 421.5,891.5 421.5,912.5 421.5,933.5C 383.167,933.5 344.833,933.5 306.5,933.5C 306.5,912.5 306.5,891.5 306.5,870.5C 314.167,870.5 321.833,870.5 329.5,870.5C 329.168,789.929 329.502,709.429 330.5,629C 322.507,628.5 314.507,628.334 306.5,628.5C 306.5,607.833 306.5,587.167 306.5,566.5 Z"/></g>
<g><path style="opacity:0.896" fill="#000000" d="M 609.5,566.5 C 615.167,566.5 620.833,566.5 626.5,566.5C 626.833,689.835 626.5,813.168 625.5,936.5C 620.167,937.833 614.833,937.833 609.5,936.5C 609.167,935.167 608.833,933.833 608.5,932.5C 608.752,810.837 609.085,688.837 609.5,566.5 Z"/></g>
<g><path style="opacity:0.914" fill="#000000" d="M 674.5,566.5 C 689.167,566.5 703.833,566.5 718.5,566.5C 718.5,568.5 718.5,570.5 718.5,572.5C 715.252,572.901 712.085,573.568 709,574.5C 707.407,594.796 707.073,615.129 708,635.5C 710.669,648.1 718.502,653.767 731.5,652.5C 739.402,653.153 746.235,650.82 752,645.5C 753.562,643.043 754.562,640.376 755,637.5C 757,616.833 757,596.167 755,575.5C 754.5,575 754,574.5 753.5,574C 750.146,573.545 746.813,573.045 743.5,572.5C 743.5,570.5 743.5,568.5 743.5,566.5C 754.5,566.5 765.5,566.5 776.5,566.5C 776.5,568.5 776.5,570.5 776.5,572.5C 771.73,571.465 768.564,573.131 767,577.5C 765.967,596.82 765.3,616.153 765,635.5C 762.75,652.418 752.916,662.252 735.5,665C 722.519,666.781 710.185,664.781 698.5,659C 692.689,654.859 688.856,649.359 687,642.5C 686.947,619.792 686.28,597.125 685,574.5C 681.6,573.46 678.1,572.794 674.5,572.5C 674.5,570.5 674.5,568.5 674.5,566.5 Z"/></g>
<g><path style="opacity:0.901" fill="#000000" d="M 803.5,566.5 C 813.839,566.334 824.172,566.5 834.5,567C 851.863,590.702 870.363,613.536 890,635.5C 890.614,615.487 890.28,595.487 889,575.5C 888.5,575 888,574.5 887.5,574C 884.183,573.502 880.85,573.335 877.5,573.5C 877.5,571.167 877.5,568.833 877.5,566.5C 888.5,566.5 899.5,566.5 910.5,566.5C 910.5,568.833 910.5,571.167 910.5,573.5C 907.482,573.335 904.482,573.502 901.5,574C 900.874,574.75 900.374,575.584 900,576.5C 898.237,606.162 898.071,635.828 899.5,665.5C 893.445,665.47 887.945,663.803 883,660.5C 863.682,637.506 844.682,614.173 826,590.5C 825.211,612.191 825.378,633.857 826.5,655.5C 830.179,655.724 833.846,656.058 837.5,656.5C 837.5,658.833 837.5,661.167 837.5,663.5C 826.164,662.198 814.831,662.198 803.5,663.5C 803.192,661.076 803.526,658.743 804.5,656.5C 807.758,655.583 811.091,655.249 814.5,655.5C 815.069,632.938 815.736,610.438 816.5,588C 815.7,583.92 815.2,579.753 815,575.5C 811.519,573.433 807.686,572.433 803.5,572.5C 803.5,570.5 803.5,568.5 803.5,566.5 Z"/></g>
<g><path style="opacity:0.927" fill="#000000" d="M 938.5,566.5 C 953.833,566.5 969.167,566.5 984.5,566.5C 984.5,568.833 984.5,571.167 984.5,573.5C 981.482,573.335 978.482,573.502 975.5,574C 974.333,574.5 973.5,575.333 973,576.5C 971.128,602.523 971.128,628.523 973,654.5C 976.394,655.456 979.894,655.789 983.5,655.5C 983.5,658.167 983.5,660.833 983.5,663.5C 968.828,662.208 954.162,662.208 939.5,663.5C 939.5,660.833 939.5,658.167 939.5,655.5C 943.106,655.789 946.606,655.456 950,654.5C 951.571,630.527 951.904,606.527 951,582.5C 950.818,579.774 950.318,577.107 949.5,574.5C 945.928,573.319 942.262,572.652 938.5,572.5C 938.5,570.5 938.5,568.5 938.5,566.5 Z"/></g>
<g><path style="opacity:0.912" fill="#000000" d="M 1467.5,566.5 C 1482.17,566.5 1496.83,566.5 1511.5,566.5C 1511.5,568.833 1511.5,571.167 1511.5,573.5C 1508.48,573.335 1505.48,573.502 1502.5,574C 1502,574.5 1501.5,575 1501,575.5C 1499.45,600.811 1499.11,626.144 1500,651.5C 1500.31,652.766 1500.81,653.933 1501.5,655C 1504.82,655.498 1508.15,655.665 1511.5,655.5C 1511.5,658.167 1511.5,660.833 1511.5,663.5C 1496.83,662.208 1482.16,662.208 1467.5,663.5C 1467.5,660.833 1467.5,658.167 1467.5,655.5C 1470.52,655.665 1473.52,655.498 1476.5,655C 1477,654.5 1477.5,654 1478,653.5C 1478.67,627.5 1478.67,601.5 1478,575.5C 1474.8,573.709 1471.3,572.709 1467.5,572.5C 1467.5,570.5 1467.5,568.5 1467.5,566.5 Z"/></g>
<g><path style="opacity:0.92" fill="#000000" d="M 1846.5,594.5 C 1855.59,593.738 1864.26,595.238 1872.5,599C 1879.88,604.656 1882.88,612.156 1881.5,621.5C 1880.53,653.468 1864.2,671.468 1832.5,675.5C 1818.34,675.51 1810.18,668.51 1808,654.5C 1805.58,624.27 1818.41,604.27 1846.5,594.5 Z M 1844.5,602.5 C 1852.01,601.418 1857.34,604.252 1860.5,611C 1861.68,625.476 1859.85,639.643 1855,653.5C 1852.47,660.54 1847.63,664.874 1840.5,666.5C 1835.3,666.319 1831.46,663.985 1829,659.5C 1826.02,641.305 1828.69,624.305 1837,608.5C 1839.11,605.879 1841.61,603.879 1844.5,602.5 Z"/></g>
<g><path style="opacity:0.967" fill="#000000" d="M 1142.5,701.5 C 1172.56,698.521 1201.22,703.354 1228.5,716C 1265.6,739.21 1282.93,772.21 1280.5,815C 1281.67,847.876 1272.17,877.042 1252,902.5C 1231.13,925.019 1205.29,937.519 1174.5,940C 1144.01,944.067 1115.01,939.4 1087.5,926C 1057.15,906.58 1040.49,879.247 1037.5,844C 1033.11,817.156 1035.95,791.323 1046,766.5C 1060.54,736.626 1083.71,716.792 1115.5,707C 1124.6,704.948 1133.6,703.114 1142.5,701.5 Z M 1147.5,721.5 C 1176.57,717.458 1198.74,727.791 1214,752.5C 1227.21,778.771 1232.54,806.437 1230,835.5C 1229.66,858.261 1223.66,879.261 1212,898.5C 1202.06,910.729 1189.22,918.229 1173.5,921C 1134.17,925.877 1108.5,909.877 1096.5,873C 1091.94,861.368 1089.1,849.535 1088,837.5C 1084.83,810.9 1087.5,785.234 1096,760.5C 1106.2,738.12 1123.36,725.12 1147.5,721.5 Z"/></g>
<g><path style="opacity:0.961" fill="#000000" d="M 1949.5,703.5 C 1957.42,703.185 1965.25,703.518 1973,704.5C 2001.95,774.031 2031.29,843.364 2061,912.5C 2062.14,914.609 2063.64,916.442 2065.5,918C 2071.49,918.944 2077.49,919.777 2083.5,920.5C 2083.67,925.511 2083.5,930.511 2083,935.5C 2068.4,934.765 2053.73,934.099 2039,933.5C 2020.12,934.409 2000.96,934.742 1981.5,934.5C 1981.5,929.833 1981.5,925.167 1981.5,920.5C 1989.26,920.558 1996.93,919.725 2004.5,918C 2005.17,917 2005.83,916 2006.5,915C 2005.32,910.81 2004.16,906.31 2003,901.5C 1997.8,889.725 1993.3,877.725 1989.5,865.5C 1961.83,865.167 1934.16,865.5 1906.5,866.5C 1901.32,879.888 1896.82,893.554 1893,907.5C 1890.47,915.969 1893.63,920.136 1902.5,920C 1907.49,920.499 1912.49,920.666 1917.5,920.5C 1917.5,925.5 1917.5,930.5 1917.5,935.5C 1892.5,934.18 1867.5,934.18 1842.5,935.5C 1842.5,930.5 1842.5,925.5 1842.5,920.5C 1848.98,920.719 1855.31,919.886 1861.5,918C 1864.79,914.707 1867.29,910.873 1869,906.5C 1897.12,838.503 1923.95,770.836 1949.5,703.5 Z M 1946.5,763.5 C 1947.79,764.058 1948.62,765.058 1949,766.5C 1959.45,793.178 1970.28,819.678 1981.5,846C 1959.17,846.667 1936.83,846.667 1914.5,846C 1924.67,821.563 1934.5,797.397 1944,773.5C 1945.35,770.28 1946.19,766.947 1946.5,763.5 Z"/></g>
<g><path style="opacity:0.959" fill="#000000" d="M 809.5,704.5 C 819.874,704.234 830.207,704.734 840.5,706C 841,706.5 841.5,707 842,707.5C 842.099,712.808 841.265,717.975 839.5,723C 840.059,723.725 840.392,724.558 840.5,725.5C 838.635,736.416 837.635,747.416 837.5,758.5C 832.833,758.5 828.167,758.5 823.5,758.5C 823.827,750.396 823.161,742.396 821.5,734.5C 822.347,732.939 822.014,731.439 820.5,730C 811.71,727.275 802.71,725.609 793.5,725C 779.466,724.502 765.466,725.002 751.5,726.5C 750.074,753.133 749.408,779.8 749.5,806.5C 767.19,807.945 784.857,807.779 802.5,806C 804.333,805.5 805.5,804.333 806,802.5C 807.107,796.213 807.607,789.88 807.5,783.5C 812.833,783.5 818.167,783.5 823.5,783.5C 823.5,807.5 823.5,831.5 823.5,855.5C 818.167,855.5 812.833,855.5 807.5,855.5C 807.616,848.126 807.116,840.792 806,833.5C 805.727,831.671 804.893,830.171 803.5,829C 799.584,827.898 795.584,827.231 791.5,827C 777.504,826.5 763.504,826.333 749.5,826.5C 749.333,846.836 749.5,867.169 750,887.5C 750.013,895.621 750.847,903.621 752.5,911.5C 751.811,914.591 753.145,916.758 756.5,918C 765.106,919.716 773.772,920.883 782.5,921.5C 782.5,925.833 782.5,930.167 782.5,934.5C 746.211,933.915 710.211,933.915 674.5,934.5C 674.5,929.833 674.5,925.167 674.5,920.5C 682.627,920.76 690.627,919.926 698.5,918C 699.126,917.25 699.626,916.416 700,915.5C 701.718,897.321 702.884,879.155 703.5,861C 703.451,837.025 703.451,813.025 703.5,789C 702.757,768.193 701.59,747.36 700,726.5C 699.833,723.667 698.333,722.167 695.5,722C 688.821,721.453 682.155,720.787 675.5,720C 674.531,715.263 674.197,710.43 674.5,705.5C 719.673,706.944 764.673,706.61 809.5,704.5 Z"/></g>
<g><path style="opacity:0.968" fill="#000000" d="M 1397.5,704.5 C 1406.47,705.249 1415.47,705.749 1424.5,706C 1457.67,710.775 1472.17,729.941 1468,763.5C 1464.9,779.184 1457.07,792.018 1444.5,802C 1436.95,807.274 1428.95,811.774 1420.5,815.5C 1440.34,847.852 1461.17,879.518 1483,910.5C 1487.68,917.423 1494.18,920.423 1502.5,919.5C 1502.5,924.5 1502.5,929.5 1502.5,934.5C 1481.5,934.667 1460.5,934.5 1439.5,934C 1419.89,897.764 1398.73,862.597 1376,828.5C 1373.37,824.868 1370.37,821.535 1367,818.5C 1366.1,815.975 1366.6,813.808 1368.5,812C 1401.02,813.65 1418.36,798.15 1420.5,765.5C 1420.05,744.24 1409.72,730.74 1389.5,725C 1379.17,724.333 1368.83,724.333 1358.5,725C 1357.81,726.067 1357.31,727.234 1357,728.5C 1356.67,737.833 1356.33,747.167 1356,756.5C 1355.04,807.856 1355.37,859.189 1357,910.5C 1357.3,912.888 1358.14,915.055 1359.5,917C 1367.41,918.493 1375.41,919.327 1383.5,919.5C 1383.5,924.5 1383.5,929.5 1383.5,934.5C 1348.56,933.281 1313.89,933.281 1279.5,934.5C 1279.5,929.5 1279.5,924.5 1279.5,919.5C 1286.84,919.128 1294.17,918.628 1301.5,918C 1303.04,917.71 1304.38,917.044 1305.5,916C 1305.17,915.667 1304.83,915.333 1304.5,915C 1305.61,910.258 1306.44,905.424 1307,900.5C 1308.96,844.499 1308.96,788.499 1307,732.5C 1306.73,730.899 1306.23,729.399 1305.5,728C 1306.16,725.67 1305.16,724.003 1302.5,723C 1294.91,721.426 1287.24,720.593 1279.5,720.5C 1279.5,715.5 1279.5,710.5 1279.5,705.5C 1319,706.987 1358.34,706.653 1397.5,704.5 Z"/></g>
<g><path style="opacity:0.964" fill="#000000" d="M 852.5,705.5 C 887.113,707.767 921.78,708.101 956.5,706.5C 956.5,711.5 956.5,716.5 956.5,721.5C 949.112,721.893 941.779,722.727 934.5,724C 932.667,724.5 931.5,725.667 931,727.5C 930.667,729.833 930.333,732.167 930,734.5C 928,793.833 928,853.167 930,912.5C 956.259,915.71 982.426,914.877 1008.5,910C 1009.7,909.097 1010.53,907.931 1011,906.5C 1014.1,896.358 1016.43,886.025 1018,875.5C 1022.74,874.531 1027.57,874.197 1032.5,874.5C 1030.42,894.074 1028.08,913.574 1025.5,933C 1013.59,934.898 1001.59,935.732 989.5,935.5C 947.486,933.443 905.486,933.443 863.5,935.5C 863.18,932.102 863.513,928.768 864.5,925.5C 869.326,923.254 873.992,920.754 878.5,918C 880.004,916.509 880.837,914.676 881,912.5C 882.963,851.496 882.963,790.496 881,729.5C 880.837,727.324 880.004,725.491 878.5,724C 870.294,721.953 861.961,721.119 853.5,721.5C 853.733,716.105 853.4,710.772 852.5,705.5 Z"/></g>
<g><path style="opacity:0.966" fill="#000000" d="M 1512.5,705.5 C 1547.16,706.826 1581.83,706.826 1616.5,705.5C 1616.8,710.762 1616.47,715.928 1615.5,721C 1608.48,721.501 1601.48,722.168 1594.5,723C 1591.9,723.935 1590.4,725.768 1590,728.5C 1588.88,760.816 1588.38,793.149 1588.5,825.5C 1588.35,855.205 1588.85,884.872 1590,914.5C 1591.34,917.094 1593.51,918.594 1596.5,919C 1603.19,919.335 1609.86,919.835 1616.5,920.5C 1616.5,925.5 1616.5,930.5 1616.5,935.5C 1583.33,934.218 1550.16,934.218 1517,935.5C 1515.5,935.167 1514,934.833 1512.5,934.5C 1513.26,930.022 1513.6,925.355 1513.5,920.5C 1520.82,919.698 1528.16,918.864 1535.5,918C 1536.67,917.5 1537.5,916.667 1538,915.5C 1539.95,901.91 1540.95,888.244 1541,874.5C 1541.48,836.186 1541.65,798.02 1541.5,760C 1540.91,750.001 1539.91,740.001 1538.5,730C 1539.25,724.898 1536.92,722.231 1531.5,722C 1525.18,721.5 1518.84,721.334 1512.5,721.5C 1512.5,716.167 1512.5,710.833 1512.5,705.5 Z"/></g>
<g><path style="opacity:0.968" fill="#000000" d="M 1623.5,705.5 C 1672.16,706.222 1720.83,706.389 1769.5,706C 1802.84,704.656 1830.67,716.156 1853,740.5C 1868.67,764.786 1875.01,791.786 1872,821.5C 1866.42,874.149 1838.42,909.816 1788,928.5C 1770.18,933.367 1752.01,936.033 1733.5,936.5C 1700.83,933.853 1668.16,933.853 1635.5,936.5C 1635.33,933.15 1635.5,929.817 1636,926.5C 1640.41,923.376 1644.91,920.376 1649.5,917.5C 1650.31,915.234 1650.81,912.9 1651,910.5C 1652.77,854.836 1652.77,799.169 1651,743.5C 1650.68,739.805 1650.18,736.138 1649.5,732.5C 1649.61,731.558 1649.94,730.725 1650.5,730C 1649.35,727.538 1648.02,725.204 1646.5,723C 1639.12,721.995 1631.79,720.829 1624.5,719.5C 1623.51,714.88 1623.17,710.214 1623.5,705.5 Z M 1727.5,723.5 C 1742,723.449 1756.33,724.949 1770.5,728C 1789.33,733.497 1803.16,744.997 1812,762.5C 1827.63,803.077 1825.63,842.744 1806,881.5C 1792.5,902.845 1773,914.345 1747.5,916C 1731.77,917.781 1716.1,917.281 1700.5,914.5C 1698.05,851.84 1698.05,789.173 1700.5,726.5C 1709.61,725.226 1718.61,724.226 1727.5,723.5 Z"/></g>
</svg>
