<?xml version="1.0" encoding="UTF-8"?>
<!DOCTYPE svg PUBLIC "-//W3C//DTD SVG 1.1//EN" "http://www.w3.org/Graphics/SVG/1.1/DTD/svg11.dtd">
<svg xmlns="http://www.w3.org/2000/svg" version="1.1" width="2100px" height="1500px" style="shape-rendering:geometricPrecision; text-rendering:geometricPrecision; image-rendering:optimizeQuality; fill-rule:evenodd; clip-rule:evenodd" xmlns:xlink="http://www.w3.org/1999/xlink">
<g><path style="opacity:0.983" fill="#1d49ce" d="M 665.5,2.5 C 669.55,12.9388 674.884,22.6054 681.5,31.5C 685.226,35.626 687.893,40.2927 689.5,45.5C 694.478,54.005 699.311,62.6717 704,71.5C 704.708,72.3805 705.542,73.0472 706.5,73.5C 708.307,77.1136 710.14,80.7802 712,84.5C 717.522,90.2043 721.522,96.871 724,104.5C 726.043,106.208 727.71,108.208 729,110.5C 732.941,118.719 737.108,126.719 741.5,134.5C 743.115,139.731 745.282,144.731 748,149.5C 751.932,153.714 755.099,158.38 757.5,163.5C 760.89,169.951 764.057,176.618 767,183.5C 768.113,184.305 769.279,184.972 770.5,185.5C 775.911,191.338 780.578,197.671 784.5,204.5C 786.748,207.328 788.748,210.328 790.5,213.5C 791.031,216.237 791.864,218.904 793,221.5C 796.643,227.173 800.143,232.84 803.5,238.5C 806.632,245.475 810.799,251.808 816,257.5C 816.946,261.028 818.113,264.361 819.5,267.5C 823.737,276.706 828.737,285.372 834.5,293.5C 839.169,300.826 844.336,307.826 850,314.5C 851.822,318.157 853.322,321.824 854.5,325.5C 857.451,333.516 861.618,340.85 867,347.5C 870.667,354.5 874.333,361.5 878,368.5C 880.183,370.907 882.35,373.24 884.5,375.5C 885.735,380.212 887.735,384.545 890.5,388.5C 893.468,394.431 896.801,400.097 900.5,405.5C 908.025,417.885 915.025,430.551 921.5,443.5C 923.113,448.059 925.279,452.392 928,456.5C 929.371,458.041 930.871,459.375 932.5,460.5C 941.89,474.463 950.557,488.796 958.5,503.5C 965.078,520.412 973.411,536.412 983.5,551.5C 989.534,561.189 995.534,570.856 1001.5,580.5C 1003.32,584.812 1005.15,589.145 1007,593.5C 1007.71,594.381 1008.54,595.047 1009.5,595.5C 1012.66,599.804 1015.82,604.137 1019,608.5C 1021.38,614.584 1024.21,620.25 1027.5,625.5C 1028.17,628.673 1029.34,631.673 1031,634.5C 1034.37,638.693 1037.87,642.693 1041.5,646.5C 1044.05,650.26 1046.05,654.26 1047.5,658.5C 1047.54,661.805 1048.87,663.971 1051.5,665C 1055.39,660.395 1058.05,655.228 1059.5,649.5C 1060.82,646.572 1062.15,643.572 1063.5,640.5C 1065.72,639.797 1067.55,638.464 1069,636.5C 1071.67,630.359 1074.5,624.359 1077.5,618.5C 1078.8,615.899 1080.13,613.232 1081.5,610.5C 1087.04,607.093 1089.7,602.093 1089.5,595.5C 1091.57,591.7 1093.9,588.034 1096.5,584.5C 1100.41,579.055 1104.57,573.721 1109,568.5C 1115.03,558.571 1120.2,548.238 1124.5,537.5C 1126.04,534.443 1128.21,531.776 1131,529.5C 1131.29,527.048 1131.96,524.715 1133,522.5C 1138,517.828 1140.84,512.161 1141.5,505.5C 1142.86,503.15 1144.19,500.816 1145.5,498.5C 1150.37,494.46 1153.87,489.46 1156,483.5C 1157.52,481.76 1159.02,480.094 1160.5,478.5C 1161.62,473.236 1163.62,468.236 1166.5,463.5C 1167.46,463.047 1168.29,462.381 1169,461.5C 1172.71,451.478 1178.37,442.811 1186,435.5C 1186.5,433.527 1186.66,431.527 1186.5,429.5C 1186.5,429.167 1186.5,428.833 1186.5,428.5C 1187.87,426.75 1188.87,424.75 1189.5,422.5C 1192.55,420.451 1194.88,417.784 1196.5,414.5C 1196.35,407.467 1199.35,402.134 1205.5,398.5C 1206.5,398.586 1207.33,398.252 1208,397.5C 1209.4,393.025 1211.57,389.025 1214.5,385.5C 1215.63,381.317 1216.63,376.983 1217.5,372.5C 1219.32,370.882 1220.65,368.882 1221.5,366.5C 1223.45,365.284 1224.95,363.618 1226,361.5C 1232.49,348.512 1239.49,335.845 1247,323.5C 1248.67,321.004 1250.5,318.671 1252.5,316.5C 1254.73,315.599 1255.73,313.933 1255.5,311.5C 1256.36,307.269 1258.36,303.603 1261.5,300.5C 1262.46,300.047 1263.29,299.381 1264,298.5C 1266.23,291.711 1269.23,285.377 1273,279.5C 1275.37,277.297 1277.54,274.963 1279.5,272.5C 1280.17,271.5 1280.83,270.5 1281.5,269.5C 1281.74,263.79 1283.41,258.457 1286.5,253.5C 1288.37,252.737 1290.04,251.737 1291.5,250.5C 1291.53,244.761 1293.53,239.761 1297.5,235.5C 1301.89,231.071 1305.55,226.071 1308.5,220.5C 1310.13,219.375 1311.63,218.041 1313,216.5C 1314.31,212.382 1315.81,208.382 1317.5,204.5C 1318.74,203.035 1319.74,201.368 1320.5,199.5C 1324.01,197.575 1325.34,194.575 1324.5,190.5C 1325.44,185.952 1327.44,181.952 1330.5,178.5C 1332.77,175.729 1335.27,173.062 1338,170.5C 1338.79,166.259 1340.62,162.592 1343.5,159.5C 1346.06,155.755 1348.89,152.089 1352,148.5C 1352.48,144.533 1353.82,140.866 1356,137.5C 1359.33,130.185 1363.66,123.518 1369,117.5C 1370.59,113.328 1372.42,109.328 1374.5,105.5C 1378.13,97.5688 1381.8,89.5688 1385.5,81.5C 1386.74,80.0351 1387.74,78.3684 1388.5,76.5C 1390.84,74.9962 1392.67,72.9962 1394,70.5C 1396.78,65.9384 1399.28,61.2717 1401.5,56.5C 1402.88,53.4058 1404.55,50.4058 1406.5,47.5C 1406.5,47.1667 1406.5,46.8333 1406.5,46.5C 1408.13,45.3747 1409.63,44.0414 1411,42.5C 1412.67,38.4758 1414.84,34.8092 1417.5,31.5C 1421,27.1731 1424,22.5064 1426.5,17.5C 1429.25,14.2375 1431.25,10.5708 1432.5,6.5C 1433.97,5.56366 1434.97,4.23033 1435.5,2.5C 1517.17,2.5 1598.83,2.5 1680.5,2.5C 1681.09,5.61035 1681.76,8.61035 1682.5,11.5C 1679.96,13.9272 1678.46,16.9272 1678,20.5C 1674.8,21.5693 1673.8,23.5693 1675,26.5C 1673.11,27.9301 1671.45,29.5968 1670,31.5C 1668.4,34.6711 1667.07,38.0044 1666,41.5C 1661.9,45.8928 1659.06,50.8928 1657.5,56.5C 1656.5,56.5 1655.5,56.5 1654.5,56.5C 1654.5,58.5 1654.5,60.5 1654.5,62.5C 1653.5,62.5 1652.5,62.5 1651.5,62.5C 1650.03,65.3181 1649.03,68.3181 1648.5,71.5C 1647.5,71.5 1646.5,71.5 1645.5,71.5C 1647.19,74.8128 1646.19,76.8128 1642.5,77.5C 1640.97,82.2413 1639.13,86.908 1637,91.5C 1635.79,92.0712 1634.63,92.7379 1633.5,93.5C 1633.83,94.1667 1634.17,94.8333 1634.5,95.5C 1633.15,96.8543 1631.81,98.1877 1630.5,99.5C 1629.09,99.9731 1628.43,100.973 1628.5,102.5C 1627.33,103.514 1626.66,104.847 1626.5,106.5C 1625.83,106.5 1625.5,106.833 1625.5,107.5C 1624.26,108.965 1623.26,110.632 1622.5,112.5C 1619.84,114.835 1618.5,117.835 1618.5,121.5C 1617.5,121.833 1616.83,122.5 1616.5,123.5C 1615.33,124.514 1614.66,125.847 1614.5,127.5C 1611.88,132.705 1608.72,137.705 1605,142.5C 1603.93,145.996 1602.6,149.329 1601,152.5C 1598.06,156.068 1595.4,159.734 1593,163.5C 1593,164.833 1593,166.167 1593,167.5C 1590.67,168.5 1589,170.167 1588,172.5C 1586.28,175.623 1585.11,178.956 1584.5,182.5C 1583.5,182.5 1582.5,182.5 1581.5,182.5C 1581.5,186.779 1579.67,190.113 1576,192.5C 1575.51,194.134 1575.34,195.801 1575.5,197.5C 1574.5,197.5 1573.5,197.5 1572.5,197.5C 1572.5,199.5 1572.5,201.5 1572.5,203.5C 1571.5,203.5 1570.5,203.5 1569.5,203.5C 1568.03,206.318 1567.03,209.318 1566.5,212.5C 1565.5,212.5 1564.5,212.5 1563.5,212.5C 1563.66,214.199 1563.49,215.866 1563,217.5C 1559.34,222.8 1555.68,228.134 1552,233.5C 1553.2,236.431 1552.2,238.431 1549,239.5C 1545.76,248.012 1541.26,255.678 1535.5,262.5C 1534.55,264.045 1534.21,265.712 1534.5,267.5C 1533.5,267.5 1532.5,267.5 1531.5,267.5C 1531.5,269.5 1531.5,271.5 1531.5,273.5C 1530.5,273.5 1529.5,273.5 1528.5,273.5C 1527.51,276.493 1526.51,279.493 1525.5,282.5C 1524.5,282.5 1523.5,282.5 1522.5,282.5C 1522.5,284.5 1522.5,286.5 1522.5,288.5C 1521.5,288.5 1520.5,288.5 1519.5,288.5C 1519.66,290.199 1519.49,291.866 1519,293.5C 1516.15,297.223 1513.32,300.889 1510.5,304.5C 1511.25,305.736 1511.58,307.07 1511.5,308.5C 1510.18,308.33 1509.01,308.663 1508,309.5C 1506.77,312.381 1505.27,315.047 1503.5,317.5C 1502.53,319.396 1502.2,321.396 1502.5,323.5C 1501.5,323.5 1500.5,323.5 1499.5,323.5C 1499.66,325.199 1499.49,326.866 1499,328.5C 1497.11,329.93 1495.45,331.597 1494,333.5C 1490.97,340.704 1486.97,347.371 1482,353.5C 1481.51,355.134 1481.34,356.801 1481.5,358.5C 1480.5,358.5 1479.5,358.5 1478.5,358.5C 1478.5,360.5 1478.5,362.5 1478.5,364.5C 1477.5,364.5 1476.5,364.5 1475.5,364.5C 1474.58,367.126 1473.58,369.793 1472.5,372.5C 1471.68,373.386 1470.68,373.719 1469.5,373.5C 1469.42,374.93 1469.75,376.264 1470.5,377.5C 1467.58,380.987 1464.75,384.654 1462,388.5C 1461.51,390.134 1461.34,391.801 1461.5,393.5C 1460.5,393.5 1459.5,393.5 1458.5,393.5C 1458.66,395.199 1458.49,396.866 1458,398.5C 1454.19,400.795 1452.36,404.128 1452.5,408.5C 1451.5,408.5 1450.5,408.5 1449.5,408.5C 1449.5,410.5 1449.5,412.5 1449.5,414.5C 1448.5,414.5 1447.5,414.5 1446.5,414.5C 1446.66,415.873 1446.49,417.207 1446,418.5C 1441.82,423.206 1438.65,428.539 1436.5,434.5C 1433.91,437.782 1431.41,441.116 1429,444.5C 1430.2,447.431 1429.2,449.431 1426,450.5C 1425.19,453.623 1423.69,456.289 1421.5,458.5C 1419.98,462.192 1418.65,465.859 1417.5,469.5C 1416.5,469.5 1415.5,469.5 1414.5,469.5C 1413.03,472.318 1412.03,475.318 1411.5,478.5C 1410.5,478.5 1409.5,478.5 1408.5,478.5C 1408.5,480.5 1408.5,482.5 1408.5,484.5C 1407.5,484.5 1406.5,484.5 1405.5,484.5C 1404.78,488.404 1402.94,491.737 1400,494.5C 1399.51,496.134 1399.34,497.801 1399.5,499.5C 1398.5,499.5 1397.5,499.5 1396.5,499.5C 1396.66,501.199 1396.49,502.866 1396,504.5C 1393.17,508.157 1390.34,511.823 1387.5,515.5C 1388.25,516.736 1388.58,518.07 1388.5,519.5C 1387.18,519.33 1386.01,519.663 1385,520.5C 1381.25,526.517 1378.25,532.85 1376,539.5C 1372.76,542.332 1370.26,545.665 1368.5,549.5C 1367.55,551.045 1367.21,552.712 1367.5,554.5C 1366.5,554.5 1365.5,554.5 1364.5,554.5C 1364.5,558.779 1362.67,562.113 1359,564.5C 1358.51,566.134 1358.34,567.801 1358.5,569.5C 1357.5,569.5 1356.5,569.5 1355.5,569.5C 1355.5,571.5 1355.5,573.5 1355.5,575.5C 1354.5,575.5 1353.5,575.5 1352.5,575.5C 1351.71,579.693 1349.71,583.193 1346.5,586C 1348.16,589.15 1347.16,590.65 1343.5,590.5C 1343.58,594.264 1342.08,597.264 1339,599.5C 1338.51,601.134 1338.34,602.801 1338.5,604.5C 1337.5,604.5 1336.5,604.5 1335.5,604.5C 1335.5,606.5 1335.5,608.5 1335.5,610.5C 1334.32,610.281 1333.32,610.614 1332.5,611.5C 1330.51,613.816 1329.51,616.482 1329.5,619.5C 1328.5,619.5 1327.5,619.5 1326.5,619.5C 1326.5,621.5 1326.5,623.5 1326.5,625.5C 1325.5,625.5 1324.5,625.5 1323.5,625.5C 1323.5,627.167 1323.5,628.833 1323.5,630.5C 1322.5,630.5 1321.5,630.5 1320.5,630.5C 1319.03,633.318 1318.03,636.318 1317.5,639.5C 1316.5,639.5 1315.5,639.5 1314.5,639.5C 1314.5,641.5 1314.5,643.5 1314.5,645.5C 1313.5,645.5 1312.5,645.5 1311.5,645.5C 1310.99,649.525 1309.15,652.858 1306,655.5C 1305.51,656.549 1305.67,657.549 1306.5,658.5C 1305.17,659.833 1303.83,661.167 1302.5,662.5C 1302.71,663.086 1303.04,663.586 1303.5,664C 1298.71,668.678 1295.71,674.178 1294.5,680.5C 1293.5,680.5 1292.5,680.5 1291.5,680.5C 1290.76,683.634 1289.76,686.634 1288.5,689.5C 1287.5,689.5 1286.5,689.5 1285.5,689.5C 1285.5,691.5 1285.5,693.5 1285.5,695.5C 1284.5,695.5 1283.5,695.5 1282.5,695.5C 1282.5,699.779 1280.67,703.113 1277,705.5C 1276.51,707.134 1276.34,708.801 1276.5,710.5C 1275.5,710.5 1274.5,710.5 1273.5,710.5C 1273.66,712.199 1273.49,713.866 1273,715.5C 1270.34,718.827 1267.67,722.16 1265,725.5C 1266.2,728.431 1265.2,730.431 1262,731.5C 1261.38,732.449 1261.55,733.282 1262.5,734C 1257.95,738.74 1254.78,744.24 1253,750.5C 1248.75,754.8 1245.92,759.8 1244.5,765.5C 1243.5,765.5 1242.5,765.5 1241.5,765.5C 1241.5,767.5 1241.5,769.5 1241.5,771.5C 1240.5,771.5 1239.5,771.5 1238.5,771.5C 1237.03,774.318 1236.03,777.318 1235.5,780.5C 1234.5,780.5 1233.5,780.5 1232.5,780.5C 1232.5,782.5 1232.5,784.5 1232.5,786.5C 1231.5,786.5 1230.5,786.5 1229.5,786.5C 1229.66,787.873 1229.49,789.207 1229,790.5C 1227.38,793.013 1225.55,795.346 1223.5,797.5C 1224.43,799.322 1223.76,800.655 1221.5,801.5C 1218.82,805.534 1216.65,809.868 1215,814.5C 1213.75,815.211 1212.58,816.044 1211.5,817C 1212.38,818.356 1212.71,819.856 1212.5,821.5C 1209.64,821.513 1208.64,822.679 1209.5,825C 1204.98,829.814 1201.65,835.314 1199.5,841.5C 1196.51,843.806 1194.85,846.806 1194.5,850.5C 1193.5,850.5 1192.5,850.5 1191.5,850.5C 1191.5,852.5 1191.5,854.5 1191.5,856.5C 1190.5,856.5 1189.5,856.5 1188.5,856.5C 1188.66,858.199 1188.49,859.866 1188,861.5C 1186.09,863.446 1184.26,865.446 1182.5,867.5C 1183.53,870.057 1182.53,871.391 1179.5,871.5C 1179.33,872.822 1179.66,873.989 1180.5,875C 1175.81,879.711 1172.81,885.211 1171.5,891.5C 1170.5,891.5 1169.5,891.5 1168.5,891.5C 1168.2,895.643 1166.37,898.976 1163,901.5C 1162.51,903.134 1162.34,904.801 1162.5,906.5C 1161.5,906.5 1160.5,906.5 1159.5,906.5C 1159.02,910.724 1157.18,914.391 1154,917.5C 1153.51,918.793 1153.34,920.127 1153.5,921.5C 1152.5,921.5 1151.5,921.5 1150.5,921.5C 1150.66,923.199 1150.49,924.866 1150,926.5C 1146.05,932.51 1142.21,938.176 1138.5,943.5C 1139.82,946.057 1138.99,947.724 1136,948.5C 1134.14,953.011 1132.14,957.344 1130,961.5C 1128.75,962.211 1127.58,963.044 1126.5,964C 1127.45,964.718 1127.62,965.551 1127,966.5C 1123.33,968.887 1121.5,972.221 1121.5,976.5C 1120.5,976.5 1119.5,976.5 1118.5,976.5C 1118.5,978.5 1118.5,980.5 1118.5,982.5C 1117.5,982.5 1116.5,982.5 1115.5,982.5C 1114.03,985.318 1113.03,988.318 1112.5,991.5C 1111.5,991.5 1110.5,991.5 1109.5,991.5C 1109.5,993.5 1109.5,995.5 1109.5,997.5C 1108.5,997.5 1107.5,997.5 1106.5,997.5C 1106.79,999.288 1106.45,1000.95 1105.5,1002.5C 1102.83,1006.18 1100.17,1009.85 1097.5,1013.5C 1098.82,1016.06 1097.99,1017.72 1095,1018.5C 1093.77,1021.38 1092.27,1024.05 1090.5,1026.5C 1089.53,1028.4 1089.2,1030.4 1089.5,1032.5C 1086.31,1032.18 1085.31,1033.34 1086.5,1036C 1081.81,1040.71 1078.81,1046.21 1077.5,1052.5C 1076.5,1052.5 1075.5,1052.5 1074.5,1052.5C 1073.78,1056.4 1071.94,1059.74 1069,1062.5C 1068.51,1064.13 1068.34,1065.8 1068.5,1067.5C 1067.5,1067.5 1066.5,1067.5 1065.5,1067.5C 1065.66,1069.2 1065.49,1070.87 1065,1072.5C 1062.16,1074.85 1060.32,1077.85 1059.5,1081.5C 1058.68,1082.39 1057.68,1082.72 1056.5,1082.5C 1057.05,1084.33 1057.05,1086 1056.5,1087.5C 1054.86,1089.15 1053.02,1090.49 1051,1091.5C 1049.01,1090.24 1047.01,1088.9 1045,1087.5C 1044.61,1083.75 1042.94,1080.75 1040,1078.5C 1039.51,1076.87 1039.34,1075.2 1039.5,1073.5C 1038.5,1073.5 1037.5,1073.5 1036.5,1073.5C 1036.02,1069.28 1034.18,1065.61 1031,1062.5C 1030.51,1061.21 1030.34,1059.87 1030.5,1058.5C 1029.5,1058.5 1028.5,1058.5 1027.5,1058.5C 1026.89,1054.96 1025.72,1051.62 1024,1048.5C 1022.55,1046.6 1020.89,1044.93 1019,1043.5C 1018.51,1041.87 1018.34,1040.2 1018.5,1038.5C 1017.5,1038.5 1016.5,1038.5 1015.5,1038.5C 1015.28,1033.84 1013.28,1030 1009.5,1027C 1010.69,1024.34 1009.69,1023.18 1006.5,1023.5C 1008.5,1020.16 1007.66,1017.83 1004,1016.5C 1002.77,1013.62 1001.27,1010.95 999.5,1008.5C 998.548,1006.95 998.215,1005.29 998.5,1003.5C 997.5,1003.5 996.5,1003.5 995.5,1003.5C 995.504,999.221 993.671,995.887 990,993.5C 989.506,991.866 989.34,990.199 989.5,988.5C 988.5,988.5 987.5,988.5 986.5,988.5C 986.5,986.5 986.5,984.5 986.5,982.5C 985.5,982.5 984.5,982.5 983.5,982.5C 982.03,979.682 981.03,976.682 980.5,973.5C 979.5,973.5 978.5,973.5 977.5,973.5C 976.888,969.956 975.721,966.623 974,963.5C 973,961.167 971.333,959.5 969,958.5C 968.316,957.216 968.483,956.049 969.5,955C 968.421,954.044 967.255,953.211 966,952.5C 964.257,948.016 962.257,943.683 960,939.5C 957.013,938.724 956.18,937.057 957.5,934.5C 952.988,929.911 949.988,924.578 948.5,918.5C 947.5,918.5 946.5,918.5 945.5,918.5C 945.504,914.221 943.671,910.887 940,908.5C 939.506,906.866 939.34,905.199 939.5,903.5C 938.5,903.5 937.5,903.5 936.5,903.5C 936.5,901.5 936.5,899.5 936.5,897.5C 935.5,897.5 934.5,897.5 933.5,897.5C 933.186,893.161 931.186,890.161 927.5,888.5C 926.191,882.211 923.191,876.711 918.5,872C 919.337,870.989 919.67,869.822 919.5,868.5C 916.466,868.391 915.466,867.057 916.5,864.5C 914.74,862.446 912.907,860.446 911,858.5C 910.506,856.866 910.34,855.199 910.5,853.5C 909.5,853.5 908.5,853.5 907.5,853.5C 907.5,851.5 907.5,849.5 907.5,847.5C 906.5,847.5 905.5,847.5 904.5,847.5C 904.167,843.65 902.334,840.65 899,838.5C 898.506,836.866 898.34,835.199 898.5,833.5C 897.5,833.5 896.5,833.5 895.5,833.5C 895.554,828.925 893.721,825.258 890,822.5C 889.51,821.207 889.343,819.873 889.5,818.5C 888.5,818.5 887.5,818.5 886.5,818.5C 886.799,816.396 886.466,814.396 885.5,812.5C 883.598,810.133 882.265,807.466 881.5,804.5C 878.868,798.91 876.535,793.244 874.5,787.5C 872.952,783.402 871.119,779.402 869,775.5C 867.293,774.862 865.46,774.862 863.5,775.5C 861.15,773.787 860.15,771.453 860.5,768.5C 859.5,768.5 858.5,768.5 857.5,768.5C 857.66,766.801 857.494,765.134 857,763.5C 855.111,759.768 852.611,756.435 849.5,753.5C 848.548,751.955 848.215,750.288 848.5,748.5C 847.5,748.5 846.5,748.5 845.5,748.5C 845.799,746.396 845.466,744.396 844.5,742.5C 841.959,740.449 840.459,737.783 840,734.5C 838.989,733.663 837.822,733.33 836.5,733.5C 836.421,732.07 836.754,730.736 837.5,729.5C 832.988,724.911 829.988,719.578 828.5,713.5C 827.5,713.5 826.5,713.5 825.5,713.5C 825.66,711.801 825.494,710.134 825,708.5C 821.958,705.764 820.125,702.431 819.5,698.5C 818.5,698.5 817.5,698.5 816.5,698.5C 816.5,696.5 816.5,694.5 816.5,692.5C 815.5,692.5 814.5,692.5 813.5,692.5C 812.241,689.634 811.241,686.634 810.5,683.5C 809.5,683.5 808.5,683.5 807.5,683.5C 806.191,677.211 803.191,671.711 798.5,667C 799.601,664.708 798.768,663.208 796,662.5C 795.316,661.216 795.483,660.049 796.5,659C 791.907,654.636 788.74,649.47 787,643.5C 783.092,639.007 780.259,634.007 778.5,628.5C 777.5,628.5 776.5,628.5 775.5,628.5C 775.66,626.801 775.494,625.134 775,623.5C 771.958,620.764 770.125,617.431 769.5,613.5C 768.5,613.5 767.5,613.5 766.5,613.5C 766.5,611.5 766.5,609.5 766.5,607.5C 765.5,607.5 764.5,607.5 763.5,607.5C 763.494,604.482 762.494,601.816 760.5,599.5C 759.675,598.614 758.675,598.281 757.5,598.5C 757.421,597.07 757.754,595.736 758.5,594.5C 757.372,593.738 756.205,593.071 755,592.5C 754.611,588.754 752.944,585.754 750,583.5C 749.506,581.866 749.34,580.199 749.5,578.5C 745.805,577.813 744.805,575.813 746.5,572.5C 745.5,572.5 744.5,572.5 743.5,572.5C 742.03,569.682 741.03,566.682 740.5,563.5C 739.5,563.5 738.5,563.5 737.5,563.5C 737.5,561.5 737.5,559.5 737.5,557.5C 736.5,557.5 735.5,557.5 734.5,557.5C 734.152,553.806 732.485,550.806 729.5,548.5C 728.548,546.955 728.215,545.288 728.5,543.5C 727.5,543.5 726.5,543.5 725.5,543.5C 725.276,538.837 723.276,535.003 719.5,532C 720.694,529.342 719.694,528.176 716.5,528.5C 716.286,526.856 716.62,525.356 717.5,524C 714.254,521.647 712.087,518.48 711,514.5C 709.745,513.789 708.579,512.956 707.5,512C 708.337,510.989 708.67,509.822 708.5,508.5C 707.5,508.5 706.5,508.5 705.5,508.5C 705.66,506.801 705.494,505.134 705,503.5C 701.958,500.764 700.125,497.431 699.5,493.5C 698.5,493.5 697.5,493.5 696.5,493.5C 696.5,491.5 696.5,489.5 696.5,487.5C 695.5,487.5 694.5,487.5 693.5,487.5C 692.03,484.682 691.03,481.682 690.5,478.5C 689.5,478.5 688.5,478.5 687.5,478.5C 687.5,476.5 687.5,474.5 687.5,472.5C 686.5,472.5 685.5,472.5 684.5,472.5C 683.621,468.432 681.621,464.932 678.5,462C 679.62,459.722 678.787,458.222 676,457.5C 674.257,453.016 672.257,448.683 670,444.5C 666.797,443.431 665.797,441.431 667,438.5C 664.59,435.116 662.09,431.782 659.5,428.5C 658.548,426.955 658.215,425.288 658.5,423.5C 657.5,423.5 656.5,423.5 655.5,423.5C 655.66,421.801 655.494,420.134 655,418.5C 651.958,415.764 650.125,412.431 649.5,408.5C 648.5,408.5 647.5,408.5 646.5,408.5C 646.5,406.5 646.5,404.5 646.5,402.5C 645.5,402.5 644.5,402.5 643.5,402.5C 643.494,399.482 642.494,396.816 640.5,394.5C 639.675,393.614 638.675,393.281 637.5,393.5C 637.66,391.801 637.494,390.134 637,388.5C 634.963,384.123 632.13,380.289 628.5,377C 629.337,375.989 629.67,374.822 629.5,373.5C 626.079,373.762 625.079,372.428 626.5,369.5C 623.179,366.523 621.179,362.856 620.5,358.5C 619.5,358.5 618.5,358.5 617.5,358.5C 617.5,356.5 617.5,354.5 617.5,352.5C 616.5,352.5 615.5,352.5 614.5,352.5C 613.97,349.318 612.97,346.318 611.5,343.5C 610.5,343.5 609.5,343.5 608.5,343.5C 607.288,337.411 604.454,332.078 600,327.5C 599.51,326.207 599.343,324.873 599.5,323.5C 598.5,323.5 597.5,323.5 596.5,323.5C 596.799,321.396 596.466,319.396 595.5,317.5C 593.727,315.047 592.227,312.381 591,309.5C 588.013,308.724 587.18,307.057 588.5,304.5C 587.24,303.618 586.074,302.618 585,301.5C 584.191,298.377 582.691,295.711 580.5,293.5C 579.548,291.955 579.215,290.288 579.5,288.5C 578.5,288.5 577.5,288.5 576.5,288.5C 576.5,286.5 576.5,284.5 576.5,282.5C 575.5,282.5 574.5,282.5 573.5,282.5C 572.03,279.682 571.03,276.682 570.5,273.5C 569.5,273.5 568.5,273.5 567.5,273.5C 567.5,271.5 567.5,269.5 567.5,267.5C 566.5,267.5 565.5,267.5 564.5,267.5C 563.97,264.318 562.97,261.318 561.5,258.5C 560.5,258.5 559.5,258.5 558.5,258.5C 557.149,253.013 554.649,248.013 551,243.5C 551.094,240.499 549.761,238.499 547,237.5C 546.508,236.451 546.674,235.451 547.5,234.5C 544.833,230.833 542.167,227.167 539.5,223.5C 538.029,220.069 536.529,216.736 535,213.5C 531.958,210.764 530.125,207.431 529.5,203.5C 528.5,203.5 527.5,203.5 526.5,203.5C 526.5,201.5 526.5,199.5 526.5,197.5C 525.5,197.5 524.5,197.5 523.5,197.5C 522.97,194.318 521.97,191.318 520.5,188.5C 519.5,188.5 518.5,188.5 517.5,188.5C 517.5,186.5 517.5,184.5 517.5,182.5C 516.5,182.5 515.5,182.5 514.5,182.5C 513.825,178.147 511.825,174.48 508.5,171.5C 508.709,170.914 509.043,170.414 509.5,170C 506.358,168.55 504.692,166.05 504.5,162.5C 501.176,157.813 498.842,152.813 497.5,147.5C 496.5,147.5 495.5,147.5 494.5,147.5C 493.97,144.318 492.97,141.318 491.5,138.5C 490.5,138.5 489.5,138.5 488.5,138.5C 487.288,132.411 484.454,127.078 480,122.5C 479.51,121.207 479.343,119.873 479.5,118.5C 478.5,118.5 477.5,118.5 476.5,118.5C 476.5,116.5 476.5,114.5 476.5,112.5C 475.5,112.5 474.5,112.5 473.5,112.5C 473.494,109.482 472.494,106.816 470.5,104.5C 469.675,103.614 468.675,103.281 467.5,103.5C 467.421,102.07 467.754,100.736 468.5,99.5C 467.68,97.8888 466.346,97.2222 464.5,97.5C 462.833,92.8333 461.167,88.1667 459.5,83.5C 458.178,83.67 457.011,83.3366 456,82.5C 456.019,80.8925 456.185,79.2259 456.5,77.5C 455.5,77.5 454.5,77.5 453.5,77.5C 452.03,74.6819 451.03,71.6819 450.5,68.5C 449.5,68.5 448.5,68.5 447.5,68.5C 447.5,66.5 447.5,64.5 447.5,62.5C 446.5,62.5 445.5,62.5 444.5,62.5C 443.97,59.3181 442.97,56.3181 441.5,53.5C 440.5,53.5 439.5,53.5 438.5,53.5C 437.278,47.1395 434.278,41.6395 429.5,37C 430.361,34.6793 429.361,33.5126 426.5,33.5C 426.286,31.8561 426.62,30.3561 427.5,29C 426.421,28.044 425.255,27.2106 424,26.5C 422.175,21.9975 420.175,17.6641 418,13.5C 416.644,12.6198 415.144,12.2865 413.5,12.5C 413.5,9.16667 413.5,5.83333 413.5,2.5C 497.5,2.5 581.5,2.5 665.5,2.5 Z"/></g>
<g><path style="opacity:0.606" fill="#2a468b" d="M 1430.5,2.5 C 1430.5,3.5 1430.5,4.5 1430.5,5.5C 1429.83,5.83333 1429.17,6.16667 1428.5,6.5C 1427.51,6.67158 1426.84,6.33825 1426.5,5.5C 1351,4.33444 1275.33,4.16777 1199.5,5C 1196.06,11.4332 1192.23,17.5998 1188,23.5C 1187.67,24.8333 1187.33,26.1667 1187,27.5C 1184.37,29.4437 1182.2,31.777 1180.5,34.5C 1180.2,33.8501 1179.86,33.1835 1179.5,32.5C 1181.3,31.3049 1182.3,29.6382 1182.5,27.5C 1183.5,27.5 1184.5,27.5 1185.5,27.5C 1185.5,25.5 1185.5,23.5 1185.5,21.5C 1186.5,21.5 1187.5,21.5 1188.5,21.5C 1188.34,19.8008 1188.51,18.1341 1189,16.5C 1190.71,15.6921 1191.54,14.3588 1191.5,12.5C 1192.5,12.5 1193.5,12.5 1194.5,12.5C 1194.5,10.5 1194.5,8.5 1194.5,6.5C 1195.5,6.5 1196.5,6.5 1197.5,6.5C 1197.5,5.16667 1197.5,3.83333 1197.5,2.5C 1275.17,2.5 1352.83,2.5 1430.5,2.5 Z"/></g>
<g><path style="opacity:0.61" fill="#3083a0" d="M 1430.5,2.5 C 1432.17,2.5 1433.83,2.5 1435.5,2.5C 1434.97,4.23033 1433.97,5.56366 1432.5,6.5C 1432.16,5.66175 1431.49,5.32842 1430.5,5.5C 1430.5,4.5 1430.5,3.5 1430.5,2.5 Z"/></g>
<g><path style="opacity:0.159" fill="#2f80a8" d="M 1680.5,2.5 C 1682.17,2.5 1683.83,2.5 1685.5,2.5C 1685.81,5.24688 1685.48,7.91355 1684.5,10.5C 1683.82,10.8627 1683.15,11.1961 1682.5,11.5C 1681.76,8.61035 1681.09,5.61035 1680.5,2.5 Z"/></g>
<g><path style="opacity:0.847" fill="#2d477d" d="M 672.5,5.5 C 747.999,4.33444 823.666,4.16777 899.5,5C 900.252,5.67076 900.586,6.5041 900.5,7.5C 899.833,7.16667 899.167,6.83333 898.5,6.5C 823.335,5.50074 748.002,5.16741 672.5,5.5 Z"/></g>
<g><path style="opacity:0.847" fill="#2d487e" d="M 1426.5,5.5 C 1351,5.16741 1275.66,5.50074 1200.5,6.5C 1198.43,9.80808 1196.27,13.1414 1194,16.5C 1193.51,17.7932 1193.34,19.1266 1193.5,20.5C 1192.5,20.5 1191.5,20.5 1190.5,20.5C 1189.49,23.0486 1188.66,25.7152 1188,28.5C 1187,29.1667 1186,29.8333 1185,30.5C 1183.34,33.6459 1181.51,36.6459 1179.5,39.5C 1180.04,37.8828 1180.37,36.2161 1180.5,34.5C 1182.2,31.777 1184.37,29.4437 1187,27.5C 1187.33,26.1667 1187.67,24.8333 1188,23.5C 1192.23,17.5998 1196.06,11.4332 1199.5,5C 1275.33,4.16777 1351,4.33444 1426.5,5.5 Z"/></g>
<g><path style="opacity:0.973" fill="#31466a" d="M 672.5,5.5 C 748.002,5.16741 823.335,5.50074 898.5,6.5C 824.164,6.16669 749.83,6.50003 675.5,7.5C 676.907,11.1016 678.74,14.4349 681,17.5C 681.494,19.1341 681.66,20.8008 681.5,22.5C 680.5,22.5 679.5,22.5 678.5,22.5C 676.414,16.7237 673.414,11.3904 669.5,6.5C 670.791,6.73731 671.791,6.40397 672.5,5.5 Z"/></g>
<g><path style="opacity:1" fill="#34485e" d="M 898.5,6.5 C 899.167,6.83333 899.833,7.16667 900.5,7.5C 901.933,9.55817 902.6,11.8915 902.5,14.5C 903.675,14.281 904.675,14.6143 905.5,15.5C 906.706,18.8753 908.54,21.8753 911,24.5C 911.494,26.1341 911.66,27.8008 911.5,29.5C 912.5,29.5 913.5,29.5 914.5,29.5C 918.426,36.2402 921.926,43.2402 925,50.5C 926.333,51.8333 927.667,53.1667 929,54.5C 933.115,62.525 937.782,70.1916 943,77.5C 945.264,83.0239 947.764,88.3572 950.5,93.5C 951.815,95.3159 953.315,96.9825 955,98.5C 960.976,110.612 968.143,121.945 976.5,132.5C 977.558,135.78 979.058,138.78 981,141.5C 981.494,143.134 981.66,144.801 981.5,146.5C 982.822,146.33 983.989,146.663 985,147.5C 988.473,155.132 992.306,162.632 996.5,170C 997.448,170.483 998.448,170.649 999.5,170.5C 999.343,171.873 999.51,173.207 1000,174.5C 1004.8,180.945 1009.13,187.612 1013,194.5C 1013.49,196.134 1013.66,197.801 1013.5,199.5C 1014.5,199.5 1015.5,199.5 1016.5,199.5C 1016.5,201.167 1016.5,202.833 1016.5,204.5C 1017.5,204.5 1018.5,204.5 1019.5,204.5C 1020.04,207.555 1020.87,210.555 1022,213.5C 1023.01,214.337 1024.18,214.67 1025.5,214.5C 1025.5,216.167 1025.5,217.833 1025.5,219.5C 1027.91,219.921 1029.74,221.254 1031,223.5C 1036.04,232.527 1041.04,241.527 1046,250.5C 1047.51,252.919 1049.68,253.919 1052.5,253.5C 1052.24,252.022 1052.57,250.689 1053.5,249.5C 1054.77,247.682 1056.27,246.015 1058,244.5C 1060.1,238.395 1062.93,232.729 1066.5,227.5C 1070,223.672 1072.66,219.339 1074.5,214.5C 1077.74,212.768 1079.57,210.102 1080,206.5C 1084.45,201.962 1087.28,196.629 1088.5,190.5C 1090.46,186.56 1092.96,182.893 1096,179.5C 1095.73,176.099 1097.23,174.433 1100.5,174.5C 1102.41,170.613 1104.25,166.613 1106,162.5C 1110.47,157.888 1113.64,152.555 1115.5,146.5C 1116.9,144.417 1118.57,142.417 1120.5,140.5C 1121.58,137.793 1122.58,135.126 1123.5,132.5C 1124.5,132.5 1125.5,132.5 1126.5,132.5C 1126.5,131.5 1126.5,130.5 1126.5,129.5C 1126.5,129.167 1126.5,128.833 1126.5,128.5C 1128.42,126.621 1130.25,124.621 1132,122.5C 1133.99,116.967 1136.99,111.967 1141,107.5C 1142.35,103.694 1143.85,100.028 1145.5,96.5C 1149.64,90.2374 1153.81,83.904 1158,77.5C 1160.15,71.0408 1163.15,65.0408 1167,59.5C 1168.01,58.6634 1169.18,58.33 1170.5,58.5C 1171.51,55.9514 1172.34,53.2848 1173,50.5C 1174.73,46.5396 1176.9,42.8729 1179.5,39.5C 1181.51,36.6459 1183.34,33.6459 1185,30.5C 1186,29.8333 1187,29.1667 1188,28.5C 1188.66,25.7152 1189.49,23.0486 1190.5,20.5C 1191.5,20.5 1192.5,20.5 1193.5,20.5C 1193.34,19.1266 1193.51,17.7932 1194,16.5C 1196.27,13.1414 1198.43,9.80808 1200.5,6.5C 1274.84,6.16669 1349.17,6.50003 1423.5,7.5C 1416.56,18.3224 1410.56,29.6558 1405.5,41.5C 1406.5,41.5 1407.5,41.5 1408.5,41.5C 1407.06,42.8195 1406.39,44.4862 1406.5,46.5C 1406.5,46.8333 1406.5,47.1667 1406.5,47.5C 1405.84,45.9581 1405.17,44.2914 1404.5,42.5C 1397.26,53.3035 1390.76,64.6368 1385,76.5C 1384.08,77.0465 1383.24,77.7132 1382.5,78.5C 1380.47,81.5272 1379.47,84.8605 1379.5,88.5C 1377.09,88.6941 1376.09,90.0274 1376.5,92.5C 1375.5,92.5 1374.5,92.5 1373.5,92.5C 1374.21,95.8638 1373.04,98.1971 1370,99.5C 1368.17,104.662 1365.5,109.328 1362,113.5C 1361.51,115.134 1361.34,116.801 1361.5,118.5C 1360.5,118.5 1359.5,118.5 1358.5,118.5C 1357.42,122.678 1355.75,126.678 1353.5,130.5C 1353.52,131.726 1353.85,132.726 1354.5,133.5C 1353.98,135.306 1353.31,136.972 1352.5,138.5C 1352.5,137.167 1352.5,135.833 1352.5,134.5C 1351.5,134.5 1350.5,134.5 1349.5,134.5C 1345.55,142.642 1341.22,150.642 1336.5,158.5C 1336.17,159.5 1335.83,160.5 1335.5,161.5C 1335.64,163.03 1336.31,164.03 1337.5,164.5C 1337.17,165.5 1336.5,166.167 1335.5,166.5C 1334.69,165.347 1333.69,165.347 1332.5,166.5C 1331.67,167.5 1330.83,168.5 1330,169.5C 1327.76,172.724 1326.59,176.39 1326.5,180.5C 1325.32,180.281 1324.32,180.614 1323.5,181.5C 1319.19,186.947 1316.02,192.947 1314,199.5C 1312.33,201.5 1310.67,203.5 1309,205.5C 1304.94,213.537 1300.94,221.537 1297,229.5C 1291.8,236.596 1287.13,243.93 1283,251.5C 1282.51,252.793 1282.34,254.127 1282.5,255.5C 1281.5,255.5 1280.5,255.5 1279.5,255.5C 1277.64,261.058 1275.14,266.392 1272,271.5C 1271.22,273.387 1271.39,275.054 1272.5,276.5C 1268.72,283.235 1265.05,289.902 1261.5,296.5C 1261.5,294.833 1261.5,293.167 1261.5,291.5C 1260.5,291.5 1259.5,291.5 1258.5,291.5C 1256.58,296.091 1254.75,300.757 1253,305.5C 1248.77,308.358 1246.94,312.358 1247.5,317.5C 1245.09,317.921 1243.26,319.254 1242,321.5C 1240.75,325.258 1239.25,328.924 1237.5,332.5C 1229.61,342.866 1223.11,354.199 1218,366.5C 1213.33,373.783 1208.67,381.116 1204,388.5C 1203.51,389.793 1203.34,391.127 1203.5,392.5C 1204.5,392.5 1205.5,392.5 1206.5,392.5C 1206.5,392.833 1206.5,393.167 1206.5,393.5C 1205.27,394.306 1204.27,395.306 1203.5,396.5C 1203.5,395.5 1203.5,394.5 1203.5,393.5C 1202.5,393.5 1201.5,393.5 1200.5,393.5C 1200.66,394.873 1200.49,396.207 1200,397.5C 1195.7,401.998 1192.86,407.332 1191.5,413.5C 1190.5,413.5 1189.5,413.5 1188.5,413.5C 1186.64,418.403 1184.98,423.403 1183.5,428.5C 1184.5,428.5 1185.5,428.5 1186.5,428.5C 1186.5,428.833 1186.5,429.167 1186.5,429.5C 1184.48,431.249 1182.82,433.249 1181.5,435.5C 1182.32,433.545 1182.49,431.545 1182,429.5C 1180.21,432.477 1178.05,435.143 1175.5,437.5C 1172.08,443.908 1168.75,450.408 1165.5,457C 1165.84,458.03 1166.5,458.53 1167.5,458.5C 1166.96,460.117 1166.63,461.784 1166.5,463.5C 1166.17,463.5 1165.83,463.5 1165.5,463.5C 1165.5,462.5 1165.5,461.5 1165.5,460.5C 1164.5,460.5 1163.5,460.5 1162.5,460.5C 1161.51,463.493 1160.51,466.493 1159.5,469.5C 1158.32,469.281 1157.32,469.614 1156.5,470.5C 1154.76,473.585 1152.92,476.585 1151,479.5C 1149.38,485.196 1146.55,490.196 1142.5,494.5C 1138.51,503.824 1133.51,512.49 1127.5,520.5C 1125.38,525.229 1123.38,529.896 1121.5,534.5C 1120.5,534.5 1119.5,534.5 1118.5,534.5C 1115.43,541.63 1112.1,548.63 1108.5,555.5C 1104.58,561.67 1100.91,568.003 1097.5,574.5C 1093.7,579.184 1090.86,584.517 1089,590.5C 1087.41,593.218 1085.41,595.551 1083,597.5C 1080.84,602.487 1078.17,607.154 1075,611.5C 1073.82,614.932 1072.65,618.265 1071.5,621.5C 1070.5,621.5 1069.5,621.5 1068.5,621.5C 1065.84,629.031 1062.01,636.031 1057,642.5C 1056.31,644.715 1055.48,646.882 1054.5,649C 1054.68,650.376 1055.35,651.209 1056.5,651.5C 1055.29,654.308 1053.96,656.975 1052.5,659.5C 1053.15,657.565 1053.48,655.565 1053.5,653.5C 1049.62,654.126 1047.79,652.459 1048,648.5C 1043.69,643.826 1040.86,638.493 1039.5,632.5C 1038.5,632.5 1037.5,632.5 1036.5,632.5C 1035.61,629.425 1034.44,626.425 1033,623.5C 1030.97,619.991 1028.8,616.658 1026.5,613.5C 1021.02,605.815 1016.52,597.482 1013,588.5C 1011.03,587.36 1009.19,586.027 1007.5,584.5C 1006.7,584.957 1006.37,585.624 1006.5,586.5C 1005.69,584.78 1004.69,583.113 1003.5,581.5C 1004.5,581.5 1005.5,581.5 1006.5,581.5C 1006.59,578.261 1005.92,575.261 1004.5,572.5C 1003.32,572.719 1002.32,572.386 1001.5,571.5C 999.999,566.105 997.333,561.439 993.5,557.5C 990.904,550.805 987.571,544.472 983.5,538.5C 982.675,537.614 981.675,537.281 980.5,537.5C 980.66,535.801 980.494,534.134 980,532.5C 972.937,520.537 965.771,508.537 958.5,496.5C 956.345,489.809 952.678,483.976 947.5,479C 946.552,478.517 945.552,478.351 944.5,478.5C 943.247,473.814 941.247,469.48 938.5,465.5C 935.636,463.134 933.802,460.134 933,456.5C 932.329,455.748 931.496,455.414 930.5,455.5C 928.654,453.97 927.654,451.97 927.5,449.5C 929.124,451.137 930.124,450.803 930.5,448.5C 926.461,440.534 921.961,432.867 917,425.5C 916.667,424.167 916.333,422.833 916,421.5C 914.333,419.157 912.333,417.157 910,415.5C 906.06,407.081 902.727,398.414 900,389.5C 896.715,386.919 893.548,384.252 890.5,381.5C 889.571,382.689 889.238,384.022 889.5,385.5C 890.5,385.5 891.5,385.5 892.5,385.5C 892.715,387.179 892.048,388.179 890.5,388.5C 887.735,384.545 885.735,380.212 884.5,375.5C 886.178,376.747 887.511,378.414 888.5,380.5C 889.614,379.277 889.781,377.944 889,376.5C 884.191,367.948 879.525,359.281 875,350.5C 873.111,346.768 870.611,343.435 867.5,340.5C 866.548,338.955 866.215,337.288 866.5,335.5C 865.5,335.5 864.5,335.5 863.5,335.5C 862.719,331.688 861.385,328.021 859.5,324.5C 853.342,315.183 847.842,305.517 843,295.5C 838.327,291.154 835.493,285.82 834.5,279.5C 833.5,279.5 832.5,279.5 831.5,279.5C 831.657,278.127 831.49,276.793 831,275.5C 829.012,271.773 827.179,268.107 825.5,264.5C 824.5,264.5 823.5,264.5 822.5,264.5C 821.352,261.265 820.185,257.932 819,254.5C 817.743,252.254 815.91,250.921 813.5,250.5C 813.662,248.473 813.495,246.473 813,244.5C 806.746,237.444 802.246,229.444 799.5,220.5C 798.5,220.5 797.5,220.5 796.5,220.5C 798.465,226.742 800.798,232.742 803.5,238.5C 800.143,232.84 796.643,227.173 793,221.5C 791.864,218.904 791.031,216.237 790.5,213.5C 791.586,213.38 792.253,212.713 792.5,211.5C 788.917,203.326 784.584,195.66 779.5,188.5C 778.548,186.955 778.215,185.288 778.5,183.5C 777.5,183.5 776.5,183.5 775.5,183.5C 775.5,182.167 775.5,180.833 775.5,179.5C 774.5,179.5 773.5,179.5 772.5,179.5C 772.5,180.5 772.5,181.5 772.5,182.5C 772.167,182.5 771.833,182.5 771.5,182.5C 769.615,180.947 768.615,178.947 768.5,176.5C 769.721,177.028 770.887,177.695 772,178.5C 772.667,177.167 772.667,175.833 772,174.5C 768.378,169.397 765.044,164.064 762,158.5C 762.094,155.499 760.761,153.499 758,152.5C 752.671,143.098 747.838,133.432 743.5,123.5C 742.5,123.5 741.5,123.5 740.5,123.5C 740.628,121.345 740.128,119.345 739,117.5C 733.905,108.966 728.571,100.633 723,92.5C 718.631,84.7518 714.631,76.7518 711,68.5C 706.286,61.4677 701.62,54.4677 697,47.5C 695.402,44.3289 694.068,40.9956 693,37.5C 691.743,35.2542 689.91,33.9209 687.5,33.5C 688.007,29.3303 686.341,26.3303 682.5,24.5C 681.614,25.325 681.281,26.325 681.5,27.5C 680.692,25.7798 679.692,24.1131 678.5,22.5C 679.5,22.5 680.5,22.5 681.5,22.5C 681.66,20.8008 681.494,19.1341 681,17.5C 678.74,14.4349 676.907,11.1016 675.5,7.5C 749.83,6.50003 824.164,6.16669 898.5,6.5 Z"/></g>
<g><path style="opacity:0.973" fill="#3bac91" d="M 1430.5,5.5 C 1431.49,5.32842 1432.16,5.66175 1432.5,6.5C 1431.25,10.5708 1429.25,14.2375 1426.5,17.5C 1425.9,17.2648 1425.57,16.7648 1425.5,16C 1426.74,12.2202 1428.41,8.72019 1430.5,5.5 Z"/></g>
<g><path style="opacity:0.945" fill="#378f92" d="M 665.5,2.5 C 666.5,2.5 667.5,2.5 668.5,2.5C 668.433,3.95875 668.766,5.29208 669.5,6.5C 673.414,11.3904 676.414,16.7237 678.5,22.5C 679.692,24.1131 680.692,25.7798 681.5,27.5C 682.141,28.4822 682.807,29.4822 683.5,30.5C 683.043,31.2975 682.376,31.6309 681.5,31.5C 674.884,22.6054 669.55,12.9388 665.5,2.5 Z"/></g>
<g><path style="opacity:0.949" fill="#399088" d="M 1430.5,5.5 C 1428.41,8.72019 1426.74,12.2202 1425.5,16C 1425.57,16.7648 1425.9,17.2648 1426.5,17.5C 1424,22.5064 1421,27.1731 1417.5,31.5C 1416.96,31.44 1416.62,31.1067 1416.5,30.5C 1417.83,27.8016 1419.17,25.135 1420.5,22.5C 1422.78,16.9111 1425.45,11.5778 1428.5,6.5C 1429.17,6.16667 1429.83,5.83333 1430.5,5.5 Z"/></g>
<g><path style="opacity:0.996" fill="#314163" d="M 1200.5,6.5 C 1275.66,5.50074 1351,5.16741 1426.5,5.5C 1426.84,6.33825 1427.51,6.67158 1428.5,6.5C 1425.45,11.5778 1422.78,16.9111 1420.5,22.5C 1419.5,22.4142 1418.67,22.7476 1418,23.5C 1414.57,29.4104 1411.41,35.4104 1408.5,41.5C 1407.5,41.5 1406.5,41.5 1405.5,41.5C 1410.56,29.6558 1416.56,18.3224 1423.5,7.5C 1349.17,6.50003 1274.84,6.16669 1200.5,6.5 Z"/></g>
<g><path style="opacity:0.933" fill="#357c87" d="M 1420.5,22.5 C 1419.17,25.135 1417.83,27.8016 1416.5,30.5C 1416.62,31.1067 1416.96,31.44 1417.5,31.5C 1414.84,34.8092 1412.67,38.4758 1411,42.5C 1409.63,44.0414 1408.13,45.3747 1406.5,46.5C 1406.39,44.4862 1407.06,42.8195 1408.5,41.5C 1411.41,35.4104 1414.57,29.4104 1418,23.5C 1418.67,22.7476 1419.5,22.4142 1420.5,22.5 Z"/></g>
<g><path style="opacity:0.957" fill="#32728c" d="M 681.5,27.5 C 682.496,27.4142 683.329,27.7476 684,28.5C 684.322,32.4931 685.988,35.8264 689,38.5C 689.352,40.2475 689.852,41.9142 690.5,43.5C 689.662,43.8417 689.328,44.5084 689.5,45.5C 687.893,40.2927 685.226,35.626 681.5,31.5C 682.376,31.6309 683.043,31.2975 683.5,30.5C 682.807,29.4822 682.141,28.4822 681.5,27.5 Z"/></g>
<g><path style="opacity:0.957" fill="#379092" d="M 690.5,43.5 C 692.081,45.1417 692.747,47.1417 692.5,49.5C 693.5,49.5 694.5,49.5 695.5,49.5C 695.343,50.8734 695.51,52.2068 696,53.5C 699.755,59.6843 703.588,65.6843 707.5,71.5C 707.672,72.4916 707.338,73.1583 706.5,73.5C 705.542,73.0472 704.708,72.3805 704,71.5C 699.311,62.6717 694.478,54.005 689.5,45.5C 689.328,44.5084 689.662,43.8417 690.5,43.5 Z"/></g>
<g><path style="opacity:0.976" fill="#326a88" d="M 1401.5,56.5 C 1399.28,61.2717 1396.78,65.9384 1394,70.5C 1392.67,72.9962 1390.84,74.9962 1388.5,76.5C 1392.16,68.5071 1396.33,60.8404 1401,53.5C 1401.48,54.448 1401.65,55.448 1401.5,56.5 Z"/></g>
<g><path style="opacity:1" fill="#323c5e" d="M 1406.5,47.5 C 1404.55,50.4058 1402.88,53.4058 1401.5,56.5C 1401.65,55.448 1401.48,54.448 1401,53.5C 1396.33,60.8404 1392.16,68.5071 1388.5,76.5C 1387.74,78.3684 1386.74,80.0351 1385.5,81.5C 1383.72,84.0912 1381.72,86.4245 1379.5,88.5C 1379.47,84.8605 1380.47,81.5272 1382.5,78.5C 1383.24,77.7132 1384.08,77.0465 1385,76.5C 1390.76,64.6368 1397.26,53.3035 1404.5,42.5C 1405.17,44.2914 1405.84,45.9581 1406.5,47.5 Z"/></g>
<g><path style="opacity:0.933" fill="#33758e" d="M 707.5,71.5 C 714.333,81.1546 720.166,91.4879 725,102.5C 727.043,104.208 728.71,106.208 730,108.5C 734.162,116.825 738.329,125.158 742.5,133.5C 741.833,133.5 741.5,133.833 741.5,134.5C 737.108,126.719 732.941,118.719 729,110.5C 727.71,108.208 726.043,106.208 724,104.5C 721.522,96.871 717.522,90.2043 712,84.5C 710.14,80.7802 708.307,77.1136 706.5,73.5C 707.338,73.1583 707.672,72.4916 707.5,71.5 Z"/></g>
<g><path style="opacity:0.984" fill="#336281" d="M 1385.5,81.5 C 1381.8,89.5688 1378.13,97.5688 1374.5,105.5C 1374.57,105.062 1374.4,104.728 1374,104.5C 1372.43,107.107 1370.59,109.441 1368.5,111.5C 1371.56,104.855 1375.06,98.5219 1379,92.5C 1379.49,91.2068 1379.66,89.8734 1379.5,88.5C 1381.72,86.4245 1383.72,84.0912 1385.5,81.5 Z"/></g>
<g><path style="opacity:0.02" fill="#2a70b4" d="M 1630.5,99.5 C 1630.57,101.027 1629.91,102.027 1628.5,102.5C 1628.43,100.973 1629.09,99.9731 1630.5,99.5 Z"/></g>
<g><path style="opacity:1" fill="#323d5c" d="M 1379.5,88.5 C 1379.66,89.8734 1379.49,91.2068 1379,92.5C 1375.06,98.5219 1371.56,104.855 1368.5,111.5C 1364.7,119.346 1360.03,126.679 1354.5,133.5C 1353.85,132.726 1353.52,131.726 1353.5,130.5C 1355.75,126.678 1357.42,122.678 1358.5,118.5C 1359.5,118.5 1360.5,118.5 1361.5,118.5C 1361.34,116.801 1361.51,115.134 1362,113.5C 1365.5,109.328 1368.17,104.662 1370,99.5C 1373.04,98.1971 1374.21,95.8638 1373.5,92.5C 1374.5,92.5 1375.5,92.5 1376.5,92.5C 1376.09,90.0274 1377.09,88.6941 1379.5,88.5 Z"/></g>
<g><path style="opacity:0.008" fill="#2d78af" d="M 1628.5,102.5 C 1628.84,104.483 1628.18,105.817 1626.5,106.5C 1626.66,104.847 1627.33,103.514 1628.5,102.5 Z"/></g>
<g><path style="opacity:0.043" fill="#2c75af" d="M 1625.5,107.5 C 1625.5,109.167 1625.5,110.833 1625.5,112.5C 1624.5,112.5 1623.5,112.5 1622.5,112.5C 1623.26,110.632 1624.26,108.965 1625.5,107.5 Z"/></g>
<g><path style="opacity:0.016" fill="#2d77ae" d="M 1622.5,112.5 C 1622.66,113.873 1622.49,115.207 1622,116.5C 1620.37,117.955 1619.21,119.622 1618.5,121.5C 1618.5,117.835 1619.84,114.835 1622.5,112.5 Z"/></g>
<g><path style="opacity:0.949" fill="#2e4778" d="M 1145.5,96.5 C 1143.85,100.028 1142.35,103.694 1141,107.5C 1136.99,111.967 1133.99,116.967 1132,122.5C 1130.25,124.621 1128.42,126.621 1126.5,128.5C 1132.15,118.257 1137.65,107.924 1143,97.5C 1143.67,96.7476 1144.5,96.4142 1145.5,96.5 Z"/></g>
<g><path style="opacity:0.918" fill="#378c8e" d="M 1374.5,105.5 C 1372.42,109.328 1370.59,113.328 1369,117.5C 1363.66,123.518 1359.33,130.185 1356,137.5C 1353.82,140.866 1352.48,144.533 1352,148.5C 1348.89,152.089 1346.06,155.755 1343.5,159.5C 1342.43,158.749 1342.26,157.749 1343,156.5C 1344.79,153.992 1346.29,151.326 1347.5,148.5C 1349.13,145.233 1350.8,141.9 1352.5,138.5C 1353.31,136.972 1353.98,135.306 1354.5,133.5C 1360.03,126.679 1364.7,119.346 1368.5,111.5C 1370.59,109.441 1372.43,107.107 1374,104.5C 1374.4,104.728 1374.57,105.062 1374.5,105.5 Z"/></g>
<g><path style="opacity:1" fill="#323e60" d="M 768.5,176.5 C 766.969,171.976 765.302,167.642 763.5,163.5C 762.5,163.5 761.5,163.5 760.5,163.5C 758.286,160.766 756.286,157.766 754.5,154.5C 751.606,147.712 748.44,141.045 745,134.5C 744.329,133.748 743.496,133.414 742.5,133.5C 738.329,125.158 734.162,116.825 730,108.5C 728.71,106.208 727.043,104.208 725,102.5C 720.166,91.4879 714.333,81.1546 707.5,71.5C 703.588,65.6843 699.755,59.6843 696,53.5C 695.51,52.2068 695.343,50.8734 695.5,49.5C 694.5,49.5 693.5,49.5 692.5,49.5C 692.747,47.1417 692.081,45.1417 690.5,43.5C 689.852,41.9142 689.352,40.2475 689,38.5C 685.988,35.8264 684.322,32.4931 684,28.5C 683.329,27.7476 682.496,27.4142 681.5,27.5C 681.281,26.325 681.614,25.325 682.5,24.5C 686.341,26.3303 688.007,29.3303 687.5,33.5C 689.91,33.9209 691.743,35.2542 693,37.5C 694.068,40.9956 695.402,44.3289 697,47.5C 701.62,54.4677 706.286,61.4677 711,68.5C 714.631,76.7518 718.631,84.7518 723,92.5C 728.571,100.633 733.905,108.966 739,117.5C 740.128,119.345 740.628,121.345 740.5,123.5C 741.5,123.5 742.5,123.5 743.5,123.5C 747.838,133.432 752.671,143.098 758,152.5C 760.761,153.499 762.094,155.499 762,158.5C 765.044,164.064 768.378,169.397 772,174.5C 772.667,175.833 772.667,177.167 772,178.5C 770.887,177.695 769.721,177.028 768.5,176.5 Z"/></g>
<g><path style="opacity:0.008" fill="#2d76af" d="M 1616.5,123.5 C 1616.84,125.483 1616.18,126.817 1614.5,127.5C 1614.66,125.847 1615.33,124.514 1616.5,123.5 Z"/></g>
<g><path style="opacity:0.937" fill="#2e4778" d="M 1126.5,129.5 C 1126.5,130.5 1126.5,131.5 1126.5,132.5C 1125.5,132.5 1124.5,132.5 1123.5,132.5C 1122.58,135.126 1121.58,137.793 1120.5,140.5C 1118.57,142.417 1116.9,144.417 1115.5,146.5C 1117.53,139.728 1121.19,134.062 1126.5,129.5 Z"/></g>
<g><path style="opacity:1" fill="#323d5d" d="M 1352.5,138.5 C 1350.8,141.9 1349.13,145.233 1347.5,148.5C 1346.85,148.804 1346.18,149.137 1345.5,149.5C 1342.98,154.725 1340.31,159.725 1337.5,164.5C 1336.31,164.03 1335.64,163.03 1335.5,161.5C 1335.83,160.5 1336.17,159.5 1336.5,158.5C 1341.22,150.642 1345.55,142.642 1349.5,134.5C 1350.5,134.5 1351.5,134.5 1352.5,134.5C 1352.5,135.833 1352.5,137.167 1352.5,138.5 Z"/></g>
<g><path style="opacity:0.233" fill="#2b478c" d="M 668.5,2.5 C 746.167,2.5 823.833,2.5 901.5,2.5C 901.5,3.83333 901.5,5.16667 901.5,6.5C 902.5,6.5 903.5,6.5 904.5,6.5C 904.496,10.7794 906.329,14.1127 910,16.5C 910.494,18.1341 910.66,19.8008 910.5,21.5C 911.5,21.5 912.5,21.5 913.5,21.5C 913.169,26.1521 915.169,29.1521 919.5,30.5C 920.811,36.831 923.811,42.331 928.5,47C 927.549,47.7175 927.383,48.5509 928,49.5C 930.41,52.8843 932.91,56.2176 935.5,59.5C 936.387,63.1859 937.887,66.5192 940,69.5C 943.11,72.2453 944.943,75.5786 945.5,79.5C 946.5,79.5 947.5,79.5 948.5,79.5C 948.506,82.5176 949.506,85.1843 951.5,87.5C 952.325,88.3857 953.325,88.719 954.5,88.5C 954.5,90.5 954.5,92.5 954.5,94.5C 955.5,94.5 956.5,94.5 957.5,94.5C 957.506,97.5176 958.506,100.184 960.5,102.5C 961.325,103.386 962.325,103.719 963.5,103.5C 961.504,106.841 962.337,109.174 966,110.5C 967.118,112.765 967.951,115.099 968.5,117.5C 969.822,117.33 970.989,117.663 972,118.5C 971.981,120.107 971.815,121.774 971.5,123.5C 972.5,123.5 973.5,123.5 974.5,123.5C 975.97,126.318 976.97,129.318 977.5,132.5C 978.5,132.5 979.5,132.5 980.5,132.5C 980.5,134.5 980.5,136.5 980.5,138.5C 981.5,138.5 982.5,138.5 983.5,138.5C 984.97,141.318 985.97,144.318 986.5,147.5C 987.5,147.5 988.5,147.5 989.5,147.5C 990.919,153.211 993.752,158.211 998,162.5C 999.266,166.459 1001.43,169.959 1004.5,173C 1003.4,175.292 1004.23,176.792 1007,177.5C 1009.24,181.649 1011.24,185.982 1013,190.5C 1015.4,191.479 1016.24,192.979 1015.5,195C 1018.69,197.976 1020.69,201.476 1021.5,205.5C 1022.5,205.5 1023.5,205.5 1024.5,205.5C 1024.5,209.779 1026.33,213.113 1030,215.5C 1030.49,217.134 1030.66,218.801 1030.5,220.5C 1031.5,220.5 1032.5,220.5 1033.5,220.5C 1033.5,224.779 1035.33,228.113 1039,230.5C 1039.49,232.134 1039.66,233.801 1039.5,235.5C 1040.5,235.5 1041.5,235.5 1042.5,235.5C 1042.44,239.447 1044.11,242.447 1047.5,244.5C 1048.73,245.651 1048.73,246.817 1047.5,248C 1049.68,249.929 1051.35,249.429 1052.5,246.5C 1053.39,242.814 1054.89,239.481 1057,236.5C 1060.67,234.113 1062.5,230.779 1062.5,226.5C 1063.5,226.5 1064.5,226.5 1065.5,226.5C 1065.5,222.221 1067.33,218.887 1071,216.5C 1071.49,214.866 1071.66,213.199 1071.5,211.5C 1072.5,211.5 1073.5,211.5 1074.5,211.5C 1074.73,208.118 1075.73,205.118 1077.5,202.5C 1078.5,202.5 1079.5,202.5 1080.5,202.5C 1080.34,200.801 1080.51,199.134 1081,197.5C 1082.8,194.254 1084.97,191.254 1087.5,188.5C 1087.75,185.267 1089.25,182.934 1092,181.5C 1092.62,180.551 1092.45,179.718 1091.5,179C 1095.28,175.997 1097.28,172.163 1097.5,167.5C 1098.5,167.5 1099.5,167.5 1100.5,167.5C 1100.85,163.806 1102.51,160.806 1105.5,158.5C 1107.66,152.828 1110.83,147.828 1115,143.5C 1115.49,141.866 1115.66,140.199 1115.5,138.5C 1116.5,138.5 1117.5,138.5 1118.5,138.5C 1118.34,136.801 1118.51,135.134 1119,133.5C 1120.91,131.554 1122.74,129.554 1124.5,127.5C 1123.47,124.943 1124.47,123.609 1127.5,123.5C 1129.17,118.833 1130.83,114.167 1132.5,109.5C 1135.36,109.487 1136.36,108.321 1135.5,106C 1137.01,103.991 1138.68,102.158 1140.5,100.5C 1141.47,98.604 1141.8,96.604 1141.5,94.5C 1142.5,94.5 1143.5,94.5 1144.5,94.5C 1145.03,91.3181 1146.03,88.3181 1147.5,85.5C 1148.5,85.5 1149.5,85.5 1150.5,85.5C 1150.5,83.5 1150.5,81.5 1150.5,79.5C 1151.5,79.5 1152.5,79.5 1153.5,79.5C 1153.34,78.1266 1153.51,76.7932 1154,75.5C 1158.07,71.16 1161.07,66.16 1163,60.5C 1164.45,58.5968 1166.11,56.9301 1168,55.5C 1166.8,52.5693 1167.8,50.5693 1171,49.5C 1173.26,45.3168 1175.26,40.9835 1177,36.5C 1178.11,35.695 1179.28,35.0283 1180.5,34.5C 1180.37,36.2161 1180.04,37.8828 1179.5,39.5C 1176.9,42.8729 1174.73,46.5396 1173,50.5C 1172.34,53.2848 1171.51,55.9514 1170.5,58.5C 1169.18,58.33 1168.01,58.6634 1167,59.5C 1163.15,65.0408 1160.15,71.0408 1158,77.5C 1153.81,83.904 1149.64,90.2374 1145.5,96.5C 1144.5,96.4142 1143.67,96.7476 1143,97.5C 1137.65,107.924 1132.15,118.257 1126.5,128.5C 1126.5,128.833 1126.5,129.167 1126.5,129.5C 1121.19,134.062 1117.53,139.728 1115.5,146.5C 1113.64,152.555 1110.47,157.888 1106,162.5C 1104.25,166.613 1102.41,170.613 1100.5,174.5C 1097.23,174.433 1095.73,176.099 1096,179.5C 1092.96,182.893 1090.46,186.56 1088.5,190.5C 1083.93,198.341 1078.93,206.007 1073.5,213.5C 1071.14,218.181 1068.81,222.847 1066.5,227.5C 1062.93,232.729 1060.1,238.395 1058,244.5C 1056.27,246.015 1054.77,247.682 1053.5,249.5C 1052.57,250.689 1052.24,252.022 1052.5,253.5C 1049.68,253.919 1047.51,252.919 1046,250.5C 1041.04,241.527 1036.04,232.527 1031,223.5C 1029.74,221.254 1027.91,219.921 1025.5,219.5C 1025.5,217.833 1025.5,216.167 1025.5,214.5C 1024.18,214.67 1023.01,214.337 1022,213.5C 1020.87,210.555 1020.04,207.555 1019.5,204.5C 1018.5,204.5 1017.5,204.5 1016.5,204.5C 1016.5,202.833 1016.5,201.167 1016.5,199.5C 1015.5,199.5 1014.5,199.5 1013.5,199.5C 1013.66,197.801 1013.49,196.134 1013,194.5C 1009.13,187.612 1004.8,180.945 1000,174.5C 999.51,173.207 999.343,171.873 999.5,170.5C 998.448,170.649 997.448,170.483 996.5,170C 992.306,162.632 988.473,155.132 985,147.5C 983.989,146.663 982.822,146.33 981.5,146.5C 981.66,144.801 981.494,143.134 981,141.5C 979.058,138.78 977.558,135.78 976.5,132.5C 968.143,121.945 960.976,110.612 955,98.5C 953.315,96.9825 951.815,95.3159 950.5,93.5C 947.764,88.3572 945.264,83.0239 943,77.5C 937.782,70.1916 933.115,62.525 929,54.5C 927.667,53.1667 926.333,51.8333 925,50.5C 921.926,43.2402 918.426,36.2402 914.5,29.5C 913.5,29.5 912.5,29.5 911.5,29.5C 911.66,27.8008 911.494,26.1341 911,24.5C 908.54,21.8753 906.706,18.8753 905.5,15.5C 904.675,14.6143 903.675,14.281 902.5,14.5C 902.6,11.8915 901.933,9.55817 900.5,7.5C 900.586,6.5041 900.252,5.67076 899.5,5C 823.666,4.16777 747.999,4.33444 672.5,5.5C 671.791,6.40397 670.791,6.73731 669.5,6.5C 668.766,5.29208 668.433,3.95875 668.5,2.5 Z"/></g>
<g><path style="opacity:0.922" fill="#389592" d="M 742.5,133.5 C 743.496,133.414 744.329,133.748 745,134.5C 748.44,141.045 751.606,147.712 754.5,154.5C 756.286,157.766 758.286,160.766 760.5,163.5C 761.6,164.605 762.267,165.938 762.5,167.5C 760.381,166.014 758.881,164.014 758,161.5C 757.536,162.094 757.369,162.761 757.5,163.5C 755.099,158.38 751.932,153.714 748,149.5C 745.282,144.731 743.115,139.731 741.5,134.5C 741.5,133.833 741.833,133.5 742.5,133.5 Z"/></g>
<g><path style="opacity:0.937" fill="#357988" d="M 1347.5,148.5 C 1346.29,151.326 1344.79,153.992 1343,156.5C 1342.26,157.749 1342.43,158.749 1343.5,159.5C 1340.62,162.592 1338.79,166.259 1338,170.5C 1335.27,173.062 1332.77,175.729 1330.5,178.5C 1331.57,174.227 1333.23,170.227 1335.5,166.5C 1336.5,166.167 1337.17,165.5 1337.5,164.5C 1340.31,159.725 1342.98,154.725 1345.5,149.5C 1346.18,149.137 1346.85,148.804 1347.5,148.5 Z"/></g>
<g><path style="opacity:0.961" fill="#33637b" d="M 760.5,163.5 C 761.5,163.5 762.5,163.5 763.5,163.5C 765.302,167.642 766.969,171.976 768.5,176.5C 767.504,176.586 766.671,176.252 766,175.5C 765.532,172.404 764.366,169.737 762.5,167.5C 762.267,165.938 761.6,164.605 760.5,163.5 Z"/></g>
<g><path style="opacity:0.973" fill="#3ba892" d="M 762.5,167.5 C 764.366,169.737 765.532,172.404 766,175.5C 766.671,176.252 767.504,176.586 768.5,176.5C 768.615,178.947 769.615,180.947 771.5,182.5C 771.737,183.791 771.404,184.791 770.5,185.5C 769.279,184.972 768.113,184.305 767,183.5C 764.057,176.618 760.89,169.951 757.5,163.5C 757.369,162.761 757.536,162.094 758,161.5C 758.881,164.014 760.381,166.014 762.5,167.5 Z"/></g>
<g><path style="opacity:0.996" fill="#313b5e" d="M 790.5,213.5 C 788.748,210.328 786.748,207.328 784.5,204.5C 782.716,198.276 779.549,192.942 775,188.5C 774.415,186.339 773.582,184.339 772.5,182.5C 772.5,181.5 772.5,180.5 772.5,179.5C 773.5,179.5 774.5,179.5 775.5,179.5C 775.5,180.833 775.5,182.167 775.5,183.5C 776.5,183.5 777.5,183.5 778.5,183.5C 778.215,185.288 778.548,186.955 779.5,188.5C 784.584,195.66 788.917,203.326 792.5,211.5C 792.253,212.713 791.586,213.38 790.5,213.5 Z"/></g>
<g><path style="opacity:0.949" fill="#3aa493" d="M 1324.5,190.5 C 1325.34,194.575 1324.01,197.575 1320.5,199.5C 1319.31,198.295 1319.31,196.961 1320.5,195.5C 1321.83,193.804 1323.17,192.138 1324.5,190.5 Z"/></g>
<g><path style="opacity:0.925" fill="#31638c" d="M 771.5,182.5 C 771.833,182.5 772.167,182.5 772.5,182.5C 773.582,184.339 774.415,186.339 775,188.5C 779.549,192.942 782.716,198.276 784.5,204.5C 780.578,197.671 775.911,191.338 770.5,185.5C 771.404,184.791 771.737,183.791 771.5,182.5 Z"/></g>
<g><path style="opacity:0.973" fill="#357f89" d="M 1320.5,195.5 C 1319.31,196.961 1319.31,198.295 1320.5,199.5C 1319.74,201.368 1318.74,203.035 1317.5,204.5C 1317.59,202.302 1316.92,201.969 1315.5,203.5C 1317.07,200.705 1318.74,198.039 1320.5,195.5 Z"/></g>
<g><path style="opacity:1" fill="#324061" d="M 1335.5,166.5 C 1333.23,170.227 1331.57,174.227 1330.5,178.5C 1327.44,181.952 1325.44,185.952 1324.5,190.5C 1323.17,192.138 1321.83,193.804 1320.5,195.5C 1318.74,198.039 1317.07,200.705 1315.5,203.5C 1315.5,203.833 1315.5,204.167 1315.5,204.5C 1313.49,206.214 1311.82,208.214 1310.5,210.5C 1309.55,212.045 1309.21,213.712 1309.5,215.5C 1308.5,215.414 1307.67,215.748 1307,216.5C 1304.77,221.965 1301.77,226.965 1298,231.5C 1297.51,232.793 1297.34,234.127 1297.5,235.5C 1293.53,239.761 1291.53,244.761 1291.5,250.5C 1291.66,248.801 1291.49,247.134 1291,245.5C 1289.68,248.309 1288.18,250.975 1286.5,253.5C 1283.41,258.457 1281.74,263.79 1281.5,269.5C 1281.66,268.127 1281.49,266.793 1281,265.5C 1279.37,266.955 1278.21,268.622 1277.5,270.5C 1275.36,272.133 1273.69,274.133 1272.5,276.5C 1271.39,275.054 1271.22,273.387 1272,271.5C 1275.14,266.392 1277.64,261.058 1279.5,255.5C 1280.5,255.5 1281.5,255.5 1282.5,255.5C 1282.34,254.127 1282.51,252.793 1283,251.5C 1287.13,243.93 1291.8,236.596 1297,229.5C 1300.94,221.537 1304.94,213.537 1309,205.5C 1310.67,203.5 1312.33,201.5 1314,199.5C 1316.02,192.947 1319.19,186.947 1323.5,181.5C 1324.32,180.614 1325.32,180.281 1326.5,180.5C 1326.59,176.39 1327.76,172.724 1330,169.5C 1330.83,168.5 1331.67,167.5 1332.5,166.5C 1333.69,165.347 1334.69,165.347 1335.5,166.5 Z"/></g>
<g><path style="opacity:0.824" fill="#2e477c" d="M 1088.5,190.5 C 1087.28,196.629 1084.45,201.962 1080,206.5C 1079.57,210.102 1077.74,212.768 1074.5,214.5C 1072.66,219.339 1070,223.672 1066.5,227.5C 1068.81,222.847 1071.14,218.181 1073.5,213.5C 1078.93,206.007 1083.93,198.341 1088.5,190.5 Z"/></g>
<g><path style="opacity:0.945" fill="#367a7f" d="M 1315.5,204.5 C 1314.25,208.611 1312.25,212.277 1309.5,215.5C 1309.21,213.712 1309.55,212.045 1310.5,210.5C 1311.82,208.214 1313.49,206.214 1315.5,204.5 Z"/></g>
<g><path style="opacity:0.965" fill="#3aa596" d="M 1317.5,204.5 C 1315.81,208.382 1314.31,212.382 1313,216.5C 1311.63,218.041 1310.13,219.375 1308.5,220.5C 1307.9,220.265 1307.57,219.765 1307.5,219C 1307.98,217.697 1308.64,216.531 1309.5,215.5C 1312.25,212.277 1314.25,208.611 1315.5,204.5C 1315.5,204.167 1315.5,203.833 1315.5,203.5C 1316.92,201.969 1317.59,202.302 1317.5,204.5 Z"/></g>
<g><path style="opacity:0.957" fill="#357888" d="M 1309.5,215.5 C 1308.64,216.531 1307.98,217.697 1307.5,219C 1307.57,219.765 1307.9,220.265 1308.5,220.5C 1305.55,226.071 1301.89,231.071 1297.5,235.5C 1297.34,234.127 1297.51,232.793 1298,231.5C 1301.77,226.965 1304.77,221.965 1307,216.5C 1307.67,215.748 1308.5,215.414 1309.5,215.5 Z"/></g>
<g><path style="opacity:0.902" fill="#34778d" d="M 1291.5,250.5 C 1290.04,251.737 1288.37,252.737 1286.5,253.5C 1288.18,250.975 1289.68,248.309 1291,245.5C 1291.49,247.134 1291.66,248.801 1291.5,250.5 Z"/></g>
<g><path style="opacity:0.953" fill="#3aa590" d="M 1281.5,269.5 C 1280.83,270.5 1280.17,271.5 1279.5,272.5C 1278.17,272.5 1277.5,271.833 1277.5,270.5C 1278.21,268.622 1279.37,266.955 1281,265.5C 1281.49,266.793 1281.66,268.127 1281.5,269.5 Z"/></g>
<g><path style="opacity:0.984" fill="#35798b" d="M 1277.5,270.5 C 1277.5,271.833 1278.17,272.5 1279.5,272.5C 1277.54,274.963 1275.37,277.297 1273,279.5C 1269.23,285.377 1266.23,291.711 1264,298.5C 1263.29,299.381 1262.46,300.047 1261.5,300.5C 1260.62,300.631 1259.96,300.298 1259.5,299.5C 1260.19,298.482 1260.86,297.482 1261.5,296.5C 1265.05,289.902 1268.72,283.235 1272.5,276.5C 1273.69,274.133 1275.36,272.133 1277.5,270.5 Z"/></g>
<g><path style="opacity:0.949" fill="#347c91" d="M 834.5,293.5 C 828.737,285.372 823.737,276.706 819.5,267.5C 820.077,266.227 820.743,266.227 821.5,267.5C 826.139,276.008 831.139,284.341 836.5,292.5C 836.043,293.298 835.376,293.631 834.5,293.5 Z"/></g>
<g><path style="opacity:0.969" fill="#369092" d="M 1255.5,311.5 C 1255.73,313.933 1254.73,315.599 1252.5,316.5C 1251.6,315.791 1251.26,314.791 1251.5,313.5C 1253.83,312.31 1254.99,310.31 1255,307.5C 1255.49,308.793 1255.66,310.127 1255.5,311.5 Z"/></g>
<g><path style="opacity:0.937" fill="#326386" d="M 1251.5,313.5 C 1251.26,314.791 1251.6,315.791 1252.5,316.5C 1250.5,318.671 1248.67,321.004 1247,323.5C 1239.49,335.845 1232.49,348.512 1226,361.5C 1224.95,363.618 1223.45,365.284 1221.5,366.5C 1230.78,348.26 1240.78,330.593 1251.5,313.5 Z"/></g>
<g><path style="opacity:1" fill="#323c5e" d="M 1261.5,296.5 C 1260.86,297.482 1260.19,298.482 1259.5,299.5C 1259.96,300.298 1260.62,300.631 1261.5,300.5C 1258.36,303.603 1256.36,307.269 1255.5,311.5C 1255.66,310.127 1255.49,308.793 1255,307.5C 1254.99,310.31 1253.83,312.31 1251.5,313.5C 1240.78,330.593 1230.78,348.26 1221.5,366.5C 1220.65,368.882 1219.32,370.882 1217.5,372.5C 1216.26,374.611 1214.76,376.611 1213,378.5C 1210.56,383.04 1208.4,387.707 1206.5,392.5C 1205.5,392.5 1204.5,392.5 1203.5,392.5C 1203.34,391.127 1203.51,389.793 1204,388.5C 1208.67,381.116 1213.33,373.783 1218,366.5C 1223.11,354.199 1229.61,342.866 1237.5,332.5C 1239.25,328.924 1240.75,325.258 1242,321.5C 1243.26,319.254 1245.09,317.921 1247.5,317.5C 1246.94,312.358 1248.77,308.358 1253,305.5C 1254.75,300.757 1256.58,296.091 1258.5,291.5C 1259.5,291.5 1260.5,291.5 1261.5,291.5C 1261.5,293.167 1261.5,294.833 1261.5,296.5 Z"/></g>
<g><path style="opacity:1" fill="#323e60" d="M 884.5,375.5 C 875.309,358.799 865.809,342.133 856,325.5C 855.31,324.262 854.81,324.262 854.5,325.5C 853.322,321.824 851.822,318.157 850,314.5C 844.336,307.826 839.169,300.826 834.5,293.5C 835.376,293.631 836.043,293.298 836.5,292.5C 831.139,284.341 826.139,276.008 821.5,267.5C 820.743,266.227 820.077,266.227 819.5,267.5C 818.113,264.361 816.946,261.028 816,257.5C 810.799,251.808 806.632,245.475 803.5,238.5C 800.798,232.742 798.465,226.742 796.5,220.5C 797.5,220.5 798.5,220.5 799.5,220.5C 802.246,229.444 806.746,237.444 813,244.5C 813.495,246.473 813.662,248.473 813.5,250.5C 815.91,250.921 817.743,252.254 819,254.5C 820.185,257.932 821.352,261.265 822.5,264.5C 823.5,264.5 824.5,264.5 825.5,264.5C 827.179,268.107 829.012,271.773 831,275.5C 831.49,276.793 831.657,278.127 831.5,279.5C 832.5,279.5 833.5,279.5 834.5,279.5C 835.493,285.82 838.327,291.154 843,295.5C 847.842,305.517 853.342,315.183 859.5,324.5C 861.385,328.021 862.719,331.688 863.5,335.5C 864.5,335.5 865.5,335.5 866.5,335.5C 866.215,337.288 866.548,338.955 867.5,340.5C 870.611,343.435 873.111,346.768 875,350.5C 879.525,359.281 884.191,367.948 889,376.5C 889.781,377.944 889.614,379.277 888.5,380.5C 887.511,378.414 886.178,376.747 884.5,375.5 Z"/></g>
<g><path style="opacity:0.965" fill="#31648b" d="M 884.5,375.5 C 882.35,373.24 880.183,370.907 878,368.5C 874.333,361.5 870.667,354.5 867,347.5C 861.618,340.85 857.451,333.516 854.5,325.5C 854.81,324.262 855.31,324.262 856,325.5C 865.809,342.133 875.309,358.799 884.5,375.5 Z"/></g>
<g><path style="opacity:0.984" fill="#34697f" d="M 1217.5,372.5 C 1216.63,376.983 1215.63,381.317 1214.5,385.5C 1214.66,383.801 1214.49,382.134 1214,380.5C 1211.65,384.979 1209.15,389.313 1206.5,393.5C 1206.5,393.167 1206.5,392.833 1206.5,392.5C 1208.4,387.707 1210.56,383.04 1213,378.5C 1214.76,376.611 1216.26,374.611 1217.5,372.5 Z"/></g>
<g><path style="opacity:0.941" fill="#399a93" d="M 1214.5,385.5 C 1211.57,389.025 1209.4,393.025 1208,397.5C 1207.33,398.252 1206.5,398.586 1205.5,398.5C 1204.17,398.5 1203.5,397.833 1203.5,396.5C 1204.27,395.306 1205.27,394.306 1206.5,393.5C 1209.15,389.313 1211.65,384.979 1214,380.5C 1214.49,382.134 1214.66,383.801 1214.5,385.5 Z"/></g>
<g><path style="opacity:0.965" fill="#34778a" d="M 1196.5,414.5 C 1194.88,417.784 1192.55,420.451 1189.5,422.5C 1191.12,417.921 1193.29,413.588 1196,409.5C 1196.49,411.134 1196.66,412.801 1196.5,414.5 Z"/></g>
<g><path style="opacity:1" fill="#323f64" d="M 1203.5,396.5 C 1203.5,397.833 1204.17,398.5 1205.5,398.5C 1199.35,402.134 1196.35,407.467 1196.5,414.5C 1196.66,412.801 1196.49,411.134 1196,409.5C 1193.29,413.588 1191.12,417.921 1189.5,422.5C 1188.87,424.75 1187.87,426.75 1186.5,428.5C 1185.5,428.5 1184.5,428.5 1183.5,428.5C 1184.98,423.403 1186.64,418.403 1188.5,413.5C 1189.5,413.5 1190.5,413.5 1191.5,413.5C 1192.86,407.332 1195.7,401.998 1200,397.5C 1200.49,396.207 1200.66,394.873 1200.5,393.5C 1201.5,393.5 1202.5,393.5 1203.5,393.5C 1203.5,394.5 1203.5,395.5 1203.5,396.5 Z"/></g>
<g><path style="opacity:1" fill="#324162" d="M 927.5,449.5 C 924.482,448.145 923.149,445.812 923.5,442.5C 916.962,430.436 910.129,418.436 903,406.5C 902.329,405.748 901.496,405.414 900.5,405.5C 896.801,400.097 893.468,394.431 890.5,388.5C 892.048,388.179 892.715,387.179 892.5,385.5C 891.5,385.5 890.5,385.5 889.5,385.5C 889.238,384.022 889.571,382.689 890.5,381.5C 893.548,384.252 896.715,386.919 900,389.5C 902.727,398.414 906.06,407.081 910,415.5C 912.333,417.157 914.333,419.157 916,421.5C 916.333,422.833 916.667,424.167 917,425.5C 921.961,432.867 926.461,440.534 930.5,448.5C 930.124,450.803 929.124,451.137 927.5,449.5 Z"/></g>
<g><path style="opacity:0.965" fill="#326e8c" d="M 900.5,405.5 C 901.496,405.414 902.329,405.748 903,406.5C 910.129,418.436 916.962,430.436 923.5,442.5C 922.508,442.328 921.842,442.662 921.5,443.5C 915.025,430.551 908.025,417.885 900.5,405.5 Z"/></g>
<g><path style="opacity:0.961" fill="#368f92" d="M 923.5,442.5 C 923.149,445.812 924.482,448.145 927.5,449.5C 927.654,451.97 928.654,453.97 930.5,455.5C 931.942,456.82 932.608,458.486 932.5,460.5C 930.871,459.375 929.371,458.041 928,456.5C 925.279,452.392 923.113,448.059 921.5,443.5C 921.842,442.662 922.508,442.328 923.5,442.5 Z"/></g>
<g><path style="opacity:0.996" fill="#31395b" d="M 1181.5,435.5 C 1176.47,442.889 1171.8,450.555 1167.5,458.5C 1166.5,458.53 1165.84,458.03 1165.5,457C 1168.75,450.408 1172.08,443.908 1175.5,437.5C 1178.05,435.143 1180.21,432.477 1182,429.5C 1182.49,431.545 1182.32,433.545 1181.5,435.5 Z"/></g>
<g><path style="opacity:0.945" fill="#336e8a" d="M 1186.5,429.5 C 1186.66,431.527 1186.5,433.527 1186,435.5C 1178.37,442.811 1172.71,451.478 1169,461.5C 1168.29,462.381 1167.46,463.047 1166.5,463.5C 1166.63,461.784 1166.96,460.117 1167.5,458.5C 1171.8,450.555 1176.47,442.889 1181.5,435.5C 1182.82,433.249 1184.48,431.249 1186.5,429.5 Z"/></g>
<g><path style="opacity:0.927" fill="#30709d" d="M 1165.5,463.5 C 1165.83,463.5 1166.17,463.5 1166.5,463.5C 1163.62,468.236 1161.62,473.236 1160.5,478.5C 1160.5,477.167 1160.5,475.833 1160.5,474.5C 1160.74,471.353 1161.57,468.353 1163,465.5C 1163.71,464.619 1164.54,463.953 1165.5,463.5 Z"/></g>
<g><path style="opacity:0.969" fill="#36858c" d="M 1160.5,474.5 C 1160.5,475.833 1160.5,477.167 1160.5,478.5C 1159.02,480.094 1157.52,481.76 1156,483.5C 1153.87,489.46 1150.37,494.46 1145.5,498.5C 1149.22,492.907 1152.38,486.907 1155,480.5C 1156.41,478.046 1158.24,476.046 1160.5,474.5 Z"/></g>
<g><path style="opacity:0.957" fill="#357889" d="M 1141.5,505.5 C 1140.84,512.161 1138,517.828 1133,522.5C 1131.96,524.715 1131.29,527.048 1131,529.5C 1128.21,531.776 1126.04,534.443 1124.5,537.5C 1124.57,537.062 1124.4,536.728 1124,536.5C 1123.15,537.571 1122.31,538.571 1121.5,539.5C 1121.35,538.448 1121.52,537.448 1122,536.5C 1127.56,529.636 1132.22,522.302 1136,514.5C 1136.83,510.847 1138.66,507.847 1141.5,505.5 Z"/></g>
<g><path style="opacity:1" fill="#323d5e" d="M 1165.5,463.5 C 1164.54,463.953 1163.71,464.619 1163,465.5C 1161.57,468.353 1160.74,471.353 1160.5,474.5C 1158.24,476.046 1156.41,478.046 1155,480.5C 1152.38,486.907 1149.22,492.907 1145.5,498.5C 1144.19,500.816 1142.86,503.15 1141.5,505.5C 1138.66,507.847 1136.83,510.847 1136,514.5C 1132.22,522.302 1127.56,529.636 1122,536.5C 1121.52,537.448 1121.35,538.448 1121.5,539.5C 1113.21,554.441 1104.54,569.108 1095.5,583.5C 1095.62,584.107 1095.96,584.44 1096.5,584.5C 1093.9,588.034 1091.57,591.7 1089.5,595.5C 1088.23,598.426 1086.4,601.092 1084,603.5C 1082.59,605.65 1081.76,607.984 1081.5,610.5C 1080.13,613.232 1078.8,615.899 1077.5,618.5C 1077.19,617.262 1076.69,617.262 1076,618.5C 1071.36,625.627 1067.19,632.96 1063.5,640.5C 1062.15,643.572 1060.82,646.572 1059.5,649.5C 1059.57,649.062 1059.4,648.728 1059,648.5C 1058.62,649.942 1057.79,650.942 1056.5,651.5C 1055.35,651.209 1054.68,650.376 1054.5,649C 1055.48,646.882 1056.31,644.715 1057,642.5C 1062.01,636.031 1065.84,629.031 1068.5,621.5C 1069.5,621.5 1070.5,621.5 1071.5,621.5C 1072.65,618.265 1073.82,614.932 1075,611.5C 1078.17,607.154 1080.84,602.487 1083,597.5C 1085.41,595.551 1087.41,593.218 1089,590.5C 1090.86,584.517 1093.7,579.184 1097.5,574.5C 1100.91,568.003 1104.58,561.67 1108.5,555.5C 1112.1,548.63 1115.43,541.63 1118.5,534.5C 1119.5,534.5 1120.5,534.5 1121.5,534.5C 1123.38,529.896 1125.38,525.229 1127.5,520.5C 1133.51,512.49 1138.51,503.824 1142.5,494.5C 1146.55,490.196 1149.38,485.196 1151,479.5C 1152.92,476.585 1154.76,473.585 1156.5,470.5C 1157.32,469.614 1158.32,469.281 1159.5,469.5C 1160.51,466.493 1161.51,463.493 1162.5,460.5C 1163.5,460.5 1164.5,460.5 1165.5,460.5C 1165.5,461.5 1165.5,462.5 1165.5,463.5 Z"/></g>
<g><path style="opacity:0.961" fill="#378e92" d="M 958.5,503.5 C 965.45,514.373 971.617,525.707 977,537.5C 980.494,541.814 983.328,546.481 985.5,551.5C 984.833,551.5 984.167,551.5 983.5,551.5C 973.411,536.412 965.078,520.412 958.5,503.5 Z"/></g>
<g><path style="opacity:1" fill="#323f62" d="M 930.5,455.5 C 931.496,455.414 932.329,455.748 933,456.5C 933.802,460.134 935.636,463.134 938.5,465.5C 941.247,469.48 943.247,473.814 944.5,478.5C 945.552,478.351 946.552,478.517 947.5,479C 952.678,483.976 956.345,489.809 958.5,496.5C 965.771,508.537 972.937,520.537 980,532.5C 980.494,534.134 980.66,535.801 980.5,537.5C 981.675,537.281 982.675,537.614 983.5,538.5C 987.571,544.472 990.904,550.805 993.5,557.5C 997.333,561.439 999.999,566.105 1001.5,571.5C 1002.32,572.386 1003.32,572.719 1004.5,572.5C 1005.92,575.261 1006.59,578.261 1006.5,581.5C 1005.5,581.5 1004.5,581.5 1003.5,581.5C 1003.74,580.209 1003.4,579.209 1002.5,578.5C 997.21,570.503 992.377,562.17 988,553.5C 987.292,552.619 986.458,551.953 985.5,551.5C 983.328,546.481 980.494,541.814 977,537.5C 971.617,525.707 965.45,514.373 958.5,503.5C 950.557,488.796 941.89,474.463 932.5,460.5C 932.608,458.486 931.942,456.82 930.5,455.5 Z"/></g>
<g><path style="opacity:0.961" fill="#378b8c" d="M 1124.5,537.5 C 1120.2,548.238 1115.03,558.571 1109,568.5C 1104.57,573.721 1100.41,579.055 1096.5,584.5C 1095.96,584.44 1095.62,584.107 1095.5,583.5C 1104.54,569.108 1113.21,554.441 1121.5,539.5C 1122.31,538.571 1123.15,537.571 1124,536.5C 1124.4,536.728 1124.57,537.062 1124.5,537.5 Z"/></g>
<g><path style="opacity:0.937" fill="#326f8f" d="M 983.5,551.5 C 984.167,551.5 984.833,551.5 985.5,551.5C 986.458,551.953 987.292,552.619 988,553.5C 992.377,562.17 997.21,570.503 1002.5,578.5C 1001.66,578.842 1001.33,579.508 1001.5,580.5C 995.534,570.856 989.534,561.189 983.5,551.5 Z"/></g>
<g><path style="opacity:0.922" fill="#358692" d="M 1002.5,578.5 C 1003.4,579.209 1003.74,580.209 1003.5,581.5C 1004.69,583.113 1005.69,584.78 1006.5,586.5C 1007.79,587.637 1008.79,588.97 1009.5,590.5C 1009.3,592.39 1009.96,593.89 1011.5,595C 1010.91,595.464 1010.24,595.631 1009.5,595.5C 1008.54,595.047 1007.71,594.381 1007,593.5C 1005.15,589.145 1003.32,584.812 1001.5,580.5C 1001.33,579.508 1001.66,578.842 1002.5,578.5 Z"/></g>
<g><path style="opacity:1" fill="#323b5c" d="M 1026.5,613.5 C 1023.59,611.761 1021.09,609.428 1019,606.5C 1016.58,600.651 1013.41,595.318 1009.5,590.5C 1008.79,588.97 1007.79,587.637 1006.5,586.5C 1006.37,585.624 1006.7,584.957 1007.5,584.5C 1009.19,586.027 1011.03,587.36 1013,588.5C 1016.52,597.482 1021.02,605.815 1026.5,613.5 Z"/></g>
<g><path style="opacity:0.957" fill="#367f88" d="M 1089.5,595.5 C 1089.7,602.093 1087.04,607.093 1081.5,610.5C 1081.76,607.984 1082.59,605.65 1084,603.5C 1086.4,601.092 1088.23,598.426 1089.5,595.5 Z"/></g>
<g><path style="opacity:0.925" fill="#36838f" d="M 1041.5,646.5 C 1037.87,642.693 1034.37,638.693 1031,634.5C 1029.34,631.673 1028.17,628.673 1027.5,625.5C 1027.64,623.663 1028.31,623.33 1029.5,624.5C 1033.03,632.248 1037.03,639.581 1041.5,646.5 Z"/></g>
<g><path style="opacity:1" fill="#324167" d="M 1009.5,590.5 C 1013.41,595.318 1016.58,600.651 1019,606.5C 1021.09,609.428 1023.59,611.761 1026.5,613.5C 1028.8,616.658 1030.97,619.991 1033,623.5C 1034.44,626.425 1035.61,629.425 1036.5,632.5C 1037.5,632.5 1038.5,632.5 1039.5,632.5C 1040.86,638.493 1043.69,643.826 1048,648.5C 1047.79,652.459 1049.62,654.126 1053.5,653.5C 1053.48,655.565 1053.15,657.565 1052.5,659.5C 1050.44,660.682 1048.94,660.015 1048,657.5C 1047.6,657.728 1047.43,658.062 1047.5,658.5C 1046.05,654.26 1044.05,650.26 1041.5,646.5C 1037.03,639.581 1033.03,632.248 1029.5,624.5C 1028.31,623.33 1027.64,623.663 1027.5,625.5C 1024.21,620.25 1021.38,614.584 1019,608.5C 1015.82,604.137 1012.66,599.804 1009.5,595.5C 1010.24,595.631 1010.91,595.464 1011.5,595C 1009.96,593.89 1009.3,592.39 1009.5,590.5 Z"/></g>
<g><path style="opacity:0.98" fill="#35818b" d="M 1077.5,618.5 C 1074.5,624.359 1071.67,630.359 1069,636.5C 1067.55,638.464 1065.72,639.797 1063.5,640.5C 1067.19,632.96 1071.36,625.627 1076,618.5C 1076.69,617.262 1077.19,617.262 1077.5,618.5 Z"/></g>
<g><path style="opacity:0.953" fill="#368690" d="M 1059.5,649.5 C 1058.05,655.228 1055.39,660.395 1051.5,665C 1048.87,663.971 1047.54,661.805 1047.5,658.5C 1047.43,658.062 1047.6,657.728 1048,657.5C 1048.94,660.015 1050.44,660.682 1052.5,659.5C 1053.96,656.975 1055.29,654.308 1056.5,651.5C 1057.79,650.942 1058.62,649.942 1059,648.5C 1059.4,648.728 1059.57,649.062 1059.5,649.5 Z"/></g>
<g><path style="opacity:0.893" fill="#358d9f" d="M 874.5,787.5 C 874.631,788.239 874.464,788.906 874,789.5C 872.637,787.316 871.137,785.316 869.5,783.5C 868.5,783.5 867.5,783.5 866.5,783.5C 866.5,781.5 866.5,779.5 866.5,777.5C 864.821,777.715 863.821,777.048 863.5,775.5C 865.46,774.862 867.293,774.862 869,775.5C 871.119,779.402 872.952,783.402 874.5,787.5 Z"/></g>
<g><path style="opacity:0.278" fill="#2f7fa8" d="M 869.5,783.5 C 871.137,785.316 872.637,787.316 874,789.5C 874.464,788.906 874.631,788.239 874.5,787.5C 876.535,793.244 878.868,798.91 881.5,804.5C 877.703,803.738 876.703,801.738 878.5,798.5C 875.315,798.278 874.315,796.778 875.5,794C 871.774,791.363 869.774,787.863 869.5,783.5 Z"/></g>
<g><path style="opacity:0.872" fill="#1d48cf" d="M 666.5,1146.5 C 673.2,1146.17 679.866,1146.5 686.5,1147.5C 687.32,1149.11 688.654,1149.78 690.5,1149.5C 690.5,1150.5 690.5,1151.5 690.5,1152.5C 691.5,1152.5 692.5,1152.5 693.5,1152.5C 692.955,1156 693.788,1159 696,1161.5C 697.707,1167.05 699.041,1172.71 700,1178.5C 702.048,1181.81 703.048,1185.48 703,1189.5C 704.667,1193.17 706.333,1196.83 708,1200.5C 708.333,1203.17 708.667,1205.83 709,1208.5C 709.667,1209.17 710.333,1209.83 711,1210.5C 711.498,1213.48 711.665,1216.48 711.5,1219.5C 712.5,1219.5 713.5,1219.5 714.5,1219.5C 715.118,1225.67 716.285,1231.67 718,1237.5C 721.803,1248.65 725.637,1259.99 729.5,1271.5C 729.167,1272.17 728.833,1272.83 728.5,1273.5C 730.718,1277.51 732.051,1281.84 732.5,1286.5C 733.086,1286.71 733.586,1287.04 734,1287.5C 734.333,1290.17 734.667,1292.83 735,1295.5C 735.667,1296.17 736.333,1296.83 737,1297.5C 738.465,1303.79 739.631,1310.12 740.5,1316.5C 741.5,1316.5 742.5,1316.5 743.5,1316.5C 744.118,1322.67 745.285,1328.67 747,1334.5C 748.659,1339.63 750.659,1344.63 753,1349.5C 755.291,1342.58 757.458,1335.58 759.5,1328.5C 760.484,1325.57 760.817,1322.57 760.5,1319.5C 761.5,1319.5 762.5,1319.5 763.5,1319.5C 764.369,1313.12 765.535,1306.79 767,1300.5C 767.667,1299.83 768.333,1299.17 769,1298.5C 769.333,1295.83 769.667,1293.17 770,1290.5C 771.833,1286.63 773.499,1282.63 775,1278.5C 776.715,1272.67 777.882,1266.67 778.5,1260.5C 779.5,1260.5 780.5,1260.5 781.5,1260.5C 781.335,1257.48 781.502,1254.48 782,1251.5C 782.667,1250.83 783.333,1250.17 784,1249.5C 783.903,1245.31 785.07,1241.64 787.5,1238.5C 787.069,1237.71 786.735,1236.87 786.5,1236C 788.52,1232.09 789.687,1227.92 790,1223.5C 790.915,1222.67 791.581,1221.67 792,1220.5C 793.282,1214.41 794.782,1208.41 796.5,1202.5C 797.086,1202.29 797.586,1201.96 798,1201.5C 800.333,1192.24 802.666,1182.9 805,1173.5C 805.414,1173.04 805.914,1172.71 806.5,1172.5C 807.559,1166.64 809.059,1160.97 811,1155.5C 812.74,1154.28 813.74,1152.62 814,1150.5C 816.179,1149.88 818.012,1148.72 819.5,1147C 825.859,1146.17 832.193,1146.34 838.5,1147.5C 841.391,1150.55 844.725,1153.05 848.5,1155C 849.642,1161.08 849.809,1167.25 849,1173.5C 846.096,1180.67 843.429,1188.01 841,1195.5C 839.925,1201.29 838.592,1206.95 837,1212.5C 835.414,1216.22 833.748,1219.88 832,1223.5C 832.048,1227.52 831.048,1231.19 829,1234.5C 829.093,1237.96 828.093,1240.96 826,1243.5C 825.667,1246.17 825.333,1248.83 825,1251.5C 823.189,1255.02 821.523,1258.69 820,1262.5C 818.597,1268.53 817.264,1274.53 816,1280.5C 814.842,1281 814.009,1281.83 813.5,1283C 813.899,1285.34 813.899,1287.84 813.5,1290.5C 812.325,1290.28 811.325,1290.61 810.5,1291.5C 811.919,1294.5 811.419,1297.16 809,1299.5C 806.759,1308.84 804.426,1318.17 802,1327.5C 799.943,1330.03 798.943,1333.03 799,1336.5C 796.907,1339.04 795.907,1342.04 796,1345.5C 795.581,1346.67 794.915,1347.67 794,1348.5C 792.285,1354.33 791.118,1360.33 790.5,1366.5C 789.5,1366.5 788.5,1366.5 787.5,1366.5C 785.5,1376.17 783.5,1385.83 781.5,1395.5C 780.5,1395.5 779.5,1395.5 778.5,1395.5C 779.082,1399.32 778.248,1402.65 776,1405.5C 775.417,1410.5 774.251,1415.17 772.5,1419.5C 769.476,1421.19 766.476,1423.02 763.5,1425C 756.5,1425.67 749.5,1425.67 742.5,1425C 739.879,1423.35 737.379,1421.51 735,1419.5C 729.821,1411.35 726.487,1402.35 725,1392.5C 723.109,1389.13 721.942,1385.46 721.5,1381.5C 720.914,1381.29 720.414,1380.96 720,1380.5C 720.057,1377.03 719.057,1374.03 717,1371.5C 715.736,1365.53 714.403,1359.53 713,1353.5C 712.333,1352.83 711.667,1352.17 711,1351.5C 710.667,1348.83 710.333,1346.17 710,1343.5C 709.333,1342.83 708.667,1342.17 708,1341.5C 707.931,1336.98 706.765,1332.81 704.5,1329C 704.645,1328.23 704.978,1327.56 705.5,1327C 702.626,1324.47 701.626,1321.47 702.5,1318C 700.147,1314.58 698.98,1310.74 699,1306.5C 697.477,1302.69 695.811,1299.02 694,1295.5C 694.057,1292.03 693.057,1289.03 691,1286.5C 688.759,1277.16 686.426,1267.83 684,1258.5C 682.252,1254.88 680.586,1251.22 679,1247.5C 677.667,1241.5 676.333,1235.5 675,1229.5C 674.586,1229.04 674.086,1228.71 673.5,1228.5C 669.01,1214.09 664.676,1199.59 660.5,1185C 660.957,1184.59 661.291,1184.09 661.5,1183.5C 659.381,1179.99 657.714,1176.32 656.5,1172.5C 655.167,1166.83 655.167,1161.17 656.5,1155.5C 659.628,1152.21 662.961,1149.21 666.5,1146.5 Z"/></g>
<g><path style="opacity:0.803" fill="#1d48cf" d="M 1267.5,1157.5 C 1272.51,1157.33 1277.51,1157.5 1282.5,1158C 1286.15,1160.3 1289.81,1162.64 1293.5,1165C 1293.62,1166.27 1293.95,1167.6 1294.5,1169C 1295.45,1169.48 1296.45,1169.65 1297.5,1169.5C 1297.67,1176.51 1297.5,1183.51 1297,1190.5C 1295.26,1191.72 1294.26,1193.38 1294,1195.5C 1285.57,1202.89 1275.74,1205.05 1264.5,1202C 1260.86,1200.02 1257.86,1197.36 1255.5,1194C 1254.55,1193.52 1253.55,1193.35 1252.5,1193.5C 1251.81,1189.11 1250.81,1184.78 1249.5,1180.5C 1251.28,1174.46 1253.61,1168.8 1256.5,1163.5C 1259.37,1162.16 1262.37,1160.99 1265.5,1160C 1266.38,1159.29 1267.05,1158.46 1267.5,1157.5 Z"/></g>
<g><path style="opacity:0.865" fill="#1d48cf" d="M 1381.5,1235.5 C 1388.45,1236.26 1395.45,1236.76 1402.5,1237C 1406.66,1238.7 1410.99,1239.7 1415.5,1240C 1421.16,1242.98 1426.82,1245.98 1432.5,1249C 1439.76,1256.9 1440.43,1265.4 1434.5,1274.5C 1433.68,1275.39 1432.68,1275.72 1431.5,1275.5C 1431.5,1276.5 1431.5,1277.5 1431.5,1278.5C 1428.25,1280.41 1424.59,1281.41 1420.5,1281.5C 1418.17,1281.17 1415.83,1280.83 1413.5,1280.5C 1408.52,1277.37 1403.18,1274.87 1397.5,1273C 1388.17,1272.33 1378.83,1272.33 1369.5,1273C 1365.74,1275.08 1362.24,1277.58 1359,1280.5C 1358.8,1282.29 1357.97,1283.62 1356.5,1284.5C 1354.18,1292.2 1355.85,1298.7 1361.5,1304C 1366.03,1306.25 1370.7,1308.25 1375.5,1310C 1378.96,1309.91 1381.96,1310.91 1384.5,1313C 1394.39,1315.09 1404.06,1318.09 1413.5,1322C 1420.81,1326.55 1427.81,1331.39 1434.5,1336.5C 1434.5,1338.5 1434.5,1340.5 1434.5,1342.5C 1435.5,1342.5 1436.5,1342.5 1437.5,1342.5C 1439.03,1347.59 1440.86,1352.59 1443,1357.5C 1443.17,1362.33 1443.33,1367.17 1443.5,1372C 1443.41,1380.07 1442.41,1387.91 1440.5,1395.5C 1439.5,1395.5 1438.5,1395.5 1437.5,1395.5C 1437.5,1397.5 1437.5,1399.5 1437.5,1401.5C 1436.5,1401.5 1435.5,1401.5 1434.5,1401.5C 1434.5,1402.5 1434.5,1403.5 1434.5,1404.5C 1433.5,1404.5 1432.5,1404.5 1431.5,1404.5C 1431.27,1406.43 1430.44,1408.1 1429,1409.5C 1421.87,1416.64 1413.37,1421.14 1403.5,1423C 1402.83,1423.67 1402.17,1424.33 1401.5,1425C 1393.91,1425.17 1386.41,1426.01 1379,1427.5C 1370.59,1425.95 1362.09,1425.12 1353.5,1425C 1341,1420.92 1329.34,1414.92 1318.5,1407C 1317.59,1405.3 1317.26,1403.47 1317.5,1401.5C 1316.5,1401.5 1315.5,1401.5 1314.5,1401.5C 1314.5,1395.5 1314.5,1389.5 1314.5,1383.5C 1315.5,1383.5 1316.5,1383.5 1317.5,1383.5C 1317.5,1381.5 1317.5,1379.5 1317.5,1377.5C 1319.72,1377.73 1321.38,1376.89 1322.5,1375C 1327.49,1374.5 1332.49,1374.33 1337.5,1374.5C 1337.5,1375.5 1337.5,1376.5 1337.5,1377.5C 1340.88,1377.73 1343.88,1378.73 1346.5,1380.5C 1346.5,1381.5 1346.5,1382.5 1346.5,1383.5C 1350.08,1384.72 1353.75,1385.89 1357.5,1387C 1358.17,1387.67 1358.83,1388.33 1359.5,1389C 1371.17,1389.67 1382.83,1389.67 1394.5,1389C 1398.56,1387.1 1401.89,1384.26 1404.5,1380.5C 1405.83,1374.83 1405.83,1369.17 1404.5,1363.5C 1401.72,1360.76 1399.05,1357.93 1396.5,1355C 1394,1354.87 1392,1353.87 1390.5,1352C 1383.06,1349.36 1375.39,1347.36 1367.5,1346C 1359.54,1342.74 1351.54,1339.57 1343.5,1336.5C 1339.91,1333.36 1335.91,1330.69 1331.5,1328.5C 1330.5,1326.83 1329.17,1325.5 1327.5,1324.5C 1326.55,1322.95 1326.21,1321.29 1326.5,1319.5C 1325.5,1319.5 1324.5,1319.5 1323.5,1319.5C 1321.67,1314.57 1319.83,1309.57 1318,1304.5C 1317.33,1296.17 1317.33,1287.83 1318,1279.5C 1320.25,1276.65 1321.08,1273.32 1320.5,1269.5C 1321.5,1269.5 1322.5,1269.5 1323.5,1269.5C 1323.5,1267.5 1323.5,1265.5 1323.5,1263.5C 1324.5,1263.5 1325.5,1263.5 1326.5,1263.5C 1328.24,1261.21 1329.4,1258.54 1330,1255.5C 1339.49,1246.35 1350.66,1240.19 1363.5,1237C 1369.68,1236.83 1375.68,1236.33 1381.5,1235.5 Z"/></g>
<g><path style="opacity:0.16" fill="#28499c" d="M 1105.5,1236.5 C 1099.27,1237.22 1092.93,1238.22 1086.5,1239.5C 1083.92,1239.28 1081.59,1238.61 1079.5,1237.5C 1088.11,1236.56 1096.78,1236.22 1105.5,1236.5 Z"/></g>
<g><path style="opacity:0.876" fill="#1d49ce" d="M 1105.5,1236.5 C 1109.18,1236.33 1112.85,1236.5 1116.5,1237C 1133.63,1241.92 1147.96,1251.42 1159.5,1265.5C 1160.32,1266.39 1161.32,1266.72 1162.5,1266.5C 1162.34,1268.2 1162.51,1269.87 1163,1271.5C 1166.1,1275.59 1168.77,1279.93 1171,1284.5C 1171.03,1288.8 1172.03,1292.8 1174,1296.5C 1174.17,1300.83 1174.33,1305.17 1174.5,1309.5C 1174.36,1317.07 1173.36,1324.41 1171.5,1331.5C 1170.5,1331.5 1169.5,1331.5 1168.5,1331.5C 1168.66,1332.87 1168.49,1334.21 1168,1335.5C 1162.23,1340.25 1155.73,1343.75 1148.5,1346C 1119.49,1346.17 1090.49,1346.67 1061.5,1347.5C 1060.88,1369.02 1070.88,1382.18 1091.5,1387C 1092.17,1387.67 1092.83,1388.33 1093.5,1389C 1103.17,1389.67 1112.83,1389.67 1122.5,1389C 1131.81,1383.68 1141.48,1378.84 1151.5,1374.5C 1154.39,1376.67 1157.72,1378 1161.5,1378.5C 1164.11,1380.37 1166.28,1382.7 1168,1385.5C 1168.5,1391.82 1168.67,1398.16 1168.5,1404.5C 1167.45,1404.35 1166.45,1404.52 1165.5,1405C 1158.83,1412.68 1150.83,1418.35 1141.5,1422C 1137.81,1422 1134.47,1423 1131.5,1425C 1123.24,1425.13 1115.07,1425.97 1107,1427.5C 1099.26,1425.98 1091.43,1425.15 1083.5,1425C 1077.29,1423.31 1071.29,1421.15 1065.5,1418.5C 1056.37,1413.49 1047.87,1407.49 1040,1400.5C 1038.55,1397.91 1037.39,1395.24 1036.5,1392.5C 1035.5,1392.5 1034.5,1392.5 1033.5,1392.5C 1030.67,1386.4 1027.84,1380.4 1025,1374.5C 1024.93,1369.6 1023.93,1364.93 1022,1360.5C 1021.33,1340.17 1021.33,1319.83 1022,1299.5C 1022.67,1298.83 1023.33,1298.17 1024,1297.5C 1024.33,1294.17 1024.67,1290.83 1025,1287.5C 1027.01,1285.32 1028.01,1282.65 1028,1279.5C 1029.81,1277.29 1031.48,1274.95 1033,1272.5C 1033.48,1271.55 1033.65,1270.55 1033.5,1269.5C 1034.5,1269.5 1035.5,1269.5 1036.5,1269.5C 1037.35,1266.78 1038.52,1264.11 1040,1261.5C 1051.17,1250.08 1064.34,1242.08 1079.5,1237.5C 1081.59,1238.61 1083.92,1239.28 1086.5,1239.5C 1092.93,1238.22 1099.27,1237.22 1105.5,1236.5 Z M 1085.5,1272.5 C 1094.17,1272.33 1102.84,1272.5 1111.5,1273C 1117.03,1275.97 1122.03,1279.81 1126.5,1284.5C 1127.39,1285.32 1127.72,1286.32 1127.5,1287.5C 1128.5,1287.5 1129.5,1287.5 1130.5,1287.5C 1130.58,1288.93 1130.25,1290.26 1129.5,1291.5C 1129.83,1292.5 1130.5,1293.17 1131.5,1293.5C 1132.58,1297.97 1133.91,1302.3 1135.5,1306.5C 1135.71,1309.01 1135.05,1311.18 1133.5,1313C 1109.5,1313.5 1085.5,1313.67 1061.5,1313.5C 1062.06,1308.99 1062.72,1304.49 1063.5,1300C 1063.26,1299.13 1062.93,1298.29 1062.5,1297.5C 1064.69,1293.1 1067.02,1288.77 1069.5,1284.5C 1073.34,1280.08 1078.01,1276.91 1083.5,1275C 1084.38,1274.29 1085.05,1273.46 1085.5,1272.5 Z"/></g>
<g><path style="opacity:0.878" fill="#1d48cf" d="M 863.5,1237.5 C 872.715,1237.22 880.548,1240.22 887,1246.5C 887.333,1282.5 887.667,1318.5 888,1354.5C 889.891,1357.87 891.058,1361.54 891.5,1365.5C 892.646,1368.28 893.979,1370.95 895.5,1373.5C 898.736,1376.28 901.736,1379.28 904.5,1382.5C 908.941,1385.18 913.608,1387.35 918.5,1389C 922.833,1389.67 927.167,1389.67 931.5,1389C 935.989,1387.31 940.323,1385.31 944.5,1383C 947.391,1380.05 950.391,1377.22 953.5,1374.5C 955.127,1371.04 956.96,1367.71 959,1364.5C 959.111,1359.9 960.111,1355.56 962,1351.5C 962.333,1316.5 962.667,1281.5 963,1246.5C 965.811,1244.73 968.311,1242.57 970.5,1240C 974.116,1238.87 977.783,1238.04 981.5,1237.5C 987.489,1238.2 992.989,1240.2 998,1243.5C 998.098,1245.62 998.931,1247.29 1000.5,1248.5C 1001.67,1286.83 1001.83,1325.16 1001,1363.5C 1000.58,1364.67 999.915,1365.67 999,1366.5C 998.549,1372.22 997.216,1377.55 995,1382.5C 993.11,1385.86 991.277,1389.19 989.5,1392.5C 988.5,1392.5 987.5,1392.5 986.5,1392.5C 986.657,1393.87 986.49,1395.21 986,1396.5C 965.084,1421.57 938.251,1431.07 905.5,1425C 902.825,1423.14 899.825,1422.14 896.5,1422C 889.701,1418.29 883.035,1414.29 876.5,1410C 873.872,1406.19 870.538,1403.36 866.5,1401.5C 864.5,1397.5 862.5,1393.5 860.5,1389.5C 859.5,1389.5 858.5,1389.5 857.5,1389.5C 857.66,1387.8 857.494,1386.13 857,1384.5C 853.625,1379.75 851.625,1374.42 851,1368.5C 850.581,1367.33 849.915,1366.33 849,1365.5C 848.333,1326.5 848.333,1287.5 849,1248.5C 850.717,1247.01 851.884,1245.18 852.5,1243C 856.102,1240.75 859.769,1238.91 863.5,1237.5 Z"/></g>
<g><path style="opacity:0.887" fill="#1d48cf" d="M 1271.5,1499.5 C 1254.5,1499.5 1237.5,1499.5 1220.5,1499.5C 1220.33,1492.83 1220.5,1486.16 1221,1479.5C 1222.75,1476.25 1225.25,1473.92 1228.5,1472.5C 1234.92,1471.3 1241.25,1469.8 1247.5,1468C 1248.98,1466.29 1250.31,1464.45 1251.5,1462.5C 1251.95,1457.58 1253.12,1452.91 1255,1448.5C 1255.33,1381.5 1255.67,1314.5 1256,1247.5C 1268.4,1234.54 1281.06,1234.21 1294,1246.5C 1294.67,1316.5 1294.67,1386.5 1294,1456.5C 1293.09,1457.33 1292.42,1458.33 1292,1459.5C 1291.67,1462.5 1291.33,1465.5 1291,1468.5C 1288.75,1471.02 1287.92,1474.02 1288.5,1477.5C 1287.5,1477.5 1286.5,1477.5 1285.5,1477.5C 1285.5,1479.5 1285.5,1481.5 1285.5,1483.5C 1282.2,1485.04 1280.03,1487.7 1279,1491.5C 1276.67,1493.45 1274.34,1495.45 1272,1497.5C 1271.54,1498.09 1271.37,1498.76 1271.5,1499.5 Z"/></g>
<g><path style="opacity:0.822" fill="#1d48cf" d="M 1200.5,1377.5 C 1206.84,1377.33 1213.18,1377.5 1219.5,1378C 1223.19,1379.67 1226.36,1382.17 1229,1385.5C 1229.49,1386.79 1229.66,1388.13 1229.5,1389.5C 1230.5,1389.5 1231.5,1389.5 1232.5,1389.5C 1232.19,1393.73 1232.86,1397.73 1234.5,1401.5C 1233,1405.34 1232.33,1409.34 1232.5,1413.5C 1231.5,1413.5 1230.5,1413.5 1229.5,1413.5C 1229.66,1415.2 1229.49,1416.87 1229,1418.5C 1220.84,1425.31 1211.34,1427.47 1200.5,1425C 1196.85,1423 1193.85,1420.33 1191.5,1417C 1190.55,1416.52 1189.55,1416.35 1188.5,1416.5C 1188.95,1414.02 1188.28,1412.02 1186.5,1410.5C 1185.5,1404.54 1185.17,1398.54 1185.5,1392.5C 1186.5,1392.5 1187.5,1392.5 1188.5,1392.5C 1188.5,1390.5 1188.5,1388.5 1188.5,1386.5C 1192.7,1383.77 1196.7,1380.77 1200.5,1377.5 Z"/></g>
</svg>
